{
.appVersion = "1230";
DisplayStrings = (
"Genzsch-Antiqua\012Heisse-Antiqua"
);
copyright = ...;
date = "2019-09-26 08:24:39 +0000";
designer = Yanone;
designerURL = "http://yanone.de/typedesign/";
disablesNiceNames = 1;
familyName = "Heisse Antiqua";
featurePrefixes = (
{
automatic = 1;
code = "languagesystem DFLT dflt;\012";
name = Languagesystems;
}
);
features = (
{
automatic = 1;
code = "feature lnum;\012feature onum;\012feature case;\012";
name = aalt;
},
{
automatic = 1;
code = "sub zero by zero.lf;\012sub one by one.lf;\012sub two by two.lf;\012sub three by three.lf;\012sub four by four.lf;\012sub five by five.lf;\012sub six by six.lf;\012sub seven by seven.lf;\012sub eight by eight.lf;\012sub nine by nine.lf;\012";
name = lnum;
},
{
automatic = 1;
code = "sub zero.lf by zero;\012sub one.lf by one;\012sub two.lf by two;\012sub three.lf by three;\012sub four.lf by four;\012sub five.lf by five;\012sub six.lf by six;\012sub seven.lf by seven;\012sub eight.lf by eight;\012sub nine.lf by nine;\012";
name = onum;
},
{
automatic = 1;
code = "sub parenleft by parenleft.case;\012sub parenright by parenright.case;\012sub bracketleft by bracketleft.case;\012sub bracketright by bracketright.case;\012sub hyphen by hyphen.case;\012sub endash by endash.case;\012sub emdash by emdash.case;\012sub guillemotleft by guillemotleft.case;\012sub guillemotright by guillemotright.case;\012sub guilsinglleft by guilsinglleft.case;\012sub guilsinglright by guilsinglright.case;\012sub zero by zero.lf;\012sub one by one.lf;\012sub two by two.lf;\012sub three by three.lf;\012sub four by four.lf;\012sub five by five.lf;\012sub six by six.lf;\012sub seven by seven.lf;\012sub eight by eight.lf;\012sub nine by nine.lf;\012";
name = case;
},
{
automatic = 1;
code = "sub longs i by longs_i;\012sub longs l by longs_l;\012sub longs longs by longs_longs;\012";
name = hlig;
},
{
automatic = 1;

glyphs = (
{
glyphname = A;
layers = (
{
layerId = "12E5A654-CA13-4855-9DF9-FF4C09D128B7";
paths = (
{
closed = 1;
nodes = (
"23 -8 LINE",
"57 -3 OFFCURVE",
"136 -1 OFFCURVE",
"166 -1 CURVE SMOOTH",
"214 -1 OFFCURVE",
"284 -4 OFFCURVE",
"324 -8 CURVE",
"328 52 LINE",
"297 58 OFFCURVE",
"260 74 OFFCURVE",
"232 90 CURVE",
"245 134 OFFCURVE",
"262 184 OFFCURVE",
"281 235 CURVE",
"533 235 LINE",
"551 184 OFFCURVE",
"567 135 OFFCURVE",
"580 90 CURVE",
"556 71 OFFCURVE",
"527 58 OFFCURVE",
"495 51 CURVE",
"497 -8 LINE",
"531 -3 OFFCURVE",
"662 -1 OFFCURVE",
"700 -1 CURVE SMOOTH",
"748 -1 OFFCURVE",
"844 -4 OFFCURVE",
"884 -8 CURVE",
"888 52 LINE",
"861 59 OFFCURVE",
"841 77 OFFCURVE",
"823 95 CURVE",
"533 700 LINE",
"494 710 LINE",
"291 674 LINE",
"283 627 LINE",
"354 597 LINE",
"121 98 LINE",
"94 77 OFFCURVE",
"40 54 OFFCURVE",
"16 50 CURVE"
);
},
{
closed = 1;
nodes = (
"426 482 LINE",
"454 426 OFFCURVE",
"480 369 OFFCURVE",
"503 312 CURVE",
"311 312 LINE",
"338 375 OFFCURVE",
"367 435 OFFCURVE",
"396 480 CURVE",
"411 528 LINE"
);
}
);
width = 906;
}
);
leftKerningGroup = A;
note = A;
rightKerningGroup = A;
unicode = 0041;
},
{
glyphname = Aacute;
layers = (
{
layerId = "12E5A654-CA13-4855-9DF9-FF4C09D128B7";
paths = (
{
closed = 1;
nodes = (
"23 -8 LINE",
"57 -3 OFFCURVE",
"136 -1 OFFCURVE",
"166 -1 CURVE SMOOTH",
"214 -1 OFFCURVE",
"284 -4 OFFCURVE",
"324 -8 CURVE",
"328 52 LINE",
"297 58 OFFCURVE",
"260 74 OFFCURVE",
"232 90 CURVE",
"245 134 OFFCURVE",
"262 184 OFFCURVE",
"281 235 CURVE",
"533 235 LINE",
"551 184 OFFCURVE",
"567 135 OFFCURVE",
"580 90 CURVE",
"556 71 OFFCURVE",
"527 58 OFFCURVE",
"495 51 CURVE",
"497 -8 LINE",
"531 -3 OFFCURVE",
"662 -1 OFFCURVE",
"700 -1 CURVE SMOOTH",
"748 -1 OFFCURVE",
"844 -4 OFFCURVE",
"884 -8 CURVE",
"888 52 LINE",
"861 59 OFFCURVE",
"841 77 OFFCURVE",
"823 95 CURVE",
"533 700 LINE",
"494 710 LINE",
"291 674 LINE",
"283 627 LINE",
"354 597 LINE",
"121 98 LINE",
"94 77 OFFCURVE",
"40 54 OFFCURVE",
"16 50 CURVE"
);
},
{
closed = 1;
nodes = (
"426 482 LINE",
"454 426 OFFCURVE",
"480 369 OFFCURVE",
"503 312 CURVE",
"311 312 LINE",
"338 375 OFFCURVE",
"367 435 OFFCURVE",
"396 480 CURVE",
"411 528 LINE"
);
},
{
closed = 1;
nodes = (
"371 719 LINE",
"448 740 OFFCURVE",
"499 772 OFFCURVE",
"531 830 CURVE",
"482 907 LINE",
"423 903 LINE",
"416 860 OFFCURVE",
"381 809 OFFCURVE",
"336 775 CURVE"
);
}
);
width = 906;
}
);
leftKerningGroup = A;
note = Aacute;
rightKerningGroup = A;
unicode = 00C1;
},
{
glyphname = Acircumflex;
layers = (
{
layerId = "12E5A654-CA13-4855-9DF9-FF4C09D128B7";
paths = (
{
closed = 1;
nodes = (
"23 -8 LINE",
"57 -3 OFFCURVE",
"136 -1 OFFCURVE",
"166 -1 CURVE SMOOTH",
"214 -1 OFFCURVE",
"284 -4 OFFCURVE",
"324 -8 CURVE",
"328 52 LINE",
"297 58 OFFCURVE",
"260 74 OFFCURVE",
"232 90 CURVE",
"245 134 OFFCURVE",
"262 184 OFFCURVE",
"281 235 CURVE",
"533 235 LINE",
"551 184 OFFCURVE",
"567 135 OFFCURVE",
"580 90 CURVE",
"556 71 OFFCURVE",
"527 58 OFFCURVE",
"495 51 CURVE",
"497 -8 LINE",
"531 -3 OFFCURVE",
"662 -1 OFFCURVE",
"700 -1 CURVE SMOOTH",
"748 -1 OFFCURVE",
"844 -4 OFFCURVE",
"884 -8 CURVE",
"888 52 LINE",
"861 59 OFFCURVE",
"841 77 OFFCURVE",
"823 95 CURVE",
"533 700 LINE",
"494 710 LINE",
"291 674 LINE",
"283 627 LINE",
"354 597 LINE",
"121 98 LINE",
"94 77 OFFCURVE",
"40 54 OFFCURVE",
"16 50 CURVE"
);
},
{
closed = 1;
nodes = (
"426 482 LINE",
"454 426 OFFCURVE",
"480 369 OFFCURVE",
"503 312 CURVE",
"311 312 LINE",
"338 375 OFFCURVE",
"367 435 OFFCURVE",
"396 480 CURVE",
"411 528 LINE"
);
},
{
closed = 1;
nodes = (
"417 902 LINE",
"301 754 LINE",
"325 724 LINE",
"429 776 LINE",
"529 725 LINE",
"565 754 LINE",
"474 902 LINE"
);
}
);
width = 906;
}
);
leftKerningGroup = A;
note = Acircumflex;
rightKerningGroup = A;
unicode = 00C2;
},
{
glyphname = Adieresis;
layers = (
{
layerId = "12E5A654-CA13-4855-9DF9-FF4C09D128B7";
paths = (
{
closed = 1;
nodes = (
"23 -8 LINE",
"57 -3 OFFCURVE",
"136 -1 OFFCURVE",
"166 -1 CURVE SMOOTH",
"214 -1 OFFCURVE",
"284 -4 OFFCURVE",
"324 -8 CURVE",
"328 52 LINE",
"297 58 OFFCURVE",
"260 74 OFFCURVE",
"232 90 CURVE",
"245 134 OFFCURVE",
"262 184 OFFCURVE",
"281 235 CURVE",
"533 235 LINE",
"551 184 OFFCURVE",
"567 135 OFFCURVE",
"580 90 CURVE",
"556 71 OFFCURVE",
"527 58 OFFCURVE",
"495 51 CURVE",
"497 -8 LINE",
"531 -3 OFFCURVE",
"662 -1 OFFCURVE",
"700 -1 CURVE SMOOTH",
"748 -1 OFFCURVE",
"844 -4 OFFCURVE",
"884 -8 CURVE",
"888 52 LINE",
"861 59 OFFCURVE",
"841 77 OFFCURVE",
"823 95 CURVE",
"533 700 LINE",
"494 710 LINE",
"291 674 LINE",
"283 627 LINE",
"354 597 LINE",
"121 98 LINE",
"94 77 OFFCURVE",
"40 54 OFFCURVE",
"16 50 CURVE"
);
},
{
closed = 1;
nodes = (
"426 482 LINE",
"454 426 OFFCURVE",
"480 369 OFFCURVE",
"503 312 CURVE",
"311 312 LINE",
"338 375 OFFCURVE",
"367 435 OFFCURVE",
"396 480 CURVE",
"411 528 LINE"
);
},
{
closed = 1;
nodes = (
"244 771 OFFCURVE",
"275 735 OFFCURVE",
"320 735 CURVE SMOOTH",
"366 735 OFFCURVE",
"407 776 OFFCURVE",
"407 829 CURVE SMOOTH",
"407 871 OFFCURVE",
"375 907 OFFCURVE",
"330 907 CURVE SMOOTH",
"285 907 OFFCURVE",
"244 866 OFFCURVE",
"244 814 CURVE SMOOTH"
);
},
{
closed = 1;
nodes = (
"447 768 OFFCURVE",
"478 732 OFFCURVE",
"527 732 CURVE SMOOTH",
"573 732 OFFCURVE",
"617 775 OFFCURVE",
"617 830 CURVE SMOOTH",
"617 874 OFFCURVE",
"585 910 OFFCURVE",
"536 910 CURVE SMOOTH",
"489 910 OFFCURVE",
"447 867 OFFCURVE",
"447 815 CURVE SMOOTH"
);
}
);
width = 906;
}
);
leftKerningGroup = A;
note = Adieresis;
rightKerningGroup = A;
unicode = 00C4;
},
{
glyphname = Agrave;
layers = (
{
layerId = "12E5A654-CA13-4855-9DF9-FF4C09D128B7";
paths = (
{
closed = 1;
nodes = (
"23 -8 LINE",
"57 -3 OFFCURVE",
"136 -1 OFFCURVE",
"166 -1 CURVE SMOOTH",
"214 -1 OFFCURVE",
"284 -4 OFFCURVE",
"324 -8 CURVE",
"328 52 LINE",
"297 58 OFFCURVE",
"260 74 OFFCURVE",
"232 90 CURVE",
"245 134 OFFCURVE",
"262 184 OFFCURVE",
"281 235 CURVE",
"533 235 LINE",
"551 184 OFFCURVE",
"567 135 OFFCURVE",
"580 90 CURVE",
"556 71 OFFCURVE",
"527 58 OFFCURVE",
"495 51 CURVE",
"497 -8 LINE",
"531 -3 OFFCURVE",
"662 -1 OFFCURVE",
"700 -1 CURVE SMOOTH",
"748 -1 OFFCURVE",
"844 -4 OFFCURVE",
"884 -8 CURVE",
"888 52 LINE",
"861 59 OFFCURVE",
"841 77 OFFCURVE",
"823 95 CURVE",
"533 700 LINE",
"494 710 LINE",
"291 674 LINE",
"283 627 LINE",
"354 597 LINE",
"121 98 LINE",
"94 77 OFFCURVE",
"40 54 OFFCURVE",
"16 50 CURVE"
);
},
{
closed = 1;
nodes = (
"426 482 LINE",
"454 426 OFFCURVE",
"480 369 OFFCURVE",
"503 312 CURVE",
"311 312 LINE",
"338 375 OFFCURVE",
"367 435 OFFCURVE",
"396 480 CURVE",
"411 528 LINE"
);
},
{
closed = 1;
nodes = (
"503 775 LINE",
"458 809 OFFCURVE",
"433 859 OFFCURVE",
"426 902 CURVE",
"372 906 LINE",
"305 840 LINE",
"324 781 OFFCURVE",
"385 740 OFFCURVE",
"462 719 CURVE"
);
}
);
width = 906;
}
);
leftKerningGroup = A;
note = Agrave;
rightKerningGroup = A;
unicode = 00C0;
},
{
glyphname = Atilde;
layers = (
{
layerId = "12E5A654-CA13-4855-9DF9-FF4C09D128B7";
paths = (
{
closed = 1;
nodes = (
"23 -8 LINE",
"57 -3 OFFCURVE",
"136 -1 OFFCURVE",
"166 -1 CURVE SMOOTH",
"214 -1 OFFCURVE",
"284 -4 OFFCURVE",
"324 -8 CURVE",
"328 52 LINE",
"297 58 OFFCURVE",
"260 74 OFFCURVE",
"232 90 CURVE",
"245 134 OFFCURVE",
"262 184 OFFCURVE",
"281 235 CURVE",
"533 235 LINE",
"551 184 OFFCURVE",
"567 135 OFFCURVE",
"580 90 CURVE",
"556 71 OFFCURVE",
"527 58 OFFCURVE",
"495 51 CURVE",
"497 -8 LINE",
"531 -3 OFFCURVE",
"662 -1 OFFCURVE",
"700 -1 CURVE SMOOTH",
"748 -1 OFFCURVE",
"844 -4 OFFCURVE",
"884 -8 CURVE",
"888 52 LINE",
"861 59 OFFCURVE",
"841 77 OFFCURVE",
"823 95 CURVE",
"533 700 LINE",
"494 710 LINE",
"291 674 LINE",
"283 627 LINE",
"354 597 LINE",
"121 98 LINE",
"94 77 OFFCURVE",
"40 54 OFFCURVE",
"16 50 CURVE"
);
},
{
closed = 1;
nodes = (
"426 482 LINE",
"454 426 OFFCURVE",
"480 369 OFFCURVE",
"503 312 CURVE",
"311 312 LINE",
"338 375 OFFCURVE",
"367 435 OFFCURVE",
"396 480 CURVE",
"411 528 LINE"
);
},
{
closed = 1;
nodes = (
"263 754 LINE",
"281 767 OFFCURVE",
"307 784 OFFCURVE",
"332 784 CURVE SMOOTH",
"381 784 OFFCURVE",
"416 741 OFFCURVE",
"480 741 CURVE SMOOTH",
"524 741 OFFCURVE",
"590 783 OFFCURVE",
"615 833 CURVE",
"589 881 LINE",
"567 866 OFFCURVE",
"544 855 OFFCURVE",
"512 855 CURVE SMOOTH",
"464 855 OFFCURVE",
"430 897 OFFCURVE",
"374 897 CURVE SMOOTH",
"329 897 OFFCURVE",
"255 841 OFFCURVE",
"236 795 CURVE"
);
}
);
width = 906;
}
);
leftKerningGroup = A;
note = Atilde;
rightKerningGroup = A;
unicode = 00C3;
},
{
glyphname = B;
layers = (
{
layerId = "12E5A654-CA13-4855-9DF9-FF4C09D128B7";
paths = (
{
closed = 1;
nodes = (
"36 -12 LINE",
"79 -6 OFFCURVE",
"193 -1 OFFCURVE",
"252 -1 CURVE SMOOTH",
"318 -1 OFFCURVE",
"389 -8 OFFCURVE",
"463 -8 CURVE SMOOTH",
"674 -8 OFFCURVE",
"738 70 OFFCURVE",
"738 178 CURVE SMOOTH",
"738 304 OFFCURVE",
"633 354 OFFCURVE",
"507 368 CURVE",
"620 384 OFFCURVE",
"686 435 OFFCURVE",
"686 526 CURVE SMOOTH",
"686 645 OFFCURVE",
"568 704 OFFCURVE",
"428 704 CURVE SMOOTH",
"365 704 OFFCURVE",
"301 700 OFFCURVE",
"245 700 CURVE SMOOTH",
"183 700 OFFCURVE",
"108 701 OFFCURVE",
"45 705 CURVE",
"37 637 LINE",
"58 634 OFFCURVE",
"80 628 OFFCURVE",
"100 620 CURVE",
"109 537 OFFCURVE",
"110 439 OFFCURVE",
"110 359 CURVE SMOOTH",
"110 240 OFFCURVE",
"105 146 OFFCURVE",
"95 71 CURVE",
"73 61 OFFCURVE",
"50 54 OFFCURVE",
"28 53 CURVE"
);
},
{
closed = 1;
nodes = (
"315 331 LINE SMOOTH",
"441 331 OFFCURVE",
"503 270 OFFCURVE",
"503 181 CURVE SMOOTH",
"503 81 OFFCURVE",
"426 73 OFFCURVE",
"400 73 CURVE SMOOTH",
"361 73 OFFCURVE",
"332 89 OFFCURVE",
"315 105 CURVE",
"306 170 OFFCURVE",
"304 245 OFFCURVE",
"304 331 CURVE"
);
},
{
closed = 1;
nodes = (
"422 623 OFFCURVE",
"470 590 OFFCURVE",
"470 516 CURVE SMOOTH",
"470 447 OFFCURVE",
"419 415 OFFCURVE",
"325 415 CURVE SMOOTH",
"304 415 LINE",
"305 487 OFFCURVE",
"308 561 OFFCURVE",
"315 622 CURVE",
"326 623 OFFCURVE",
"338 623 OFFCURVE",
"352 623 CURVE SMOOTH"
);
}
);
width = 768;
}
);
note = B;
rightKerningGroup = B;
unicode = 0042;
},
{
glyphname = C;
layers = (
{
layerId = "12E5A654-CA13-4855-9DF9-FF4C09D128B7";
paths = (
{
closed = 1;
nodes = (
"791 224 LINE",
"727 232 LINE",
"672 105 LINE",
"625 68 OFFCURVE",
"575 56 OFFCURVE",
"521 56 CURVE SMOOTH",
"389 56 OFFCURVE",
"286 169 OFFCURVE",
"286 353 CURVE SMOOTH",
"286 510 OFFCURVE",
"365 627 OFFCURVE",
"500 627 CURVE SMOOTH",
"554 627 OFFCURVE",
"600 610 OFFCURVE",
"644 585 CURVE",
"709 470 LINE",
"772 477 LINE",
"772 654 LINE",
"663 698 OFFCURVE",
"578 710 OFFCURVE",
"470 710 CURVE SMOOTH",
"232 710 OFFCURVE",
"40 590 OFFCURVE",
"40 332 CURVE SMOOTH",
"40 98 OFFCURVE",
"234 -18 OFFCURVE",
"469 -18 CURVE SMOOTH",
"605 -18 OFFCURVE",
"698 -6 OFFCURVE",
"791 48 CURVE"
);
}
);
width = 851;
}
);
leftKerningGroup = C;
note = C;
rightKerningGroup = C;
unicode = 0043;
},
{
glyphname = Ccedilla;
layers = (
{
layerId = "12E5A654-CA13-4855-9DF9-FF4C09D128B7";
paths = (
{
closed = 1;
nodes = (
"791 224 LINE",
"727 232 LINE",
"672 105 LINE",
"625 68 OFFCURVE",
"575 56 OFFCURVE",
"521 56 CURVE SMOOTH",
"389 56 OFFCURVE",
"286 169 OFFCURVE",
"286 353 CURVE SMOOTH",
"286 510 OFFCURVE",
"365 627 OFFCURVE",
"500 627 CURVE SMOOTH",
"554 627 OFFCURVE",
"600 610 OFFCURVE",
"644 585 CURVE",
"709 470 LINE",
"772 477 LINE",
"772 654 LINE",
"663 698 OFFCURVE",
"578 710 OFFCURVE",
"470 710 CURVE SMOOTH",
"232 710 OFFCURVE",
"40 590 OFFCURVE",
"40 332 CURVE SMOOTH",
"40 102 OFFCURVE",
"226 -13 OFFCURVE",
"455 -18 CURVE",
"455 -96 LINE",
"466 -94 OFFCURVE",
"480 -93 OFFCURVE",
"494 -93 CURVE SMOOTH",
"511 -93 OFFCURVE",
"528 -97 OFFCURVE",
"528 -109 CURVE SMOOTH",
"528 -121 OFFCURVE",
"511 -125 OFFCURVE",
"494 -125 CURVE SMOOTH",
"478 -125 OFFCURVE",
"467 -122 OFFCURVE",
"455 -118 CURVE",
"445 -168 LINE",
"462 -182 OFFCURVE",
"487 -188 OFFCURVE",
"511 -188 CURVE SMOOTH",
"560 -188 OFFCURVE",
"594 -164 OFFCURVE",
"594 -110 CURVE SMOOTH",
"594 -68 OFFCURVE",
"574 -42 OFFCURVE",
"538 -42 CURVE SMOOTH",
"526 -42 OFFCURVE",
"508 -45 OFFCURVE",
"497 -52 CURVE",
"497 -18 LINE",
"618 -16 OFFCURVE",
"704 -2 OFFCURVE",
"791 48 CURVE"
);
}
);
width = 851;
}
);
leftKerningGroup = C;
note = Ccedilla;
rightKerningGroup = C;
unicode = 00C7;
},
{
glyphname = D;
layers = (
{
layerId = "12E5A654-CA13-4855-9DF9-FF4C09D128B7";
paths = (
{
closed = 1;
nodes = (
"311 704 OFFCURVE",
"253 700 OFFCURVE",
"207 700 CURVE SMOOTH",
"156 700 OFFCURVE",
"83 701 OFFCURVE",
"32 705 CURVE",
"24 635 LINE",
"50 631 OFFCURVE",
"77 624 OFFCURVE",
"101 611 CURVE",
"109 530 OFFCURVE",
"110 436 OFFCURVE",
"110 359 CURVE SMOOTH",
"110 239 OFFCURVE",
"105 144 OFFCURVE",
"95 69 CURVE",
"71 59 OFFCURVE",
"42 53 OFFCURVE",
"17 51 CURVE",
"24 -12 LINE",
"60 -6 OFFCURVE",
"180 -1 OFFCURVE",
"228 -1 CURVE SMOOTH",
"282 -1 OFFCURVE",
"378 -8 OFFCURVE",
"438 -8 CURVE SMOOTH",
"716 -8 OFFCURVE",
"847 93 OFFCURVE",
"847 330 CURVE SMOOTH",
"847 566 OFFCURVE",
"659 704 OFFCURVE",
"381 704 CURVE SMOOTH"
);
},
{
closed = 1;
nodes = (
"608 132 OFFCURVE",
"539 68 OFFCURVE",
"431 68 CURVE SMOOTH",
"388 68 OFFCURVE",
"356 77 OFFCURVE",
"327 91 CURVE",
"316 163 OFFCURVE",
"314 248 OFFCURVE",
"314 349 CURVE SMOOTH",
"314 440 OFFCURVE",
"317 543 OFFCURVE",
"326 623 CURVE",
"511 613 OFFCURVE",
"608 507 OFFCURVE",
"608 308 CURVE SMOOTH"
);
}
);
width = 886;
}
);
note = D;
rightKerningGroup = D;
unicode = 0044;
},
{
glyphname = E;
layers = (
{
layerId = "12E5A654-CA13-4855-9DF9-FF4C09D128B7";
paths = (
{
closed = 1;
nodes = (
"516 216 LINE",
"511 256 OFFCURVE",
"508 305 OFFCURVE",
"508 348 CURVE SMOOTH",
"508 396 OFFCURVE",
"513 434 OFFCURVE",
"519 480 CURVE",
"454 489 LINE",
"445 455 OFFCURVE",
"430 422 OFFCURVE",
"410 394 CURVE",
"314 394 LINE",
"315 472 OFFCURVE",
"318 555 OFFCURVE",
"325 621 CURVE",
"351 627 OFFCURVE",
"381 630 OFFCURVE",
"417 630 CURVE SMOOTH",
"463 630 OFFCURVE",
"508 622 OFFCURVE",
"542 607 CURVE",
"595 479 LINE",
"670 484 LINE",
"686 712 LINE",
"589 701 OFFCURVE",
"427 700 OFFCURVE",
"296 700 CURVE SMOOTH",
"169 700 OFFCURVE",
"69 704 OFFCURVE",
"26 707 CURVE",
"19 645 LINE",
"47 637 OFFCURVE",
"76 625 OFFCURVE",
"101 610 CURVE",
"109 530 OFFCURVE",
"110 436 OFFCURVE",
"110 359 CURVE SMOOTH",
"110 244 OFFCURVE",
"105 151 OFFCURVE",
"96 78 CURVE",
"72 65 OFFCURVE",
"46 55 OFFCURVE",
"19 49 CURVE",
"21 -6 LINE",
"63 0 OFFCURVE",
"165 3 OFFCURVE",
"211 3 CURVE SMOOTH",
"290 3 OFFCURVE",
"565 -3 OFFCURVE",
"660 -14 CURVE",
"693 203 LINE",
"633 220 LINE",
"551 92 LINE",
"509 74 OFFCURVE",
"465 65 OFFCURVE",
"407 65 CURVE SMOOTH",
"378 65 OFFCURVE",
"352 66 OFFCURVE",
"330 70 CURVE",
"318 138 OFFCURVE",
"314 219 OFFCURVE",
"314 315 CURVE",
"410 315 LINE",
"433 286 OFFCURVE",
"445 248 OFFCURVE",
"458 210 CURVE"
);
}
);
width = 713;
}
);
note = E;
rightKerningGroup = E;
unicode = 0045;
},
{
glyphname = Eacute;
layers = (
{
layerId = "12E5A654-CA13-4855-9DF9-FF4C09D128B7";
paths = (
{
closed = 1;
nodes = (
"516 216 LINE",
"511 256 OFFCURVE",
"508 305 OFFCURVE",
"508 348 CURVE SMOOTH",
"508 396 OFFCURVE",
"513 434 OFFCURVE",
"519 480 CURVE",
"454 489 LINE",
"445 455 OFFCURVE",
"430 422 OFFCURVE",
"410 394 CURVE",
"314 394 LINE",
"315 472 OFFCURVE",
"318 555 OFFCURVE",
"325 621 CURVE",
"351 627 OFFCURVE",
"381 630 OFFCURVE",
"417 630 CURVE SMOOTH",
"463 630 OFFCURVE",
"508 622 OFFCURVE",
"542 607 CURVE",
"595 479 LINE",
"670 484 LINE",
"686 712 LINE",
"589 701 OFFCURVE",
"427 700 OFFCURVE",
"296 700 CURVE SMOOTH",
"169 700 OFFCURVE",
"69 704 OFFCURVE",
"26 707 CURVE",
"19 645 LINE",
"47 637 OFFCURVE",
"76 625 OFFCURVE",
"101 610 CURVE",
"109 530 OFFCURVE",
"110 436 OFFCURVE",
"110 359 CURVE SMOOTH",
"110 244 OFFCURVE",
"105 151 OFFCURVE",
"96 78 CURVE",
"72 65 OFFCURVE",
"46 55 OFFCURVE",
"19 49 CURVE",
"21 -6 LINE",
"63 0 OFFCURVE",
"165 3 OFFCURVE",
"211 3 CURVE SMOOTH",
"290 3 OFFCURVE",
"565 -3 OFFCURVE",
"660 -14 CURVE",
"693 203 LINE",
"633 220 LINE",
"551 92 LINE",
"509 74 OFFCURVE",
"465 65 OFFCURVE",
"407 65 CURVE SMOOTH",
"378 65 OFFCURVE",
"352 66 OFFCURVE",
"330 70 CURVE",
"318 138 OFFCURVE",
"314 219 OFFCURVE",
"314 315 CURVE",
"410 315 LINE",
"433 286 OFFCURVE",
"445 248 OFFCURVE",
"458 210 CURVE"
);
},
{
closed = 1;
nodes = (
"308 709 LINE",
"385 730 OFFCURVE",
"436 762 OFFCURVE",
"468 820 CURVE",
"419 897 LINE",
"360 893 LINE",
"353 850 OFFCURVE",
"318 799 OFFCURVE",
"273 765 CURVE"
);
}
);
width = 713;
}
);
note = Eacute;
rightKerningGroup = E;
unicode = 00C9;
},
{
glyphname = Ecircumflex;
layers = (
{
layerId = "12E5A654-CA13-4855-9DF9-FF4C09D128B7";
paths = (
{
closed = 1;
nodes = (
"516 216 LINE",
"511 256 OFFCURVE",
"508 305 OFFCURVE",
"508 348 CURVE SMOOTH",
"508 396 OFFCURVE",
"513 434 OFFCURVE",
"519 480 CURVE",
"454 489 LINE",
"445 455 OFFCURVE",
"430 422 OFFCURVE",
"410 394 CURVE",
"314 394 LINE",
"315 472 OFFCURVE",
"318 555 OFFCURVE",
"325 621 CURVE",
"351 627 OFFCURVE",
"381 630 OFFCURVE",
"417 630 CURVE SMOOTH",
"463 630 OFFCURVE",
"508 622 OFFCURVE",
"542 607 CURVE",
"595 479 LINE",
"670 484 LINE",
"686 712 LINE",
"589 701 OFFCURVE",
"427 700 OFFCURVE",
"296 700 CURVE SMOOTH",
"169 700 OFFCURVE",
"69 704 OFFCURVE",
"26 707 CURVE",
"19 645 LINE",
"47 637 OFFCURVE",
"76 625 OFFCURVE",
"101 610 CURVE",
"109 530 OFFCURVE",
"110 436 OFFCURVE",
"110 359 CURVE SMOOTH",
"110 244 OFFCURVE",
"105 151 OFFCURVE",
"96 78 CURVE",
"72 65 OFFCURVE",
"46 55 OFFCURVE",
"19 49 CURVE",
"21 -6 LINE",
"63 0 OFFCURVE",
"165 3 OFFCURVE",
"211 3 CURVE SMOOTH",
"290 3 OFFCURVE",
"565 -3 OFFCURVE",
"660 -14 CURVE",
"693 203 LINE",
"633 220 LINE",
"551 92 LINE",
"509 74 OFFCURVE",
"465 65 OFFCURVE",
"407 65 CURVE SMOOTH",
"378 65 OFFCURVE",
"352 66 OFFCURVE",
"330 70 CURVE",
"318 138 OFFCURVE",
"314 219 OFFCURVE",
"314 315 CURVE",
"410 315 LINE",
"433 286 OFFCURVE",
"445 248 OFFCURVE",
"458 210 CURVE"
);
},
{
closed = 1;
nodes = (
"354 892 LINE",
"238 744 LINE",
"262 714 LINE",
"366 766 LINE",
"466 715 LINE",
"502 744 LINE",
"411 892 LINE"
);
}
);
width = 713;
}
);
note = Ecircumflex;
rightKerningGroup = E;
unicode = 00CA;
},
{
glyphname = Edieresis;
layers = (
{
layerId = "12E5A654-CA13-4855-9DF9-FF4C09D128B7";
paths = (
{
closed = 1;
nodes = (
"516 216 LINE",
"511 256 OFFCURVE",
"508 305 OFFCURVE",
"508 348 CURVE SMOOTH",
"508 396 OFFCURVE",
"513 434 OFFCURVE",
"519 480 CURVE",
"454 489 LINE",
"445 455 OFFCURVE",
"430 422 OFFCURVE",
"410 394 CURVE",
"314 394 LINE",
"315 472 OFFCURVE",
"318 555 OFFCURVE",
"325 621 CURVE",
"351 627 OFFCURVE",
"381 630 OFFCURVE",
"417 630 CURVE SMOOTH",
"463 630 OFFCURVE",
"508 622 OFFCURVE",
"542 607 CURVE",
"595 479 LINE",
"670 484 LINE",
"686 712 LINE",
"589 701 OFFCURVE",
"427 700 OFFCURVE",
"296 700 CURVE SMOOTH",
"169 700 OFFCURVE",
"69 704 OFFCURVE",
"26 707 CURVE",
"19 645 LINE",
"47 637 OFFCURVE",
"76 625 OFFCURVE",
"101 610 CURVE",
"109 530 OFFCURVE",
"110 436 OFFCURVE",
"110 359 CURVE SMOOTH",
"110 244 OFFCURVE",
"105 151 OFFCURVE",
"96 78 CURVE",
"72 65 OFFCURVE",
"46 55 OFFCURVE",
"19 49 CURVE",
"21 -6 LINE",
"63 0 OFFCURVE",
"165 3 OFFCURVE",
"211 3 CURVE SMOOTH",
"290 3 OFFCURVE",
"565 -3 OFFCURVE",
"660 -14 CURVE",
"693 203 LINE",
"633 220 LINE",
"551 92 LINE",
"509 74 OFFCURVE",
"465 65 OFFCURVE",
"407 65 CURVE SMOOTH",
"378 65 OFFCURVE",
"352 66 OFFCURVE",
"330 70 CURVE",
"318 138 OFFCURVE",
"314 219 OFFCURVE",
"314 315 CURVE",
"410 315 LINE",
"433 286 OFFCURVE",
"445 248 OFFCURVE",
"458 210 CURVE"
);
},
{
closed = 1;
nodes = (
"181 761 OFFCURVE",
"212 725 OFFCURVE",
"257 725 CURVE SMOOTH",
"303 725 OFFCURVE",
"344 766 OFFCURVE",
"344 819 CURVE SMOOTH",
"344 861 OFFCURVE",
"312 897 OFFCURVE",
"267 897 CURVE SMOOTH",
"222 897 OFFCURVE",
"181 856 OFFCURVE",
"181 804 CURVE SMOOTH"
);
},
{
closed = 1;
nodes = (
"384 758 OFFCURVE",
"415 722 OFFCURVE",
"464 722 CURVE SMOOTH",
"510 722 OFFCURVE",
"554 765 OFFCURVE",
"554 820 CURVE SMOOTH",
"554 864 OFFCURVE",
"522 900 OFFCURVE",
"473 900 CURVE SMOOTH",
"426 900 OFFCURVE",
"384 857 OFFCURVE",
"384 805 CURVE SMOOTH"
);
}
);
width = 713;
}
);
note = Edieresis;
rightKerningGroup = E;
unicode = 00CB;
},
{
glyphname = Egrave;
layers = (
{
layerId = "12E5A654-CA13-4855-9DF9-FF4C09D128B7";
paths = (
{
closed = 1;
nodes = (
"516 216 LINE",
"511 256 OFFCURVE",
"508 305 OFFCURVE",
"508 348 CURVE SMOOTH",
"508 396 OFFCURVE",
"513 434 OFFCURVE",
"519 480 CURVE",
"454 489 LINE",
"445 455 OFFCURVE",
"430 422 OFFCURVE",
"410 394 CURVE",
"314 394 LINE",
"315 472 OFFCURVE",
"318 555 OFFCURVE",
"325 621 CURVE",
"351 627 OFFCURVE",
"381 630 OFFCURVE",
"417 630 CURVE SMOOTH",
"463 630 OFFCURVE",
"508 622 OFFCURVE",
"542 607 CURVE",
"595 479 LINE",
"670 484 LINE",
"686 712 LINE",
"589 701 OFFCURVE",
"427 700 OFFCURVE",
"296 700 CURVE SMOOTH",
"169 700 OFFCURVE",
"69 704 OFFCURVE",
"26 707 CURVE",
"19 645 LINE",
"47 637 OFFCURVE",
"76 625 OFFCURVE",
"101 610 CURVE",
"109 530 OFFCURVE",
"110 436 OFFCURVE",
"110 359 CURVE SMOOTH",
"110 244 OFFCURVE",
"105 151 OFFCURVE",
"96 78 CURVE",
"72 65 OFFCURVE",
"46 55 OFFCURVE",
"19 49 CURVE",
"21 -6 LINE",
"63 0 OFFCURVE",
"165 3 OFFCURVE",
"211 3 CURVE SMOOTH",
"290 3 OFFCURVE",
"565 -3 OFFCURVE",
"660 -14 CURVE",
"693 203 LINE",
"633 220 LINE",
"551 92 LINE",
"509 74 OFFCURVE",
"465 65 OFFCURVE",
"407 65 CURVE SMOOTH",
"378 65 OFFCURVE",
"352 66 OFFCURVE",
"330 70 CURVE",
"318 138 OFFCURVE",
"314 219 OFFCURVE",
"314 315 CURVE",
"410 315 LINE",
"433 286 OFFCURVE",
"445 248 OFFCURVE",
"458 210 CURVE"
);
},
{
closed = 1;
nodes = (
"440 765 LINE",
"395 799 OFFCURVE",
"370 849 OFFCURVE",
"363 892 CURVE",
"309 896 LINE",
"242 830 LINE",
"261 771 OFFCURVE",
"322 730 OFFCURVE",
"399 709 CURVE"
);
}
);
width = 713;
}
);
note = Egrave;
rightKerningGroup = E;
unicode = 00C8;
},
{
glyphname = F;
layers = (
{
layerId = "12E5A654-CA13-4855-9DF9-FF4C09D128B7";
paths = (
{
closed = 1;
nodes = (
"516 216 LINE",
"511 256 OFFCURVE",
"508 305 OFFCURVE",
"508 348 CURVE SMOOTH",
"508 396 OFFCURVE",
"513 434 OFFCURVE",
"519 480 CURVE",
"454 489 LINE",
"445 455 OFFCURVE",
"430 422 OFFCURVE",
"410 394 CURVE",
"314 394 LINE",
"315 472 OFFCURVE",
"318 555 OFFCURVE",
"325 621 CURVE",
"351 627 OFFCURVE",
"381 630 OFFCURVE",
"417 630 CURVE SMOOTH",
"463 630 OFFCURVE",
"508 622 OFFCURVE",
"542 607 CURVE",
"595 479 LINE",
"670 484 LINE",
"686 712 LINE",
"589 701 OFFCURVE",
"427 700 OFFCURVE",
"296 700 CURVE SMOOTH",
"169 700 OFFCURVE",
"69 704 OFFCURVE",
"26 707 CURVE",
"19 645 LINE",
"47 637 OFFCURVE",
"76 625 OFFCURVE",
"101 610 CURVE",
"109 530 OFFCURVE",
"110 436 OFFCURVE",
"110 359 CURVE SMOOTH",
"110 242 OFFCURVE",
"105 148 OFFCURVE",
"96 73 CURVE",
"72 60 OFFCURVE",
"46 50 OFFCURVE",
"21 44 CURVE",
"23 -8 LINE",
"66 -1 OFFCURVE",
"171 2 OFFCURVE",
"218 2 CURVE SMOOTH",
"278 2 OFFCURVE",
"403 -2 OFFCURVE",
"453 -8 CURVE",
"459 51 LINE",
"411 57 OFFCURVE",
"364 74 OFFCURVE",
"326 94 CURVE",
"317 157 OFFCURVE",
"314 230 OFFCURVE",
"314 315 CURVE",
"410 315 LINE",
"433 286 OFFCURVE",
"445 248 OFFCURVE",
"458 210 CURVE"
);
}
);
width = 706;
}
);
note = F;
rightKerningGroup = F;
unicode = 0046;
},
{
glyphname = G;
layers = (
{
layerId = "12E5A654-CA13-4855-9DF9-FF4C09D128B7";
paths = (
{
closed = 1;
nodes = (
"888 353 LINE",
"836 346 OFFCURVE",
"784 345 OFFCURVE",
"726 345 CURVE SMOOTH",
"663 345 OFFCURVE",
"619 349 OFFCURVE",
"558 356 CURVE",
"552 291 LINE",
"580 285 OFFCURVE",
"610 277 OFFCURVE",
"638 267 CURVE",
"641 98 LINE",
"601 65 OFFCURVE",
"559 56 OFFCURVE",
"510 56 CURVE SMOOTH",
"384 56 OFFCURVE",
"286 152 OFFCURVE",
"286 353 CURVE SMOOTH",
"286 539 OFFCURVE",
"390 625 OFFCURVE",
"529 625 CURVE SMOOTH",
"583 625 OFFCURVE",
"646 607 OFFCURVE",
"701 576 CURVE",
"764 470 LINE",
"832 477 LINE",
"832 626 LINE",
"746 678 OFFCURVE",
"620 710 OFFCURVE",
"506 710 CURVE SMOOTH",
"271 710 OFFCURVE",
"40 608 OFFCURVE",
"40 332 CURVE SMOOTH",
"40 98 OFFCURVE",
"206 -18 OFFCURVE",
"490 -18 CURVE SMOOTH",
"615 -18 OFFCURVE",
"757 7 OFFCURVE",
"839 58 CURVE",
"827 270 LINE",
"844 279 OFFCURVE",
"864 287 OFFCURVE",
"891 294 CURVE"
);
}
);
width = 921;
}
);
leftKerningGroup = G;
note = G;
rightKerningGroup = G;
unicode = 0047;
},
{
glyphname = H;
layers = (
{
layerId = "12E5A654-CA13-4855-9DF9-FF4C09D128B7";
paths = (
{
closed = 1;
nodes = (
"20 -8 LINE",
"64 -1 OFFCURVE",
"178 1 OFFCURVE",
"227 1 CURVE SMOOTH",
"290 1 OFFCURVE",
"342 -3 OFFCURVE",
"394 -8 CURVE",
"400 51 LINE",
"376 57 OFFCURVE",
"353 63 OFFCURVE",
"332 72 CURVE",
"318 139 OFFCURVE",
"315 218 OFFCURVE",
"314 311 CURVE",
"590 311 LINE",
"589 217 OFFCURVE",
"582 138 OFFCURVE",
"573 75 CURVE",
"548 62 OFFCURVE",
"519 53 OFFCURVE",
"491 47 CURVE",
"494 -8 LINE",
"539 -1 OFFCURVE",
"652 1 OFFCURVE",
"703 1 CURVE SMOOTH",
"767 1 OFFCURVE",
"821 -3 OFFCURVE",
"874 -8 CURVE",
"880 52 LINE",
"855 58 OFFCURVE",
"832 64 OFFCURVE",
"811 72 CURVE",
"797 148 OFFCURVE",
"795 239 OFFCURVE",
"795 349 CURVE SMOOTH",
"795 438 OFFCURVE",
"797 540 OFFCURVE",
"806 619 CURVE",
"829 630 OFFCURVE",
"854 638 OFFCURVE",
"879 644 CURVE",
"876 707 LINE",
"831 700 OFFCURVE",
"721 697 OFFCURVE",
"671 697 CURVE SMOOTH",
"608 697 OFFCURVE",
"556 701 OFFCURVE",
"503 707 CURVE",
"498 642 LINE",
"528 633 OFFCURVE",
"557 625 OFFCURVE",
"582 611 CURVE",
"589 544 OFFCURVE",
"590 467 OFFCURVE",
"591 399 CURVE",
"314 399 LINE",
"315 473 OFFCURVE",
"318 550 OFFCURVE",
"325 614 CURVE",
"350 626 OFFCURVE",
"377 635 OFFCURVE",
"404 642 CURVE",
"401 707 LINE",
"356 700 OFFCURVE",
"244 697 OFFCURVE",
"194 697 CURVE SMOOTH",
"130 697 OFFCURVE",
"84 701 OFFCURVE",
"30 707 CURVE",
"25 640 LINE",
"53 631 OFFCURVE",
"78 623 OFFCURVE",
"100 610 CURVE",
"109 531 OFFCURVE",
"110 439 OFFCURVE",
"110 363 CURVE SMOOTH",
"110 244 OFFCURVE",
"101 149 OFFCURVE",
"90 74 CURVE",
"66 64 OFFCURVE",
"41 56 OFFCURVE",
"17 51 CURVE"
);
}
);
width = 905;
}
);
note = H;
unicode = 0048;
},
{
glyphname = I;
layers = (
{
layerId = "12E5A654-CA13-4855-9DF9-FF4C09D128B7";
paths = (
{
closed = 1;
nodes = (
"23 -8 LINE",
"68 -1 OFFCURVE",
"171 1 OFFCURVE",
"222 1 CURVE SMOOTH",
"286 1 OFFCURVE",
"340 -3 OFFCURVE",
"393 -8 CURVE",
"399 52 LINE",
"374 58 OFFCURVE",
"351 64 OFFCURVE",
"330 72 CURVE",
"316 148 OFFCURVE",
"314 239 OFFCURVE",
"314 349 CURVE SMOOTH",
"314 438 OFFCURVE",
"316 540 OFFCURVE",
"325 619 CURVE",
"348 630 OFFCURVE",
"373 638 OFFCURVE",
"398 644 CURVE",
"395 707 LINE",
"350 702 OFFCURVE",
"240 700 OFFCURVE",
"190 700 CURVE SMOOTH",
"127 700 OFFCURVE",
"80 703 OFFCURVE",
"27 707 CURVE",
"22 642 LINE",
"51 634 OFFCURVE",
"77 625 OFFCURVE",
"100 612 CURVE",
"109 531 OFFCURVE",
"110 436 OFFCURVE",
"110 359 CURVE SMOOTH",
"110 242 OFFCURVE",
"105 149 OFFCURVE",
"96 75 CURVE",
"73 63 OFFCURVE",
"48 53 OFFCURVE",
"20 47 CURVE"
);
}
);
width = 424;
}
);
note = I;
rightKerningGroup = I;
unicode = 0049;
},
{
glyphname = Iacute;
layers = (
{
layerId = "12E5A654-CA13-4855-9DF9-FF4C09D128B7";
paths = (
{
closed = 1;
nodes = (
"23 -8 LINE",
"68 -1 OFFCURVE",
"171 1 OFFCURVE",
"222 1 CURVE SMOOTH",
"286 1 OFFCURVE",
"340 -3 OFFCURVE",
"393 -8 CURVE",
"399 52 LINE",
"374 58 OFFCURVE",
"351 64 OFFCURVE",
"330 72 CURVE",
"316 148 OFFCURVE",
"314 239 OFFCURVE",
"314 349 CURVE SMOOTH",
"314 438 OFFCURVE",
"316 540 OFFCURVE",
"325 619 CURVE",
"348 630 OFFCURVE",
"373 638 OFFCURVE",
"398 644 CURVE",
"395 707 LINE",
"350 702 OFFCURVE",
"240 700 OFFCURVE",
"190 700 CURVE SMOOTH",
"127 700 OFFCURVE",
"80 703 OFFCURVE",
"27 707 CURVE",
"22 642 LINE",
"51 634 OFFCURVE",
"77 625 OFFCURVE",
"100 612 CURVE",
"109 531 OFFCURVE",
"110 436 OFFCURVE",
"110 359 CURVE SMOOTH",
"110 242 OFFCURVE",
"105 149 OFFCURVE",
"96 75 CURVE",
"73 63 OFFCURVE",
"48 53 OFFCURVE",
"20 47 CURVE"
);
},
{
closed = 1;
nodes = (
"167 709 LINE",
"244 730 OFFCURVE",
"295 762 OFFCURVE",
"327 820 CURVE",
"278 897 LINE",
"219 893 LINE",
"212 850 OFFCURVE",
"177 799 OFFCURVE",
"132 765 CURVE"
);
}
);
width = 424;
}
);
note = Iacute;
rightKerningGroup = I;
unicode = 00CD;
},
{
glyphname = Icircumflex;
layers = (
{
layerId = "12E5A654-CA13-4855-9DF9-FF4C09D128B7";
paths = (
{
closed = 1;
nodes = (
"23 -8 LINE",
"68 -1 OFFCURVE",
"171 1 OFFCURVE",
"222 1 CURVE SMOOTH",
"286 1 OFFCURVE",
"340 -3 OFFCURVE",
"393 -8 CURVE",
"399 52 LINE",
"374 58 OFFCURVE",
"351 64 OFFCURVE",
"330 72 CURVE",
"316 148 OFFCURVE",
"314 239 OFFCURVE",
"314 349 CURVE SMOOTH",
"314 438 OFFCURVE",
"316 540 OFFCURVE",
"325 619 CURVE",
"348 630 OFFCURVE",
"373 638 OFFCURVE",
"398 644 CURVE",
"395 707 LINE",
"350 702 OFFCURVE",
"240 700 OFFCURVE",
"190 700 CURVE SMOOTH",
"127 700 OFFCURVE",
"80 703 OFFCURVE",
"27 707 CURVE",
"22 642 LINE",
"51 634 OFFCURVE",
"77 625 OFFCURVE",
"100 612 CURVE",
"109 531 OFFCURVE",
"110 436 OFFCURVE",
"110 359 CURVE SMOOTH",
"110 242 OFFCURVE",
"105 149 OFFCURVE",
"96 75 CURVE",
"73 63 OFFCURVE",
"48 53 OFFCURVE",
"20 47 CURVE"
);
},
{
closed = 1;
nodes = (
"213 892 LINE",
"97 744 LINE",
"121 714 LINE",
"225 766 LINE",
"325 715 LINE",
"361 744 LINE",
"270 892 LINE"
);
}
);
width = 424;
}
);
note = Icircumflex;
rightKerningGroup = I;
unicode = 00CE;
},
{
glyphname = Idieresis;
layers = (
{
layerId = "12E5A654-CA13-4855-9DF9-FF4C09D128B7";
paths = (
{
closed = 1;
nodes = (
"23 -8 LINE",
"68 -1 OFFCURVE",
"171 1 OFFCURVE",
"222 1 CURVE SMOOTH",
"286 1 OFFCURVE",
"340 -3 OFFCURVE",
"393 -8 CURVE",
"399 52 LINE",
"374 58 OFFCURVE",
"351 64 OFFCURVE",
"330 72 CURVE",
"316 148 OFFCURVE",
"314 239 OFFCURVE",
"314 349 CURVE SMOOTH",
"314 438 OFFCURVE",
"316 540 OFFCURVE",
"325 619 CURVE",
"348 630 OFFCURVE",
"373 638 OFFCURVE",
"398 644 CURVE",
"395 707 LINE",
"350 702 OFFCURVE",
"240 700 OFFCURVE",
"190 700 CURVE SMOOTH",
"127 700 OFFCURVE",
"80 703 OFFCURVE",
"27 707 CURVE",
"22 642 LINE",
"51 634 OFFCURVE",
"77 625 OFFCURVE",
"100 612 CURVE",
"109 531 OFFCURVE",
"110 436 OFFCURVE",
"110 359 CURVE SMOOTH",
"110 242 OFFCURVE",
"105 149 OFFCURVE",
"96 75 CURVE",
"73 63 OFFCURVE",
"48 53 OFFCURVE",
"20 47 CURVE"
);
},
{
closed = 1;
nodes = (
"40 761 OFFCURVE",
"71 725 OFFCURVE",
"116 725 CURVE SMOOTH",
"162 725 OFFCURVE",
"203 766 OFFCURVE",
"203 819 CURVE SMOOTH",
"203 861 OFFCURVE",
"171 897 OFFCURVE",
"126 897 CURVE SMOOTH",
"81 897 OFFCURVE",
"40 856 OFFCURVE",
"40 804 CURVE SMOOTH"
);
},
{
closed = 1;
nodes = (
"243 758 OFFCURVE",
"274 722 OFFCURVE",
"323 722 CURVE SMOOTH",
"369 722 OFFCURVE",
"413 765 OFFCURVE",
"413 820 CURVE SMOOTH",
"413 864 OFFCURVE",
"381 900 OFFCURVE",
"332 900 CURVE SMOOTH",
"285 900 OFFCURVE",
"243 857 OFFCURVE",
"243 805 CURVE SMOOTH"
);
}
);
width = 424;
}
);
note = Idieresis;
rightKerningGroup = I;
unicode = 00CF;
},
{
glyphname = Igrave;
layers = (
{
layerId = "12E5A654-CA13-4855-9DF9-FF4C09D128B7";
paths = (
{
closed = 1;
nodes = (
"23 -8 LINE",
"68 -1 OFFCURVE",
"171 1 OFFCURVE",
"222 1 CURVE SMOOTH",
"286 1 OFFCURVE",
"340 -3 OFFCURVE",
"393 -8 CURVE",
"399 52 LINE",
"374 58 OFFCURVE",
"351 64 OFFCURVE",
"330 72 CURVE",
"316 148 OFFCURVE",
"314 239 OFFCURVE",
"314 349 CURVE SMOOTH",
"314 438 OFFCURVE",
"316 540 OFFCURVE",
"325 619 CURVE",
"348 630 OFFCURVE",
"373 638 OFFCURVE",
"398 644 CURVE",
"395 707 LINE",
"350 702 OFFCURVE",
"240 700 OFFCURVE",
"190 700 CURVE SMOOTH",
"127 700 OFFCURVE",
"80 703 OFFCURVE",
"27 707 CURVE",
"22 642 LINE",
"51 634 OFFCURVE",
"77 625 OFFCURVE",
"100 612 CURVE",
"109 531 OFFCURVE",
"110 436 OFFCURVE",
"110 359 CURVE SMOOTH",
"110 242 OFFCURVE",
"105 149 OFFCURVE",
"96 75 CURVE",
"73 63 OFFCURVE",
"48 53 OFFCURVE",
"20 47 CURVE"
);
},
{
closed = 1;
nodes = (
"299 765 LINE",
"254 799 OFFCURVE",
"229 849 OFFCURVE",
"222 892 CURVE",
"168 896 LINE",
"101 830 LINE",
"120 771 OFFCURVE",
"181 730 OFFCURVE",
"258 709 CURVE"
);
}
);
width = 424;
}
);
note = Igrave;
rightKerningGroup = I;
unicode = 00CC;
},
{
glyphname = J;
layers = (
{
layerId = "12E5A654-CA13-4855-9DF9-FF4C09D128B7";
paths = (
{
closed = 1;
nodes = (
"455 707 LINE",
"410 699 OFFCURVE",
"300 696 OFFCURVE",
"251 696 CURVE SMOOTH",
"188 696 OFFCURVE",
"83 700 OFFCURVE",
"30 707 CURVE",
"25 643 LINE",
"75 634 OFFCURVE",
"122 616 OFFCURVE",
"156 593 CURVE",
"159 486 OFFCURVE",
"160 259 OFFCURVE",
"160 148 CURVE SMOOTH",
"160 23 OFFCURVE",
"156 -44 OFFCURVE",
"148 -86 CURVE SMOOTH",
"143 -112 OFFCURVE",
"127 -124 OFFCURVE",
"106 -124 CURVE SMOOTH",
"80 -124 OFFCURVE",
"41 -93 OFFCURVE",
"27 -63 CURVE",
"-27 -63 OFFCURVE",
"-125 -114 OFFCURVE",
"-137 -168 CURVE",
"-106 -201 OFFCURVE",
"-37 -218 OFFCURVE",
"29 -218 CURVE SMOOTH",
"199 -218 OFFCURVE",
"366 -142 OFFCURVE",
"366 69 CURVE SMOOTH",
"366 146 OFFCURVE",
"360 238 OFFCURVE",
"360 318 CURVE SMOOTH",
"360 402 OFFCURVE",
"363 519 OFFCURVE",
"377 616 CURVE",
"404 630 OFFCURVE",
"432 640 OFFCURVE",
"458 648 CURVE"
);
}
);
width = 470;
}
);
note = J;
rightKerningGroup = J;
unicode = 004A;
},
{
glyphname = K;
layers = (
{
layerId = "12E5A654-CA13-4855-9DF9-FF4C09D128B7";
paths = (
{
closed = 1;
nodes = (
"400 707 LINE",
"355 702 OFFCURVE",
"245 700 OFFCURVE",
"195 700 CURVE SMOOTH",
"132 700 OFFCURVE",
"85 703 OFFCURVE",
"32 707 CURVE",
"27 642 LINE",
"54 634 OFFCURVE",
"78 626 OFFCURVE",
"100 615 CURVE",
"109 533 OFFCURVE",
"110 437 OFFCURVE",
"110 359 CURVE SMOOTH",
"110 241 OFFCURVE",
"105 146 OFFCURVE",
"96 72 CURVE",
"74 61 OFFCURVE",
"51 53 OFFCURVE",
"25 47 CURVE",
"28 -8 LINE",
"73 -1 OFFCURVE",
"176 1 OFFCURVE",
"227 1 CURVE SMOOTH",
"291 1 OFFCURVE",
"345 -3 OFFCURVE",
"398 -8 CURVE",
"404 52 LINE",
"377 58 OFFCURVE",
"352 65 OFFCURVE",
"329 75 CURVE",
"318 142 OFFCURVE",
"314 221 OFFCURVE",
"314 314 CURVE",
"380 254 OFFCURVE",
"467 162 OFFCURVE",
"529 82 CURVE",
"536 -10 LINE",
"584 -6 OFFCURVE",
"643 0 OFFCURVE",
"692 0 CURVE SMOOTH",
"743 0 OFFCURVE",
"820 -1 OFFCURVE",
"856 -4 CURVE",
"862 43 LINE",
"796 72 LINE",
"667 231 OFFCURVE",
"539 371 OFFCURVE",
"473 420 CURVE",
"682 613 LINE",
"721 629 OFFCURVE",
"764 641 OFFCURVE",
"797 647 CURVE",
"793 707 LINE",
"736 701 OFFCURVE",
"667 696 OFFCURVE",
"629 696 CURVE SMOOTH",
"596 696 OFFCURVE",
"526 700 OFFCURVE",
"472 707 CURVE",
"464 661 LINE",
"486 647 OFFCURVE",
"510 628 OFFCURVE",
"528 603 CURVE",
"477 542 OFFCURVE",
"394 463 OFFCURVE",
"314 405 CURVE",
"315 478 OFFCURVE",
"318 554 OFFCURVE",
"325 617 CURVE",
"349 628 OFFCURVE",
"376 637 OFFCURVE",
"403 644 CURVE"
);
}
);
width = 882;
}
);
note = K;
rightKerningGroup = K;
unicode = 004B;
},
{
glyphname = L;
layers = (
{
layerId = "12E5A654-CA13-4855-9DF9-FF4C09D128B7";
paths = (
{
closed = 1;
nodes = (
"427 709 LINE",
"378 704 OFFCURVE",
"260 702 OFFCURVE",
"207 702 CURVE SMOOTH",
"139 702 OFFCURVE",
"88 705 OFFCURVE",
"31 709 CURVE",
"26 643 LINE",
"53 636 OFFCURVE",
"78 629 OFFCURVE",
"100 618 CURVE",
"109 536 OFFCURVE",
"110 438 OFFCURVE",
"110 359 CURVE SMOOTH",
"110 244 OFFCURVE",
"105 151 OFFCURVE",
"96 78 CURVE",
"72 65 OFFCURVE",
"46 55 OFFCURVE",
"19 49 CURVE",
"21 -6 LINE",
"63 0 OFFCURVE",
"165 3 OFFCURVE",
"211 3 CURVE SMOOTH",
"290 3 OFFCURVE",
"565 -3 OFFCURVE",
"660 -14 CURVE",
"693 223 LINE",
"633 240 LINE",
"539 88 LINE",
"499 73 OFFCURVE",
"460 65 OFFCURVE",
"407 65 CURVE SMOOTH",
"378 65 OFFCURVE",
"352 66 OFFCURVE",
"330 70 CURVE",
"316 146 OFFCURVE",
"314 238 OFFCURVE",
"314 349 CURVE SMOOTH",
"314 433 OFFCURVE",
"316 529 OFFCURVE",
"324 606 CURVE",
"355 623 OFFCURVE",
"392 636 OFFCURVE",
"430 645 CURVE"
);
}
);
width = 708;
}
);
note = L;
rightKerningGroup = L;
unicode = 004C;
},
{
glyphname = M;
layers = (
{
layerId = "12E5A654-CA13-4855-9DF9-FF4C09D128B7";
paths = (
{
closed = 1;
nodes = (
"680 -8 LINE",
"725 -1 OFFCURVE",
"846 3 OFFCURVE",
"885 3 CURVE SMOOTH",
"948 3 OFFCURVE",
"1036 -2 OFFCURVE",
"1089 -8 CURVE",
"1094 52 LINE",
"1063 58 OFFCURVE",
"1031 70 OFFCURVE",
"1004 84 CURVE",
"968 249 OFFCURVE",
"947 458 OFFCURVE",
"940 617 CURVE",
"1004 645 LINE",
"997 709 LINE",
"954 706 OFFCURVE",
"904 703 OFFCURVE",
"857 703 CURVE SMOOTH",
"814 703 OFFCURVE",
"767 707 OFFCURVE",
"724 710 CURVE",
"563 304 LINE",
"408 712 LINE",
"370 705 OFFCURVE",
"324 702 OFFCURVE",
"277 702 CURVE SMOOTH",
"222 702 OFFCURVE",
"156 705 OFFCURVE",
"110 707 CURVE",
"100 647 LINE",
"196 610 LINE",
"180 413 OFFCURVE",
"154 224 OFFCURVE",
"113 99 CURVE",
"84 75 OFFCURVE",
"46 60 OFFCURVE",
"20 49 CURVE",
"28 -8 LINE",
"67 -2 OFFCURVE",
"117 3 OFFCURVE",
"171 3 CURVE SMOOTH",
"225 3 OFFCURVE",
"284 -3 OFFCURVE",
"330 -8 CURVE",
"334 49 LINE",
"302 56 OFFCURVE",
"267 70 OFFCURVE",
"239 87 CURVE",
"239 120 LINE SMOOTH",
"239 217 OFFCURVE",
"250 354 OFFCURVE",
"271 494 CURVE",
"463 -12 LINE",
"542 -12 LINE",
"730 516 LINE",
"754 369 OFFCURVE",
"771 223 OFFCURVE",
"774 81 CURVE",
"744 68 OFFCURVE",
"709 59 OFFCURVE",
"671 52 CURVE"
);
}
);
width = 1114;
}
);
leftKerningGroup = M;
note = M;
rightKerningGroup = M;
unicode = 004D;
},
{
glyphname = N;
layers = (
{
layerId = "12E5A654-CA13-4855-9DF9-FF4C09D128B7";
paths = (
{
closed = 1;
nodes = (
"815 706 LINE",
"781 702 OFFCURVE",
"723 700 OFFCURVE",
"693 700 CURVE SMOOTH",
"645 700 OFFCURVE",
"598 702 OFFCURVE",
"558 706 CURVE",
"554 652 LINE",
"585 643 OFFCURVE",
"619 626 OFFCURVE",
"645 605 CURVE",
"651 499 OFFCURVE",
"655 368 OFFCURVE",
"655 241 CURVE",
"263 707 LINE",
"233 705 OFFCURVE",
"186 700 OFFCURVE",
"149 700 CURVE SMOOTH",
"115 700 OFFCURVE",
"68 703 OFFCURVE",
"31 705 CURVE",
"25 649 LINE",
"99 614 LINE",
"111 537 OFFCURVE",
"113 450 OFFCURVE",
"113 343 CURVE SMOOTH",
"113 261 OFFCURVE",
"112 180 OFFCURVE",
"109 110 CURVE",
"90 81 OFFCURVE",
"53 57 OFFCURVE",
"25 44 CURVE",
"32 -8 LINE",
"67 -3 OFFCURVE",
"118 -1 OFFCURVE",
"149 -1 CURVE SMOOTH",
"199 -1 OFFCURVE",
"248 -5 OFFCURVE",
"290 -8 CURVE",
"294 44 LINE",
"265 52 OFFCURVE",
"233 66 OFFCURVE",
"208 83 CURVE",
"197 184 OFFCURVE",
"192 303 OFFCURVE",
"190 471 CURVE",
"346 291 LINE SMOOTH",
"452 168 OFFCURVE",
"553 51 OFFCURVE",
"653 -19 CURVE",
"750 0 LINE",
"744 79 OFFCURVE",
"742 218 OFFCURVE",
"742 351 CURVE SMOOTH",
"742 449 OFFCURVE",
"744 531 OFFCURVE",
"748 603 CURVE",
"769 624 OFFCURVE",
"800 642 OFFCURVE",
"822 652 CURVE"
);
}
);
width = 837;
}
);
note = N;
unicode = 004E;
},
{
glyphname = Ntilde;
layers = (
{
layerId = "12E5A654-CA13-4855-9DF9-FF4C09D128B7";
paths = (
{
closed = 1;
nodes = (
"815 706 LINE",
"781 702 OFFCURVE",
"723 700 OFFCURVE",
"693 700 CURVE SMOOTH",
"645 700 OFFCURVE",
"598 702 OFFCURVE",
"558 706 CURVE",
"554 652 LINE",
"585 643 OFFCURVE",
"619 626 OFFCURVE",
"645 605 CURVE",
"651 499 OFFCURVE",
"655 368 OFFCURVE",
"655 241 CURVE",
"263 707 LINE",
"233 705 OFFCURVE",
"186 700 OFFCURVE",
"149 700 CURVE SMOOTH",
"115 700 OFFCURVE",
"68 703 OFFCURVE",
"31 705 CURVE",
"25 649 LINE",
"99 614 LINE",
"111 537 OFFCURVE",
"113 450 OFFCURVE",
"113 343 CURVE SMOOTH",
"113 261 OFFCURVE",
"112 180 OFFCURVE",
"109 110 CURVE",
"90 81 OFFCURVE",
"53 57 OFFCURVE",
"25 44 CURVE",
"32 -8 LINE",
"67 -3 OFFCURVE",
"118 -1 OFFCURVE",
"149 -1 CURVE SMOOTH",
"199 -1 OFFCURVE",
"248 -5 OFFCURVE",
"290 -8 CURVE",
"294 44 LINE",
"265 52 OFFCURVE",
"233 66 OFFCURVE",
"208 83 CURVE",
"197 184 OFFCURVE",
"192 303 OFFCURVE",
"190 471 CURVE",
"346 291 LINE SMOOTH",
"452 168 OFFCURVE",
"553 51 OFFCURVE",
"653 -19 CURVE",
"750 0 LINE",
"744 79 OFFCURVE",
"742 218 OFFCURVE",
"742 351 CURVE SMOOTH",
"742 449 OFFCURVE",
"744 531 OFFCURVE",
"748 603 CURVE",
"769 624 OFFCURVE",
"800 642 OFFCURVE",
"822 652 CURVE"
);
},
{
closed = 1;
nodes = (
"280 774 LINE",
"298 787 OFFCURVE",
"324 804 OFFCURVE",
"349 804 CURVE SMOOTH",
"398 804 OFFCURVE",
"433 761 OFFCURVE",
"497 761 CURVE SMOOTH",
"541 761 OFFCURVE",
"607 803 OFFCURVE",
"632 853 CURVE",
"606 901 LINE",
"584 886 OFFCURVE",
"561 875 OFFCURVE",
"529 875 CURVE SMOOTH",
"481 875 OFFCURVE",
"447 917 OFFCURVE",
"391 917 CURVE SMOOTH",
"346 917 OFFCURVE",
"272 861 OFFCURVE",
"253 815 CURVE"
);
}
);
width = 837;
}
);
note = Ntilde;
unicode = 00D1;
},
{
glyphname = O;
layers = (
{
layerId = "12E5A654-CA13-4855-9DF9-FF4C09D128B7";
paths = (
{
closed = 1;
nodes = (
"40 77 OFFCURVE",
"237 -19 OFFCURVE",
"477 -19 CURVE SMOOTH",
"711 -19 OFFCURVE",
"911 106 OFFCURVE",
"911 347 CURVE SMOOTH",
"911 599 OFFCURVE",
"667 711 OFFCURVE",
"467 711 CURVE SMOOTH",
"237 711 OFFCURVE",
"40 565 OFFCURVE",
"40 332 CURVE SMOOTH"
);
},
{
closed = 1;
nodes = (
"576 622 OFFCURVE",
"671 415 OFFCURVE",
"671 262 CURVE SMOOTH",
"671 122 OFFCURVE",
"603 63 OFFCURVE",
"521 63 CURVE SMOOTH",
"396 63 OFFCURVE",
"274 214 OFFCURVE",
"274 404 CURVE SMOOTH",
"274 540 OFFCURVE",
"335 622 OFFCURVE",
"428 622 CURVE SMOOTH"
);
}
);
width = 951;
}
);
leftKerningGroup = O;
note = O;
rightKerningGroup = O;
unicode = 004F;
},
{
glyphname = Oacute;
layers = (
{
layerId = "12E5A654-CA13-4855-9DF9-FF4C09D128B7";
paths = (
{
closed = 1;
nodes = (
"40 77 OFFCURVE",
"237 -19 OFFCURVE",
"477 -19 CURVE SMOOTH",
"711 -19 OFFCURVE",
"911 106 OFFCURVE",
"911 347 CURVE SMOOTH",
"911 599 OFFCURVE",
"667 711 OFFCURVE",
"467 711 CURVE SMOOTH",
"237 711 OFFCURVE",
"40 565 OFFCURVE",
"40 332 CURVE SMOOTH"
);
},
{
closed = 1;
nodes = (
"576 622 OFFCURVE",
"671 415 OFFCURVE",
"671 262 CURVE SMOOTH",
"671 122 OFFCURVE",
"603 63 OFFCURVE",
"521 63 CURVE SMOOTH",
"396 63 OFFCURVE",
"274 214 OFFCURVE",
"274 404 CURVE SMOOTH",
"274 540 OFFCURVE",
"335 622 OFFCURVE",
"428 622 CURVE SMOOTH"
);
},
{
closed = 1;
nodes = (
"425 739 LINE",
"502 760 OFFCURVE",
"553 792 OFFCURVE",
"585 850 CURVE",
"536 927 LINE",
"477 923 LINE",
"470 880 OFFCURVE",
"435 829 OFFCURVE",
"390 795 CURVE"
);
}
);
width = 951;
}
);
leftKerningGroup = O;
note = Oacute;
rightKerningGroup = O;
unicode = 00D3;
},
{
glyphname = Ocircumflex;
layers = (
{
layerId = "12E5A654-CA13-4855-9DF9-FF4C09D128B7";
paths = (
{
closed = 1;
nodes = (
"40 77 OFFCURVE",
"237 -19 OFFCURVE",
"477 -19 CURVE SMOOTH",
"711 -19 OFFCURVE",
"911 106 OFFCURVE",
"911 347 CURVE SMOOTH",
"911 599 OFFCURVE",
"667 711 OFFCURVE",
"467 711 CURVE SMOOTH",
"237 711 OFFCURVE",
"40 565 OFFCURVE",
"40 332 CURVE SMOOTH"
);
},
{
closed = 1;
nodes = (
"576 622 OFFCURVE",
"671 415 OFFCURVE",
"671 262 CURVE SMOOTH",
"671 122 OFFCURVE",
"603 63 OFFCURVE",
"521 63 CURVE SMOOTH",
"396 63 OFFCURVE",
"274 214 OFFCURVE",
"274 404 CURVE SMOOTH",
"274 540 OFFCURVE",
"335 622 OFFCURVE",
"428 622 CURVE SMOOTH"
);
},
{
closed = 1;
nodes = (
"471 922 LINE",
"355 774 LINE",
"379 744 LINE",
"483 796 LINE",
"583 745 LINE",
"619 774 LINE",
"528 922 LINE"
);
}
);
width = 951;
}
);
leftKerningGroup = O;
note = Ocircumflex;
rightKerningGroup = O;
unicode = 00D4;
},
{
glyphname = Odieresis;
layers = (
{
layerId = "12E5A654-CA13-4855-9DF9-FF4C09D128B7";
paths = (
{
closed = 1;
nodes = (
"40 77 OFFCURVE",
"237 -19 OFFCURVE",
"477 -19 CURVE SMOOTH",
"711 -19 OFFCURVE",
"911 106 OFFCURVE",
"911 347 CURVE SMOOTH",
"911 599 OFFCURVE",
"667 711 OFFCURVE",
"467 711 CURVE SMOOTH",
"237 711 OFFCURVE",
"40 565 OFFCURVE",
"40 332 CURVE SMOOTH"
);
},
{
closed = 1;
nodes = (
"576 622 OFFCURVE",
"671 415 OFFCURVE",
"671 262 CURVE SMOOTH",
"671 122 OFFCURVE",
"603 63 OFFCURVE",
"521 63 CURVE SMOOTH",
"396 63 OFFCURVE",
"274 214 OFFCURVE",
"274 404 CURVE SMOOTH",
"274 540 OFFCURVE",
"335 622 OFFCURVE",
"428 622 CURVE SMOOTH"
);
},
{
closed = 1;
nodes = (
"295 791 OFFCURVE",
"326 755 OFFCURVE",
"371 755 CURVE SMOOTH",
"417 755 OFFCURVE",
"458 796 OFFCURVE",
"458 849 CURVE SMOOTH",
"458 891 OFFCURVE",
"426 927 OFFCURVE",
"381 927 CURVE SMOOTH",
"336 927 OFFCURVE",
"295 886 OFFCURVE",
"295 834 CURVE SMOOTH"
);
},
{
closed = 1;
nodes = (
"498 788 OFFCURVE",
"529 752 OFFCURVE",
"578 752 CURVE SMOOTH",
"624 752 OFFCURVE",
"668 795 OFFCURVE",
"668 850 CURVE SMOOTH",
"668 894 OFFCURVE",
"636 930 OFFCURVE",
"587 930 CURVE SMOOTH",
"540 930 OFFCURVE",
"498 887 OFFCURVE",
"498 835 CURVE SMOOTH"
);
}
);
width = 951;
}
);
leftKerningGroup = O;
note = Odieresis;
rightKerningGroup = O;
unicode = 00D6;
},
{
glyphname = Ograve;
layers = (
{
layerId = "12E5A654-CA13-4855-9DF9-FF4C09D128B7";
paths = (
{
closed = 1;
nodes = (
"40 77 OFFCURVE",
"237 -19 OFFCURVE",
"477 -19 CURVE SMOOTH",
"711 -19 OFFCURVE",
"911 106 OFFCURVE",
"911 347 CURVE SMOOTH",
"911 599 OFFCURVE",
"667 711 OFFCURVE",
"467 711 CURVE SMOOTH",
"237 711 OFFCURVE",
"40 565 OFFCURVE",
"40 332 CURVE SMOOTH"
);
},
{
closed = 1;
nodes = (
"576 622 OFFCURVE",
"671 415 OFFCURVE",
"671 262 CURVE SMOOTH",
"671 122 OFFCURVE",
"603 63 OFFCURVE",
"521 63 CURVE SMOOTH",
"396 63 OFFCURVE",
"274 214 OFFCURVE",
"274 404 CURVE SMOOTH",
"274 540 OFFCURVE",
"335 622 OFFCURVE",
"428 622 CURVE SMOOTH"
);
},
{
closed = 1;
nodes = (
"557 795 LINE",
"512 829 OFFCURVE",
"487 879 OFFCURVE",
"480 922 CURVE",
"426 926 LINE",
"359 860 LINE",
"378 801 OFFCURVE",
"439 760 OFFCURVE",
"516 739 CURVE"
);
}
);
width = 951;
}
);
leftKerningGroup = O;
note = Ograve;
rightKerningGroup = O;
unicode = 00D2;
},
{
glyphname = Otilde;
layers = (
{
layerId = "12E5A654-CA13-4855-9DF9-FF4C09D128B7";
paths = (
{
closed = 1;
nodes = (
"40 77 OFFCURVE",
"237 -19 OFFCURVE",
"477 -19 CURVE SMOOTH",
"711 -19 OFFCURVE",
"911 106 OFFCURVE",
"911 347 CURVE SMOOTH",
"911 599 OFFCURVE",
"667 711 OFFCURVE",
"467 711 CURVE SMOOTH",
"237 711 OFFCURVE",
"40 565 OFFCURVE",
"40 332 CURVE SMOOTH"
);
},
{
closed = 1;
nodes = (
"576 622 OFFCURVE",
"671 415 OFFCURVE",
"671 262 CURVE SMOOTH",
"671 122 OFFCURVE",
"603 63 OFFCURVE",
"521 63 CURVE SMOOTH",
"396 63 OFFCURVE",
"274 214 OFFCURVE",
"274 404 CURVE SMOOTH",
"274 540 OFFCURVE",
"335 622 OFFCURVE",
"428 622 CURVE SMOOTH"
);
},
{
closed = 1;
nodes = (
"317 774 LINE",
"335 787 OFFCURVE",
"361 804 OFFCURVE",
"386 804 CURVE SMOOTH",
"435 804 OFFCURVE",
"470 761 OFFCURVE",
"534 761 CURVE SMOOTH",
"578 761 OFFCURVE",
"644 803 OFFCURVE",
"669 853 CURVE",
"643 901 LINE",
"621 886 OFFCURVE",
"598 875 OFFCURVE",
"566 875 CURVE SMOOTH",
"518 875 OFFCURVE",
"484 917 OFFCURVE",
"428 917 CURVE SMOOTH",
"383 917 OFFCURVE",
"309 861 OFFCURVE",
"290 815 CURVE"
);
}
);
width = 951;
}
);
leftKerningGroup = O;
note = Otilde;
rightKerningGroup = O;
unicode = 00D5;
},
{
glyphname = P;
layers = (
{
layerId = "12E5A654-CA13-4855-9DF9-FF4C09D128B7";
paths = (
{
closed = 1;
nodes = (
"23 -8 LINE",
"66 -1 OFFCURVE",
"171 2 OFFCURVE",
"218 2 CURVE SMOOTH",
"278 2 OFFCURVE",
"403 -2 OFFCURVE",
"453 -8 CURVE",
"459 51 LINE",
"406 57 OFFCURVE",
"353 78 OFFCURVE",
"315 100 CURVE",
"307 153 OFFCURVE",
"304 210 OFFCURVE",
"304 282 CURVE",
"314 282 OFFCURVE",
"325 281 OFFCURVE",
"335 281 CURVE SMOOTH",
"513 281 OFFCURVE",
"710 340 OFFCURVE",
"710 505 CURVE SMOOTH",
"710 670 OFFCURVE",
"574 705 OFFCURVE",
"426 705 CURVE SMOOTH",
"360 705 OFFCURVE",
"300 699 OFFCURVE",
"241 699 CURVE SMOOTH",
"175 699 OFFCURVE",
"98 701 OFFCURVE",
"32 705 CURVE",
"27 648 LINE",
"50 645 OFFCURVE",
"75 636 OFFCURVE",
"99 624 CURVE",
"109 541 OFFCURVE",
"110 440 OFFCURVE",
"110 359 CURVE SMOOTH",
"110 243 OFFCURVE",
"109 152 OFFCURVE",
"102 77 CURVE",
"77 63 OFFCURVE",
"49 51 OFFCURVE",
"21 44 CURVE"
);
},
{
closed = 1;
nodes = (
"455 627 OFFCURVE",
"493 563 OFFCURVE",
"493 502 CURVE SMOOTH",
"493 411 OFFCURVE",
"441 372 OFFCURVE",
"378 372 CURVE SMOOTH",
"352 372 OFFCURVE",
"328 375 OFFCURVE",
"304 382 CURVE",
"305 464 OFFCURVE",
"308 556 OFFCURVE",
"316 624 CURVE",
"330 626 OFFCURVE",
"342 627 OFFCURVE",
"352 627 CURVE SMOOTH"
);
}
);
width = 720;
}
);
note = P;
rightKerningGroup = P;
unicode = 0050;
},
{
glyphname = Q;
layers = (
{
layerId = "12E5A654-CA13-4855-9DF9-FF4C09D128B7";
paths = (
{
closed = 1;
nodes = (
"40 85 OFFCURVE",
"224 -13 OFFCURVE",
"453 -19 CURVE",
"539 -185 OFFCURVE",
"704 -220 OFFCURVE",
"853 -220 CURVE SMOOTH",
"930 -220 OFFCURVE",
"1000 -210 OFFCURVE",
"1053 -196 CURVE",
"1042 -132 LINE",
"989 -144 OFFCURVE",
"952 -147 OFFCURVE",
"920 -147 CURVE SMOOTH",
"820 -147 OFFCURVE",
"745 -93 OFFCURVE",
"697 24 CURVE",
"823 79 OFFCURVE",
"911 188 OFFCURVE",
"911 347 CURVE SMOOTH",
"911 599 OFFCURVE",
"667 711 OFFCURVE",
"467 711 CURVE SMOOTH",
"237 711 OFFCURVE",
"40 565 OFFCURVE",
"40 332 CURVE SMOOTH"
);
},
{
closed = 1;
nodes = (
"576 622 OFFCURVE",
"671 415 OFFCURVE",
"671 262 CURVE SMOOTH",
"671 122 OFFCURVE",
"603 63 OFFCURVE",
"521 63 CURVE SMOOTH",
"396 63 OFFCURVE",
"274 214 OFFCURVE",
"274 404 CURVE SMOOTH",
"274 540 OFFCURVE",
"335 622 OFFCURVE",
"428 622 CURVE SMOOTH"
);
}
);
width = 951;
}
);
leftKerningGroup = O;
note = Q;
unicode = 0051;
},
{
glyphname = R;
layers = (
{
layerId = "12E5A654-CA13-4855-9DF9-FF4C09D128B7";
paths = (
{
closed = 1;
nodes = (
"726 680 OFFCURVE",
"574 705 OFFCURVE",
"426 705 CURVE SMOOTH",
"360 705 OFFCURVE",
"300 699 OFFCURVE",
"241 699 CURVE SMOOTH",
"175 699 OFFCURVE",
"98 701 OFFCURVE",
"32 705 CURVE",
"27 648 LINE",
"50 645 OFFCURVE",
"75 636 OFFCURVE",
"99 624 CURVE",
"109 541 OFFCURVE",
"110 440 OFFCURVE",
"110 359 CURVE SMOOTH",
"110 241 OFFCURVE",
"108 147 OFFCURVE",
"101 72 CURVE",
"80 61 OFFCURVE",
"56 53 OFFCURVE",
"30 47 CURVE",
"33 -8 LINE",
"78 -1 OFFCURVE",
"181 1 OFFCURVE",
"232 1 CURVE SMOOTH",
"296 1 OFFCURVE",
"340 -3 OFFCURVE",
"393 -8 CURVE",
"399 52 LINE",
"367 60 OFFCURVE",
"341 68 OFFCURVE",
"318 81 CURVE",
"307 145 OFFCURVE",
"304 218 OFFCURVE",
"304 307 CURVE",
"308 307 OFFCURVE",
"312 308 OFFCURVE",
"317 308 CURVE",
"379 254 OFFCURVE",
"460 161 OFFCURVE",
"514 66 CURVE",
"532 -9 LINE",
"560 -6 OFFCURVE",
"654 -2 OFFCURVE",
"683 -2 CURVE SMOOTH",
"713 -2 OFFCURVE",
"767 -3 OFFCURVE",
"788 -5 CURVE",
"794 51 LINE",
"753 72 LINE",
"688 180 OFFCURVE",
"589 275 OFFCURVE",
"525 334 CURVE",
"635 361 OFFCURVE",
"726 415 OFFCURVE",
"726 522 CURVE SMOOTH"
);
},
{
closed = 1;
nodes = (
"455 627 OFFCURVE",
"509 573 OFFCURVE",
"509 512 CURVE SMOOTH",
"509 420 OFFCURVE",
"441 392 OFFCURVE",
"363 392 CURVE SMOOTH",
"346 392 OFFCURVE",
"327 395 OFFCURVE",
"304 402 CURVE",
"305 478 OFFCURVE",
"309 560 OFFCURVE",
"316 624 CURVE",
"330 626 OFFCURVE",
"342 627 OFFCURVE",
"352 627 CURVE SMOOTH"
);
}
);
width = 814;
}
);
note = R;
rightKerningGroup = R;
unicode = 0052;
},
{
glyphname = S;
layers = (
{
layerId = "12E5A654-CA13-4855-9DF9-FF4C09D128B7";
paths = (
{
closed = 1;
nodes = (
"60 216 LINE",
"60 61 LINE",
"131 7 OFFCURVE",
"217 -19 OFFCURVE",
"333 -19 CURVE SMOOTH",
"479 -19 OFFCURVE",
"631 29 OFFCURVE",
"631 216 CURVE SMOOTH",
"631 499 OFFCURVE",
"246 429 OFFCURVE",
"246 561 CURVE SMOOTH",
"246 608 OFFCURVE",
"292 627 OFFCURVE",
"336 627 CURVE SMOOTH",
"388 627 OFFCURVE",
"426 616 OFFCURVE",
"458 593 CURVE",
"514 507 LINE",
"577 519 LINE",
"577 656 LINE",
"532 691 OFFCURVE",
"443 710 OFFCURVE",
"353 710 CURVE SMOOTH",
"184 710 OFFCURVE",
"60 646 OFFCURVE",
"60 488 CURVE SMOOTH",
"60 233 OFFCURVE",
"467 286 OFFCURVE",
"467 141 CURVE SMOOTH",
"467 94 OFFCURVE",
"426 68 OFFCURVE",
"357 68 CURVE SMOOTH",
"287 68 OFFCURVE",
"239 88 OFFCURVE",
"192 121 CURVE",
"143 235 LINE"
);
}
);
width = 671;
}
);
note = S;
rightKerningGroup = S;
unicode = 0053;
},
{
glyphname = Scaron;
layers = (
{
layerId = "12E5A654-CA13-4855-9DF9-FF4C09D128B7";
paths = (
{
closed = 1;
nodes = (
"60 216 LINE",
"60 61 LINE",
"131 7 OFFCURVE",
"217 -19 OFFCURVE",
"333 -19 CURVE SMOOTH",
"479 -19 OFFCURVE",
"631 29 OFFCURVE",
"631 216 CURVE SMOOTH",
"631 499 OFFCURVE",
"246 429 OFFCURVE",
"246 561 CURVE SMOOTH",
"246 608 OFFCURVE",
"292 627 OFFCURVE",
"336 627 CURVE SMOOTH",
"388 627 OFFCURVE",
"426 616 OFFCURVE",
"458 593 CURVE",
"514 507 LINE",
"577 519 LINE",
"577 656 LINE",
"532 691 OFFCURVE",
"443 710 OFFCURVE",
"353 710 CURVE SMOOTH",
"184 710 OFFCURVE",
"60 646 OFFCURVE",
"60 488 CURVE SMOOTH",
"60 233 OFFCURVE",
"467 286 OFFCURVE",
"467 141 CURVE SMOOTH",
"467 94 OFFCURVE",
"426 68 OFFCURVE",
"357 68 CURVE SMOOTH",
"287 68 OFFCURVE",
"239 88 OFFCURVE",
"192 121 CURVE",
"143 235 LINE"
);
},
{
closed = 1;
nodes = (
"373 754 LINE",
"489 902 LINE",
"465 932 LINE",
"361 880 LINE",
"261 931 LINE",
"225 902 LINE",
"316 754 LINE"
);
}
);
width = 671;
}
);
note = Scaron;
rightKerningGroup = S;
unicode = 0160;
},
{
glyphname = T;
layers = (
{
layerId = "12E5A654-CA13-4855-9DF9-FF4C09D128B7";
paths = (
{
closed = 1;
nodes = (
"145 -9 LINE",
"207 -2 OFFCURVE",
"345 0 OFFCURVE",
"415 0 CURVE SMOOTH",
"501 0 OFFCURVE",
"574 -4 OFFCURVE",
"645 -9 CURVE",
"653 51 LINE",
"599 61 OFFCURVE",
"549 72 OFFCURVE",
"510 92 CURVE",
"499 164 OFFCURVE",
"497 249 OFFCURVE",
"497 349 CURVE SMOOTH",
"497 435 OFFCURVE",
"499 533 OFFCURVE",
"507 611 CURVE",
"578 611 LINE",
"624 600 OFFCURVE",
"657 549 OFFCURVE",
"678 477 CURVE",
"728 476 LINE",
"823 687 LINE",
"802 718 LINE",
"640 700 LINE",
"177 700 LINE",
"55 721 LINE",
"0 480 LINE",
"58 470 LINE",
"96 523 OFFCURVE",
"171 598 OFFCURVE",
"214 611 CURVE",
"284 611 LINE",
"292 530 OFFCURVE",
"293 436 OFFCURVE",
"293 359 CURVE SMOOTH",
"293 251 OFFCURVE",
"289 163 OFFCURVE",
"281 92 CURVE",
"241 71 OFFCURVE",
"196 55 OFFCURVE",
"142 46 CURVE"
);
}
);
width = 838;
}
);
leftKerningGroup = T;
note = T;
rightKerningGroup = T;
unicode = 0054;
},
{
glyphname = U;
layers = (
{
layerId = "12E5A654-CA13-4855-9DF9-FF4C09D128B7";
paths = (
{
closed = 1;
nodes = (
"829 709 LINE",
"799 705 OFFCURVE",
"738 701 OFFCURVE",
"705 701 CURVE SMOOTH",
"665 701 OFFCURVE",
"612 704 OFFCURVE",
"578 709 CURVE",
"575 649 LINE",
"600 642 OFFCURVE",
"638 631 OFFCURVE",
"665 613 CURVE",
"665 267 LINE SMOOTH",
"665 113 OFFCURVE",
"564 79 OFFCURVE",
"489 79 CURVE SMOOTH",
"398 79 OFFCURVE",
"311 110 OFFCURVE",
"311 265 CURVE SMOOTH",
"311 618 LINE",
"337 631 OFFCURVE",
"365 642 OFFCURVE",
"394 650 CURVE",
"391 708 LINE",
"348 702 OFFCURVE",
"239 699 OFFCURVE",
"190 699 CURVE SMOOTH",
"128 699 OFFCURVE",
"76 703 OFFCURVE",
"25 708 CURVE",
"20 649 LINE",
"49 642 OFFCURVE",
"77 634 OFFCURVE",
"102 622 CURVE",
"102 210 LINE SMOOTH",
"102 38 OFFCURVE",
"261 -20 OFFCURVE",
"431 -20 CURVE SMOOTH",
"609 -20 OFFCURVE",
"756 37 OFFCURVE",
"756 239 CURVE SMOOTH",
"756 612 LINE",
"778 629 OFFCURVE",
"806 639 OFFCURVE",
"832 650 CURVE"
);
}
);
width = 852;
}
);
leftKerningGroup = U;
note = U;
rightKerningGroup = U;
unicode = 0055;
},
{
glyphname = Uacute;
layers = (
{
layerId = "12E5A654-CA13-4855-9DF9-FF4C09D128B7";
paths = (
{
closed = 1;
nodes = (
"829 709 LINE",
"799 705 OFFCURVE",
"738 701 OFFCURVE",
"705 701 CURVE SMOOTH",
"665 701 OFFCURVE",
"612 704 OFFCURVE",
"578 709 CURVE",
"575 649 LINE",
"600 642 OFFCURVE",
"638 631 OFFCURVE",
"665 613 CURVE",
"665 267 LINE SMOOTH",
"665 113 OFFCURVE",
"564 79 OFFCURVE",
"489 79 CURVE SMOOTH",
"398 79 OFFCURVE",
"311 110 OFFCURVE",
"311 265 CURVE SMOOTH",
"311 618 LINE",
"337 631 OFFCURVE",
"365 642 OFFCURVE",
"394 650 CURVE",
"391 708 LINE",
"348 702 OFFCURVE",
"239 699 OFFCURVE",
"190 699 CURVE SMOOTH",
"128 699 OFFCURVE",
"76 703 OFFCURVE",
"25 708 CURVE",
"20 649 LINE",
"49 642 OFFCURVE",
"77 634 OFFCURVE",
"102 622 CURVE",
"102 210 LINE SMOOTH",
"102 38 OFFCURVE",
"261 -20 OFFCURVE",
"431 -20 CURVE SMOOTH",
"609 -20 OFFCURVE",
"756 37 OFFCURVE",
"756 239 CURVE SMOOTH",
"756 612 LINE",
"778 629 OFFCURVE",
"806 639 OFFCURVE",
"832 650 CURVE"
);
},
{
closed = 1;
nodes = (
"431 739 LINE",
"508 760 OFFCURVE",
"559 792 OFFCURVE",
"591 850 CURVE",
"542 927 LINE",
"483 923 LINE",
"476 880 OFFCURVE",
"441 829 OFFCURVE",
"396 795 CURVE"
);
}
);
width = 852;
}
);
leftKerningGroup = U;
note = Uacute;
rightKerningGroup = U;
unicode = 00DA;
},
{
glyphname = Ucircumflex;
layers = (
{
layerId = "12E5A654-CA13-4855-9DF9-FF4C09D128B7";
paths = (
{
closed = 1;
nodes = (
"829 709 LINE",
"799 705 OFFCURVE",
"738 701 OFFCURVE",
"705 701 CURVE SMOOTH",
"665 701 OFFCURVE",
"612 704 OFFCURVE",
"578 709 CURVE",
"575 649 LINE",
"600 642 OFFCURVE",
"638 631 OFFCURVE",
"665 613 CURVE",
"665 267 LINE SMOOTH",
"665 113 OFFCURVE",
"564 79 OFFCURVE",
"489 79 CURVE SMOOTH",
"398 79 OFFCURVE",
"311 110 OFFCURVE",
"311 265 CURVE SMOOTH",
"311 618 LINE",
"337 631 OFFCURVE",
"365 642 OFFCURVE",
"394 650 CURVE",
"391 708 LINE",
"348 702 OFFCURVE",
"239 699 OFFCURVE",
"190 699 CURVE SMOOTH",
"128 699 OFFCURVE",
"76 703 OFFCURVE",
"25 708 CURVE",
"20 649 LINE",
"49 642 OFFCURVE",
"77 634 OFFCURVE",
"102 622 CURVE",
"102 210 LINE SMOOTH",
"102 38 OFFCURVE",
"261 -20 OFFCURVE",
"431 -20 CURVE SMOOTH",
"609 -20 OFFCURVE",
"756 37 OFFCURVE",
"756 239 CURVE SMOOTH",
"756 612 LINE",
"778 629 OFFCURVE",
"806 639 OFFCURVE",
"832 650 CURVE"
);
},
{
closed = 1;
nodes = (
"477 922 LINE",
"361 774 LINE",
"385 744 LINE",
"489 796 LINE",
"589 745 LINE",
"625 774 LINE",
"534 922 LINE"
);
}
);
width = 852;
}
);
leftKerningGroup = U;
note = Ucircumflex;
rightKerningGroup = U;
unicode = 00DB;
},
{
glyphname = Udieresis;
layers = (
{
layerId = "12E5A654-CA13-4855-9DF9-FF4C09D128B7";
paths = (
{
closed = 1;
nodes = (
"829 709 LINE",
"799 705 OFFCURVE",
"738 701 OFFCURVE",
"705 701 CURVE SMOOTH",
"665 701 OFFCURVE",
"612 704 OFFCURVE",
"578 709 CURVE",
"575 649 LINE",
"600 642 OFFCURVE",
"638 631 OFFCURVE",
"665 613 CURVE",
"665 267 LINE SMOOTH",
"665 113 OFFCURVE",
"564 79 OFFCURVE",
"489 79 CURVE SMOOTH",
"398 79 OFFCURVE",
"311 110 OFFCURVE",
"311 265 CURVE SMOOTH",
"311 618 LINE",
"337 631 OFFCURVE",
"365 642 OFFCURVE",
"394 650 CURVE",
"391 708 LINE",
"348 702 OFFCURVE",
"239 699 OFFCURVE",
"190 699 CURVE SMOOTH",
"128 699 OFFCURVE",
"76 703 OFFCURVE",
"25 708 CURVE",
"20 649 LINE",
"49 642 OFFCURVE",
"77 634 OFFCURVE",
"102 622 CURVE",
"102 210 LINE SMOOTH",
"102 38 OFFCURVE",
"261 -20 OFFCURVE",
"431 -20 CURVE SMOOTH",
"609 -20 OFFCURVE",
"756 37 OFFCURVE",
"756 239 CURVE SMOOTH",
"756 612 LINE",
"778 629 OFFCURVE",
"806 639 OFFCURVE",
"832 650 CURVE"
);
},
{
closed = 1;
nodes = (
"301 791 OFFCURVE",
"332 755 OFFCURVE",
"377 755 CURVE SMOOTH",
"423 755 OFFCURVE",
"464 796 OFFCURVE",
"464 849 CURVE SMOOTH",
"464 891 OFFCURVE",
"432 927 OFFCURVE",
"387 927 CURVE SMOOTH",
"342 927 OFFCURVE",
"301 886 OFFCURVE",
"301 834 CURVE SMOOTH"
);
},
{
closed = 1;
nodes = (
"504 788 OFFCURVE",
"535 752 OFFCURVE",
"584 752 CURVE SMOOTH",
"630 752 OFFCURVE",
"674 795 OFFCURVE",
"674 850 CURVE SMOOTH",
"674 894 OFFCURVE",
"642 930 OFFCURVE",
"593 930 CURVE SMOOTH",
"546 930 OFFCURVE",
"504 887 OFFCURVE",
"504 835 CURVE SMOOTH"
);
}
);
width = 852;
}
);
leftKerningGroup = U;
note = Udieresis;
rightKerningGroup = U;
unicode = 00DC;
},
{
glyphname = Ugrave;
layers = (
{
layerId = "12E5A654-CA13-4855-9DF9-FF4C09D128B7";
paths = (
{
closed = 1;
nodes = (
"829 709 LINE",
"799 705 OFFCURVE",
"738 701 OFFCURVE",
"705 701 CURVE SMOOTH",
"665 701 OFFCURVE",
"612 704 OFFCURVE",
"578 709 CURVE",
"575 649 LINE",
"600 642 OFFCURVE",
"638 631 OFFCURVE",
"665 613 CURVE",
"665 267 LINE SMOOTH",
"665 113 OFFCURVE",
"564 79 OFFCURVE",
"489 79 CURVE SMOOTH",
"398 79 OFFCURVE",
"311 110 OFFCURVE",
"311 265 CURVE SMOOTH",
"311 618 LINE",
"337 631 OFFCURVE",
"365 642 OFFCURVE",
"394 650 CURVE",
"391 708 LINE",
"348 702 OFFCURVE",
"239 699 OFFCURVE",
"190 699 CURVE SMOOTH",
"128 699 OFFCURVE",
"76 703 OFFCURVE",
"25 708 CURVE",
"20 649 LINE",
"49 642 OFFCURVE",
"77 634 OFFCURVE",
"102 622 CURVE",
"102 210 LINE SMOOTH",
"102 38 OFFCURVE",
"261 -20 OFFCURVE",
"431 -20 CURVE SMOOTH",
"609 -20 OFFCURVE",
"756 37 OFFCURVE",
"756 239 CURVE SMOOTH",
"756 612 LINE",
"778 629 OFFCURVE",
"806 639 OFFCURVE",
"832 650 CURVE"
);
},
{
closed = 1;
nodes = (
"563 795 LINE",
"518 829 OFFCURVE",
"493 879 OFFCURVE",
"486 922 CURVE",
"432 926 LINE",
"365 860 LINE",
"384 801 OFFCURVE",
"445 760 OFFCURVE",
"522 739 CURVE"
);
}
);
width = 852;
}
);
leftKerningGroup = U;
note = Ugrave;
rightKerningGroup = U;
unicode = 00D9;
},
{
glyphname = V;
layers = (
{
layerId = "12E5A654-CA13-4855-9DF9-FF4C09D128B7";
paths = (
{
closed = 1;
nodes = (
"582 646 LINE",
"609 641 OFFCURVE",
"643 633 OFFCURVE",
"673 622 CURVE",
"639 479 OFFCURVE",
"570 345 OFFCURVE",
"525 252 CURVE",
"516 210 LINE",
"513 210 LINE",
"503 252 LINE",
"329 619 LINE",
"363 631 OFFCURVE",
"400 640 OFFCURVE",
"426 646 CURVE",
"426 706 LINE",
"392 701 OFFCURVE",
"275 697 OFFCURVE",
"218 697 CURVE SMOOTH",
"162 697 OFFCURVE",
"73 700 OFFCURVE",
"22 704 CURVE",
"20 640 LINE",
"41 636 OFFCURVE",
"64 632 OFFCURVE",
"88 625 CURVE",
"178 454 OFFCURVE",
"289 220 OFFCURVE",
"384 -20 CURVE",
"490 -11 LINE",
"524 18 LINE",
"580 187 OFFCURVE",
"700 449 OFFCURVE",
"796 618 CURVE",
"822 630 OFFCURVE",
"854 639 OFFCURVE",
"874 646 CURVE",
"874 706 LINE",
"847 702 OFFCURVE",
"779 698 OFFCURVE",
"734 698 CURVE SMOOTH",
"689 698 OFFCURVE",
"627 701 OFFCURVE",
"587 705 CURVE"
);
}
);
width = 895;
}
);
leftKerningGroup = V;
note = V;
rightKerningGroup = V;
unicode = 0056;
},
{
glyphname = W;
layers = (
{
layerId = "12E5A654-CA13-4855-9DF9-FF4C09D128B7";
paths = (
{
closed = 1;
nodes = (
"1067 642 LINE",
"1086 638 OFFCURVE",
"1108 633 OFFCURVE",
"1128 627 CURVE",
"1091 476 OFFCURVE",
"993 287 OFFCURVE",
"940 197 CURVE",
"931 155 LINE",
"928 155 LINE",
"918 197 LINE",
"812 401 LINE",
"865 482 OFFCURVE",
"919 559 OFFCURVE",
"965 621 CURVE",
"988 633 OFFCURVE",
"1018 642 OFFCURVE",
"1035 649 CURVE",
"1035 706 LINE",
"1013 704 OFFCURVE",
"959 701 OFFCURVE",
"923 701 CURVE SMOOTH",
"888 701 OFFCURVE",
"838 703 OFFCURVE",
"806 705 CURVE",
"798 649 LINE",
"837 638 LINE",
"825 587 OFFCURVE",
"802 530 OFFCURVE",
"774 475 CURVE",
"695 627 LINE",
"721 637 OFFCURVE",
"748 645 OFFCURVE",
"768 651 CURVE",
"768 706 LINE",
"740 701 OFFCURVE",
"643 699 OFFCURVE",
"596 699 CURVE SMOOTH",
"550 699 OFFCURVE",
"475 700 OFFCURVE",
"434 704 CURVE",
"429 646 LINE",
"463 638 LINE",
"524 551 OFFCURVE",
"596 424 OFFCURVE",
"664 291 CURVE",
"640 254 OFFCURVE",
"616 221 OFFCURVE",
"598 197 CURVE",
"589 155 LINE",
"586 155 LINE",
"576 197 LINE",
"328 629 LINE",
"351 637 OFFCURVE",
"374 643 OFFCURVE",
"391 648 CURVE",
"391 706 LINE",
"360 701 OFFCURVE",
"253 699 OFFCURVE",
"201 699 CURVE SMOOTH",
"150 699 OFFCURVE",
"68 700 OFFCURVE",
"22 704 CURVE",
"20 641 LINE",
"35 637 OFFCURVE",
"52 634 OFFCURVE",
"69 630 CURVE",
"178 474 OFFCURVE",
"344 196 OFFCURVE",
"464 -20 CURVE",
"570 -11 LINE",
"604 18 LINE",
"623 73 OFFCURVE",
"658 143 OFFCURVE",
"701 218 CURVE",
"741 137 OFFCURVE",
"779 55 OFFCURVE",
"811 -20 CURVE",
"917 -11 LINE",
"951 18 LINE",
"1014 160 OFFCURVE",
"1165 456 OFFCURVE",
"1275 617 CURVE",
"1303 629 OFFCURVE",
"1338 638 OFFCURVE",
"1357 645 CURVE",
"1357 706 LINE",
"1330 704 OFFCURVE",
"1263 701 OFFCURVE",
"1219 701 CURVE SMOOTH",
"1176 701 OFFCURVE",
"1114 703 OFFCURVE",
"1074 705 CURVE"
);
}
);
width = 1377;
}
);
leftKerningGroup = W;
note = W;
rightKerningGroup = W;
unicode = 0057;
},
{
glyphname = X;
layers = (
{
layerId = "12E5A654-CA13-4855-9DF9-FF4C09D128B7";
paths = (
{
closed = 1;
nodes = (
"342 50 LINE",
"311 55 OFFCURVE",
"277 65 OFFCURVE",
"248 78 CURVE",
"393 264 LINE",
"540 72 LINE",
"505 63 OFFCURVE",
"470 55 OFFCURVE",
"448 50 CURVE",
"448 -10 LINE",
"482 -5 OFFCURVE",
"619 -1 OFFCURVE",
"676 -1 CURVE SMOOTH",
"732 -1 OFFCURVE",
"821 -4 OFFCURVE",
"872 -8 CURVE",
"874 56 LINE",
"847 61 OFFCURVE",
"818 66 OFFCURVE",
"788 76 CURVE",
"543 398 LINE",
"739 617 LINE",
"770 629 OFFCURVE",
"812 639 OFFCURVE",
"833 646 CURVE",
"833 706 LINE",
"806 702 OFFCURVE",
"738 698 OFFCURVE",
"693 698 CURVE SMOOTH",
"648 698 OFFCURVE",
"576 701 OFFCURVE",
"536 705 CURVE",
"531 646 LINE",
"561 640 OFFCURVE",
"589 632 OFFCURVE",
"615 619 CURVE",
"491 466 LINE",
"371 625 LINE",
"397 634 OFFCURVE",
"424 641 OFFCURVE",
"445 646 CURVE",
"445 706 LINE",
"411 701 OFFCURVE",
"304 697 OFFCURVE",
"247 697 CURVE SMOOTH",
"191 697 OFFCURVE",
"102 700 OFFCURVE",
"51 704 CURVE",
"49 640 LINE",
"69 636 OFFCURVE",
"91 632 OFFCURVE",
"114 626 CURVE",
"340 332 LINE",
"107 77 LINE",
"73 66 OFFCURVE",
"28 57 OFFCURVE",
"8 51 CURVE",
"10 -10 LINE",
"37 -6 OFFCURVE",
"115 -2 OFFCURVE",
"160 -2 CURVE SMOOTH",
"205 -2 OFFCURVE",
"297 -5 OFFCURVE",
"337 -9 CURVE"
);
}
);
width = 894;
}
);
note = X;
rightKerningGroup = X;
unicode = 0058;
},
{
glyphname = Y;
layers = (
{
layerId = "12E5A654-CA13-4855-9DF9-FF4C09D128B7";
paths = (
{
closed = 1;
nodes = (
"20 640 LINE",
"82 627 LINE",
"332 288 LINE",
"333 268 OFFCURVE",
"333 248 OFFCURVE",
"333 227 CURVE SMOOTH",
"333 175 OFFCURVE",
"331 131 OFFCURVE",
"326 94 CURVE",
"285 72 OFFCURVE",
"238 56 OFFCURVE",
"182 46 CURVE",
"185 -9 LINE",
"247 -2 OFFCURVE",
"385 0 OFFCURVE",
"455 0 CURVE SMOOTH",
"541 0 OFFCURVE",
"614 -4 OFFCURVE",
"685 -9 CURVE",
"693 51 LINE",
"637 62 OFFCURVE",
"585 73 OFFCURVE",
"546 94 CURVE",
"540 131 OFFCURVE",
"539 173 OFFCURVE",
"539 221 CURVE SMOOTH",
"539 262 OFFCURVE",
"540 297 OFFCURVE",
"545 329 CURVE",
"770 627 LINE",
"794 635 OFFCURVE",
"819 641 OFFCURVE",
"834 646 CURVE",
"834 706 LINE",
"807 702 OFFCURVE",
"739 698 OFFCURVE",
"694 698 CURVE SMOOTH",
"649 698 OFFCURVE",
"587 701 OFFCURVE",
"547 705 CURVE",
"542 646 LINE",
"574 640 OFFCURVE",
"605 629 OFFCURVE",
"633 615 CURVE",
"498 400 LINE",
"348 625 LINE",
"376 634 OFFCURVE",
"405 641 OFFCURVE",
"426 646 CURVE",
"426 706 LINE",
"392 701 OFFCURVE",
"275 697 OFFCURVE",
"218 697 CURVE SMOOTH",
"162 697 OFFCURVE",
"73 700 OFFCURVE",
"22 704 CURVE"
);
}
);
width = 854;
}
);
leftKerningGroup = Y;
note = Y;
rightKerningGroup = Y;
unicode = 0059;
},
{
glyphname = Yacute;
layers = (
{
layerId = "12E5A654-CA13-4855-9DF9-FF4C09D128B7";
paths = (
{
closed = 1;
nodes = (
"20 640 LINE",
"82 627 LINE",
"332 288 LINE",
"333 268 OFFCURVE",
"333 248 OFFCURVE",
"333 227 CURVE SMOOTH",
"333 175 OFFCURVE",
"331 131 OFFCURVE",
"326 94 CURVE",
"285 72 OFFCURVE",
"238 56 OFFCURVE",
"182 46 CURVE",
"185 -9 LINE",
"247 -2 OFFCURVE",
"385 0 OFFCURVE",
"455 0 CURVE SMOOTH",
"541 0 OFFCURVE",
"614 -4 OFFCURVE",
"685 -9 CURVE",
"693 51 LINE",
"637 62 OFFCURVE",
"585 73 OFFCURVE",
"546 94 CURVE",
"540 131 OFFCURVE",
"539 173 OFFCURVE",
"539 221 CURVE SMOOTH",
"539 262 OFFCURVE",
"540 297 OFFCURVE",
"545 329 CURVE",
"770 627 LINE",
"794 635 OFFCURVE",
"819 641 OFFCURVE",
"834 646 CURVE",
"834 706 LINE",
"807 702 OFFCURVE",
"739 698 OFFCURVE",
"694 698 CURVE SMOOTH",
"649 698 OFFCURVE",
"587 701 OFFCURVE",
"547 705 CURVE",
"542 646 LINE",
"574 640 OFFCURVE",
"605 629 OFFCURVE",
"633 615 CURVE",
"498 400 LINE",
"348 625 LINE",
"376 634 OFFCURVE",
"405 641 OFFCURVE",
"426 646 CURVE",
"426 706 LINE",
"392 701 OFFCURVE",
"275 697 OFFCURVE",
"218 697 CURVE SMOOTH",
"162 697 OFFCURVE",
"73 700 OFFCURVE",
"22 704 CURVE"
);
},
{
closed = 1;
nodes = (
"431 739 LINE",
"508 760 OFFCURVE",
"559 792 OFFCURVE",
"591 850 CURVE",
"542 927 LINE",
"483 923 LINE",
"476 880 OFFCURVE",
"441 829 OFFCURVE",
"396 795 CURVE"
);
}
);
width = 854;
}
);
leftKerningGroup = Y;
note = Yacute;
rightKerningGroup = Y;
unicode = 00DD;
},
{
glyphname = Ydieresis;
layers = (
{
layerId = "12E5A654-CA13-4855-9DF9-FF4C09D128B7";
paths = (
{
closed = 1;
nodes = (
"20 640 LINE",
"82 627 LINE",
"332 288 LINE",
"333 268 OFFCURVE",
"333 248 OFFCURVE",
"333 227 CURVE SMOOTH",
"333 175 OFFCURVE",
"331 131 OFFCURVE",
"326 94 CURVE",
"285 72 OFFCURVE",
"238 56 OFFCURVE",
"182 46 CURVE",
"185 -9 LINE",
"247 -2 OFFCURVE",
"385 0 OFFCURVE",
"455 0 CURVE SMOOTH",
"541 0 OFFCURVE",
"614 -4 OFFCURVE",
"685 -9 CURVE",
"693 51 LINE",
"637 62 OFFCURVE",
"585 73 OFFCURVE",
"546 94 CURVE",
"540 131 OFFCURVE",
"539 173 OFFCURVE",
"539 221 CURVE SMOOTH",
"539 262 OFFCURVE",
"540 297 OFFCURVE",
"545 329 CURVE",
"770 627 LINE",
"794 635 OFFCURVE",
"819 641 OFFCURVE",
"834 646 CURVE",
"834 706 LINE",
"807 702 OFFCURVE",
"739 698 OFFCURVE",
"694 698 CURVE SMOOTH",
"649 698 OFFCURVE",
"587 701 OFFCURVE",
"547 705 CURVE",
"542 646 LINE",
"574 640 OFFCURVE",
"605 629 OFFCURVE",
"633 615 CURVE",
"498 400 LINE",
"348 625 LINE",
"376 634 OFFCURVE",
"405 641 OFFCURVE",
"426 646 CURVE",
"426 706 LINE",
"392 701 OFFCURVE",
"275 697 OFFCURVE",
"218 697 CURVE SMOOTH",
"162 697 OFFCURVE",
"73 700 OFFCURVE",
"22 704 CURVE"
);
},
{
closed = 1;
nodes = (
"301 791 OFFCURVE",
"332 755 OFFCURVE",
"377 755 CURVE SMOOTH",
"423 755 OFFCURVE",
"464 796 OFFCURVE",
"464 849 CURVE SMOOTH",
"464 891 OFFCURVE",
"432 927 OFFCURVE",
"387 927 CURVE SMOOTH",
"342 927 OFFCURVE",
"301 886 OFFCURVE",
"301 834 CURVE SMOOTH"
);
},
{
closed = 1;
nodes = (
"504 788 OFFCURVE",
"535 752 OFFCURVE",
"584 752 CURVE SMOOTH",
"630 752 OFFCURVE",
"674 795 OFFCURVE",
"674 850 CURVE SMOOTH",
"674 894 OFFCURVE",
"642 930 OFFCURVE",
"593 930 CURVE SMOOTH",
"546 930 OFFCURVE",
"504 887 OFFCURVE",
"504 835 CURVE SMOOTH"
);
}
);
width = 854;
}
);
leftKerningGroup = Y;
note = Ydieresis;
rightKerningGroup = Y;
unicode = 0178;
},
{
glyphname = Z;
layers = (
{
layerId = "12E5A654-CA13-4855-9DF9-FF4C09D128B7";
paths = (
{
closed = 1;
nodes = (
"40 491 LINE",
"109 470 LINE",
"217 597 LINE",
"263 614 OFFCURVE",
"323 622 OFFCURVE",
"368 622 CURVE SMOOTH",
"409 622 OFFCURVE",
"439 617 OFFCURVE",
"471 611 CURVE",
"360 441 OFFCURVE",
"222 259 OFFCURVE",
"20 51 CURVE",
"35 -12 LINE",
"105 -2 OFFCURVE",
"262 0 OFFCURVE",
"356 0 CURVE SMOOTH",
"466 0 OFFCURVE",
"623 -4 OFFCURVE",
"729 -19 CURVE",
"784 206 LINE",
"719 229 LINE",
"630 108 LINE",
"570 81 OFFCURVE",
"506 68 OFFCURVE",
"423 68 CURVE SMOOTH",
"403 68 OFFCURVE",
"359 69 OFFCURVE",
"321 78 CURVE",
"504 278 OFFCURVE",
"650 470 OFFCURVE",
"737 678 CURVE",
"707 708 LINE",
"620 701 OFFCURVE",
"494 700 OFFCURVE",
"404 700 CURVE SMOOTH",
"315 700 OFFCURVE",
"201 710 OFFCURVE",
"119 726 CURVE"
);
}
);
width = 794;
}
);
note = Z;
rightKerningGroup = Z;
unicode = 005A;
},
{
glyphname = Zcaron;
layers = (
{
layerId = "12E5A654-CA13-4855-9DF9-FF4C09D128B7";
paths = (
{
closed = 1;
nodes = (
"40 491 LINE",
"109 470 LINE",
"217 597 LINE",
"263 614 OFFCURVE",
"323 622 OFFCURVE",
"368 622 CURVE SMOOTH",
"409 622 OFFCURVE",
"439 617 OFFCURVE",
"471 611 CURVE",
"360 441 OFFCURVE",
"222 259 OFFCURVE",
"20 51 CURVE",
"35 -12 LINE",
"105 -2 OFFCURVE",
"262 0 OFFCURVE",
"356 0 CURVE SMOOTH",
"466 0 OFFCURVE",
"623 -4 OFFCURVE",
"729 -19 CURVE",
"784 206 LINE",
"719 229 LINE",
"630 108 LINE",
"570 81 OFFCURVE",
"506 68 OFFCURVE",
"423 68 CURVE SMOOTH",
"403 68 OFFCURVE",
"359 69 OFFCURVE",
"321 78 CURVE",
"504 278 OFFCURVE",
"650 470 OFFCURVE",
"737 678 CURVE",
"707 708 LINE",
"620 701 OFFCURVE",
"494 700 OFFCURVE",
"404 700 CURVE SMOOTH",
"315 700 OFFCURVE",
"201 710 OFFCURVE",
"119 726 CURVE"
);
},
{
closed = 1;
nodes = (
"449 754 LINE",
"565 902 LINE",
"541 932 LINE",
"437 880 LINE",
"337 931 LINE",
"301 902 LINE",
"392 754 LINE"
);
}
);
width = 794;
}
);
note = Zcaron;
rightKerningGroup = Z;
unicode = 017D;
},
{
glyphname = a;
layers = (
{
layerId = "12E5A654-CA13-4855-9DF9-FF4C09D128B7";
paths = (
{
closed = 1;
nodes = (
"86 304 LINE",
"134 327 OFFCURVE",
"189 344 OFFCURVE",
"225 344 CURVE SMOOTH",
"272 344 OFFCURVE",
"298 318 OFFCURVE",
"298 262 CURVE",
"78 234 OFFCURVE",
"25 173 OFFCURVE",
"25 90 CURVE SMOOTH",
"25 20 OFFCURVE",
"85 -17 OFFCURVE",
"138 -17 CURVE SMOOTH",
"186 -17 OFFCURVE",
"237 0 OFFCURVE",
"304 52 CURVE",
"318 13 OFFCURVE",
"346 -4 OFFCURVE",
"373 -16 CURVE",
"527 43 LINE",
"520 99 LINE",
"487 103 OFFCURVE",
"467 121 OFFCURVE",
"467 166 CURVE SMOOTH",
"467 214 OFFCURVE",
"469 250 OFFCURVE",
"469 289 CURVE SMOOTH",
"469 389 OFFCURVE",
"412 439 OFFCURVE",
"308 439 CURVE SMOOTH",
"221 439 OFFCURVE",
"124 399 OFFCURVE",
"66 358 CURVE"
);
},
{
closed = 1;
nodes = (
"269 97 OFFCURVE",
"243 93 OFFCURVE",
"221 93 CURVE SMOOTH",
"197 93 OFFCURVE",
"185 112 OFFCURVE",
"185 134 CURVE SMOOTH",
"185 170 OFFCURVE",
"217 193 OFFCURVE",
"297 196 CURVE",
"297 170 OFFCURVE",
"296 146 OFFCURVE",
"296 122 CURVE"
);
}
);
width = 532;
}
);
leftKerningGroup = a;
note = a;
unicode = 0061;
},
{
glyphname = aacute;
layers = (
{
layerId = "12E5A654-CA13-4855-9DF9-FF4C09D128B7";
paths = (
{
closed = 1;
nodes = (
"86 304 LINE",
"134 327 OFFCURVE",
"189 344 OFFCURVE",
"225 344 CURVE SMOOTH",
"272 344 OFFCURVE",
"298 318 OFFCURVE",
"298 262 CURVE",
"78 234 OFFCURVE",
"25 173 OFFCURVE",
"25 90 CURVE SMOOTH",
"25 20 OFFCURVE",
"85 -17 OFFCURVE",
"138 -17 CURVE SMOOTH",
"186 -17 OFFCURVE",
"237 0 OFFCURVE",
"304 52 CURVE",
"318 13 OFFCURVE",
"346 -4 OFFCURVE",
"373 -16 CURVE",
"527 43 LINE",
"520 99 LINE",
"487 103 OFFCURVE",
"467 121 OFFCURVE",
"467 166 CURVE SMOOTH",
"467 214 OFFCURVE",
"469 250 OFFCURVE",
"469 289 CURVE SMOOTH",
"469 389 OFFCURVE",
"412 439 OFFCURVE",
"308 439 CURVE SMOOTH",
"221 439 OFFCURVE",
"124 399 OFFCURVE",
"66 358 CURVE"
);
},
{
closed = 1;
nodes = (
"269 97 OFFCURVE",
"243 93 OFFCURVE",
"221 93 CURVE SMOOTH",
"197 93 OFFCURVE",
"185 112 OFFCURVE",
"185 134 CURVE SMOOTH",
"185 170 OFFCURVE",
"217 193 OFFCURVE",
"297 196 CURVE",
"297 170 OFFCURVE",
"296 146 OFFCURVE",
"296 122 CURVE"
);
},
{
closed = 1;
nodes = (
"238 479 LINE",
"315 500 OFFCURVE",
"366 532 OFFCURVE",
"398 590 CURVE",
"349 667 LINE",
"290 663 LINE",
"283 620 OFFCURVE",
"248 569 OFFCURVE",
"203 535 CURVE"
);
}
);
width = 532;
}
);
leftKerningGroup = a;
note = aacute;
unicode = 00E1;
},
{
glyphname = acircumflex;
layers = (
{
layerId = "12E5A654-CA13-4855-9DF9-FF4C09D128B7";
paths = (
{
closed = 1;
nodes = (
"86 304 LINE",
"134 327 OFFCURVE",
"189 344 OFFCURVE",
"225 344 CURVE SMOOTH",
"272 344 OFFCURVE",
"298 318 OFFCURVE",
"298 262 CURVE",
"78 234 OFFCURVE",
"25 173 OFFCURVE",
"25 90 CURVE SMOOTH",
"25 20 OFFCURVE",
"85 -17 OFFCURVE",
"138 -17 CURVE SMOOTH",
"186 -17 OFFCURVE",
"237 0 OFFCURVE",
"304 52 CURVE",
"318 13 OFFCURVE",
"346 -4 OFFCURVE",
"373 -16 CURVE",
"527 43 LINE",
"520 99 LINE",
"487 103 OFFCURVE",
"467 121 OFFCURVE",
"467 166 CURVE SMOOTH",
"467 214 OFFCURVE",
"469 250 OFFCURVE",
"469 289 CURVE SMOOTH",
"469 389 OFFCURVE",
"412 439 OFFCURVE",
"308 439 CURVE SMOOTH",
"221 439 OFFCURVE",
"124 399 OFFCURVE",
"66 358 CURVE"
);
},
{
closed = 1;
nodes = (
"269 97 OFFCURVE",
"243 93 OFFCURVE",
"221 93 CURVE SMOOTH",
"197 93 OFFCURVE",
"185 112 OFFCURVE",
"185 134 CURVE SMOOTH",
"185 170 OFFCURVE",
"217 193 OFFCURVE",
"297 196 CURVE",
"297 170 OFFCURVE",
"296 146 OFFCURVE",
"296 122 CURVE"
);
},
{
closed = 1;
nodes = (
"284 662 LINE",
"168 514 LINE",
"192 484 LINE",
"296 536 LINE",
"396 485 LINE",
"432 514 LINE",
"341 662 LINE"
);
}
);
width = 532;
}
);
leftKerningGroup = a;
note = acircumflex;
unicode = 00E2;
},
{
glyphname = adieresis;
layers = (
{
layerId = "12E5A654-CA13-4855-9DF9-FF4C09D128B7";
paths = (
{
closed = 1;
nodes = (
"86 304 LINE",
"134 327 OFFCURVE",
"189 344 OFFCURVE",
"225 344 CURVE SMOOTH",
"272 344 OFFCURVE",
"298 318 OFFCURVE",
"298 262 CURVE",
"78 234 OFFCURVE",
"25 173 OFFCURVE",
"25 90 CURVE SMOOTH",
"25 20 OFFCURVE",
"85 -17 OFFCURVE",
"138 -17 CURVE SMOOTH",
"186 -17 OFFCURVE",
"237 0 OFFCURVE",
"304 52 CURVE",
"318 13 OFFCURVE",
"346 -4 OFFCURVE",
"373 -16 CURVE",
"527 43 LINE",
"520 99 LINE",
"487 103 OFFCURVE",
"467 121 OFFCURVE",
"467 166 CURVE SMOOTH",
"467 214 OFFCURVE",
"469 250 OFFCURVE",
"469 289 CURVE SMOOTH",
"469 389 OFFCURVE",
"412 439 OFFCURVE",
"308 439 CURVE SMOOTH",
"221 439 OFFCURVE",
"124 399 OFFCURVE",
"66 358 CURVE"
);
},
{
closed = 1;
nodes = (
"269 97 OFFCURVE",
"243 93 OFFCURVE",
"221 93 CURVE SMOOTH",
"197 93 OFFCURVE",
"185 112 OFFCURVE",
"185 134 CURVE SMOOTH",
"185 170 OFFCURVE",
"217 193 OFFCURVE",
"297 196 CURVE",
"297 170 OFFCURVE",
"296 146 OFFCURVE",
"296 122 CURVE"
);
},
{
closed = 1;
nodes = (
"108 531 OFFCURVE",
"139 495 OFFCURVE",
"184 495 CURVE SMOOTH",
"230 495 OFFCURVE",
"271 536 OFFCURVE",
"271 589 CURVE SMOOTH",
"271 631 OFFCURVE",
"239 667 OFFCURVE",
"194 667 CURVE SMOOTH",
"149 667 OFFCURVE",
"108 626 OFFCURVE",
"108 574 CURVE SMOOTH"
);
},
{
closed = 1;
nodes = (
"311 528 OFFCURVE",
"342 492 OFFCURVE",
"391 492 CURVE SMOOTH",
"437 492 OFFCURVE",
"481 535 OFFCURVE",
"481 590 CURVE SMOOTH",
"481 634 OFFCURVE",
"449 670 OFFCURVE",
"400 670 CURVE SMOOTH",
"353 670 OFFCURVE",
"311 627 OFFCURVE",
"311 575 CURVE SMOOTH"
);
}
);
width = 532;
}
);
leftKerningGroup = a;
note = adieresis;
unicode = 00E4;
},
{
glyphname = agrave;
layers = (
{
layerId = "12E5A654-CA13-4855-9DF9-FF4C09D128B7";
paths = (
{
closed = 1;
nodes = (
"86 304 LINE",
"134 327 OFFCURVE",
"189 344 OFFCURVE",
"225 344 CURVE SMOOTH",
"272 344 OFFCURVE",
"298 318 OFFCURVE",
"298 262 CURVE",
"78 234 OFFCURVE",
"25 173 OFFCURVE",
"25 90 CURVE SMOOTH",
"25 20 OFFCURVE",
"85 -17 OFFCURVE",
"138 -17 CURVE SMOOTH",
"186 -17 OFFCURVE",
"237 0 OFFCURVE",
"304 52 CURVE",
"318 13 OFFCURVE",
"346 -4 OFFCURVE",
"373 -16 CURVE",
"527 43 LINE",
"520 99 LINE",
"487 103 OFFCURVE",
"467 121 OFFCURVE",
"467 166 CURVE SMOOTH",
"467 214 OFFCURVE",
"469 250 OFFCURVE",
"469 289 CURVE SMOOTH",
"469 389 OFFCURVE",
"412 439 OFFCURVE",
"308 439 CURVE SMOOTH",
"221 439 OFFCURVE",
"124 399 OFFCURVE",
"66 358 CURVE"
);
},
{
closed = 1;
nodes = (
"269 97 OFFCURVE",
"243 93 OFFCURVE",
"221 93 CURVE SMOOTH",
"197 93 OFFCURVE",
"185 112 OFFCURVE",
"185 134 CURVE SMOOTH",
"185 170 OFFCURVE",
"217 193 OFFCURVE",
"297 196 CURVE",
"297 170 OFFCURVE",
"296 146 OFFCURVE",
"296 122 CURVE"
);
},
{
closed = 1;
nodes = (
"370 535 LINE",
"325 569 OFFCURVE",
"300 619 OFFCURVE",
"293 662 CURVE",
"239 666 LINE",
"172 600 LINE",
"191 541 OFFCURVE",
"252 500 OFFCURVE",
"329 479 CURVE"
);
}
);
width = 532;
}
);
leftKerningGroup = a;
note = agrave;
unicode = 00E0;
},
{
glyphname = atilde;
layers = (
{
layerId = "12E5A654-CA13-4855-9DF9-FF4C09D128B7";
paths = (
{
closed = 1;
nodes = (
"86 304 LINE",
"134 327 OFFCURVE",
"189 344 OFFCURVE",
"225 344 CURVE SMOOTH",
"272 344 OFFCURVE",
"298 318 OFFCURVE",
"298 262 CURVE",
"78 234 OFFCURVE",
"25 173 OFFCURVE",
"25 90 CURVE SMOOTH",
"25 20 OFFCURVE",
"85 -17 OFFCURVE",
"138 -17 CURVE SMOOTH",
"186 -17 OFFCURVE",
"237 0 OFFCURVE",
"304 52 CURVE",
"318 13 OFFCURVE",
"346 -4 OFFCURVE",
"373 -16 CURVE",
"527 43 LINE",
"520 99 LINE",
"487 103 OFFCURVE",
"467 121 OFFCURVE",
"467 166 CURVE SMOOTH",
"467 214 OFFCURVE",
"469 250 OFFCURVE",
"469 289 CURVE SMOOTH",
"469 389 OFFCURVE",
"412 439 OFFCURVE",
"308 439 CURVE SMOOTH",
"221 439 OFFCURVE",
"124 399 OFFCURVE",
"66 358 CURVE"
);
},
{
closed = 1;
nodes = (
"269 97 OFFCURVE",
"243 93 OFFCURVE",
"221 93 CURVE SMOOTH",
"197 93 OFFCURVE",
"185 112 OFFCURVE",
"185 134 CURVE SMOOTH",
"185 170 OFFCURVE",
"217 193 OFFCURVE",
"297 196 CURVE",
"297 170 OFFCURVE",
"296 146 OFFCURVE",
"296 122 CURVE"
);
},
{
closed = 1;
nodes = (
"130 514 LINE",
"148 527 OFFCURVE",
"174 544 OFFCURVE",
"199 544 CURVE SMOOTH",
"248 544 OFFCURVE",
"283 501 OFFCURVE",
"347 501 CURVE SMOOTH",
"391 501 OFFCURVE",
"457 543 OFFCURVE",
"482 593 CURVE",
"456 641 LINE",
"434 626 OFFCURVE",
"411 615 OFFCURVE",
"379 615 CURVE SMOOTH",
"331 615 OFFCURVE",
"297 657 OFFCURVE",
"241 657 CURVE SMOOTH",
"196 657 OFFCURVE",
"122 601 OFFCURVE",
"103 555 CURVE"
);
}
);
width = 532;
}
);
leftKerningGroup = a;
note = atilde;
unicode = 00E3;
},
{
glyphname = b;
layers = (
{
layerId = "12E5A654-CA13-4855-9DF9-FF4C09D128B7";
paths = (
{
closed = 1;
nodes = (
"66 7 OFFCURVE",
"180 -20 OFFCURVE",
"269 -20 CURVE SMOOTH",
"452 -20 OFFCURVE",
"570 58 OFFCURVE",
"570 237 CURVE SMOOTH",
"570 402 OFFCURVE",
"470 440 OFFCURVE",
"370 440 CURVE SMOOTH",
"320 440 OFFCURVE",
"260 421 OFFCURVE",
"212 389 CURVE",
"212 542 OFFCURVE",
"216 656 OFFCURVE",
"228 737 CURVE",
"189 756 LINE",
"149 728 OFFCURVE",
"66 692 OFFCURVE",
"-13 684 CURVE",
"-10 623 LINE",
"9 618 OFFCURVE",
"19 619 OFFCURVE",
"35 602 CURVE",
"41 541 OFFCURVE",
"42 447 OFFCURVE",
"42 326 CURVE SMOOTH",
"42 264 OFFCURVE",
"39 85 OFFCURVE",
"30 38 CURVE"
);
},
{
closed = 1;
nodes = (
"213 135 OFFCURVE",
"212 214 OFFCURVE",
"212 295 CURVE",
"234 314 OFFCURVE",
"258 323 OFFCURVE",
"280 323 CURVE SMOOTH",
"345 323 OFFCURVE",
"397 262 OFFCURVE",
"397 173 CURVE SMOOTH",
"397 97 OFFCURVE",
"345 51 OFFCURVE",
"292 51 CURVE SMOOTH",
"258 51 OFFCURVE",
"239 69 OFFCURVE",
"220 96 CURVE"
);
}
);
width = 594;
}
);
leftKerningGroup = b;
note = b;
unicode = 0062;
},
{
glyphname = c;
layers = (
{
layerId = "12E5A654-CA13-4855-9DF9-FF4C09D128B7";
paths = (
{
closed = 1;
nodes = (
"413 383 LINE",
"388 410 OFFCURVE",
"344 439 OFFCURVE",
"264 439 CURVE SMOOTH",
"128 439 OFFCURVE",
"25 340 OFFCURVE",
"25 198 CURVE SMOOTH",
"25 80 OFFCURVE",
"88 -18 OFFCURVE",
"236 -18 CURVE SMOOTH",
"311 -18 OFFCURVE",
"385 20 OFFCURVE",
"432 109 CURVE",
"400 159 LINE",
"368 134 OFFCURVE",
"326 108 OFFCURVE",
"285 108 CURVE SMOOTH",
"199 108 OFFCURVE",
"175 185 OFFCURVE",
"175 259 CURVE SMOOTH",
"175 336 OFFCURVE",
"212 366 OFFCURVE",
"255 366 CURVE SMOOTH",
"267 366 OFFCURVE",
"284 363 OFFCURVE",
"299 357 CURVE",
"345 279 LINE",
"403 284 LINE"
);
}
);
width = 447;
}
);
leftKerningGroup = c;
note = c;
unicode = 0063;
},
{
glyphname = ccedilla;
layers = (
{
layerId = "12E5A654-CA13-4855-9DF9-FF4C09D128B7";
paths = (
{
closed = 1;
nodes = (
"413 383 LINE",
"388 410 OFFCURVE",
"344 439 OFFCURVE",
"264 439 CURVE SMOOTH",
"128 439 OFFCURVE",
"25 340 OFFCURVE",
"25 198 CURVE SMOOTH",
"25 87 OFFCURVE",
"80 -6 OFFCURVE",
"210 -17 CURVE",
"210 -96 LINE",
"221 -94 OFFCURVE",
"235 -93 OFFCURVE",
"249 -93 CURVE SMOOTH",
"266 -93 OFFCURVE",
"283 -97 OFFCURVE",
"283 -109 CURVE SMOOTH",
"283 -121 OFFCURVE",
"266 -125 OFFCURVE",
"249 -125 CURVE SMOOTH",
"233 -125 OFFCURVE",
"222 -122 OFFCURVE",
"210 -118 CURVE",
"200 -168 LINE",
"217 -182 OFFCURVE",
"242 -188 OFFCURVE",
"266 -188 CURVE SMOOTH",
"315 -188 OFFCURVE",
"349 -164 OFFCURVE",
"349 -110 CURVE SMOOTH",
"349 -68 OFFCURVE",
"329 -42 OFFCURVE",
"293 -42 CURVE SMOOTH",
"281 -42 OFFCURVE",
"263 -45 OFFCURVE",
"252 -52 CURVE",
"252 -17 LINE",
"321 -12 OFFCURVE",
"388 26 OFFCURVE",
"432 109 CURVE",
"400 159 LINE",
"368 134 OFFCURVE",
"326 108 OFFCURVE",
"285 108 CURVE SMOOTH",
"199 108 OFFCURVE",
"175 185 OFFCURVE",
"175 259 CURVE SMOOTH",
"175 336 OFFCURVE",
"212 366 OFFCURVE",
"255 366 CURVE SMOOTH",
"267 366 OFFCURVE",
"284 363 OFFCURVE",
"299 357 CURVE",
"345 279 LINE",
"403 284 LINE"
);
}
);
width = 447;
}
);
leftKerningGroup = c;
note = ccedilla;
unicode = 00E7;
},
{
glyphname = d;
layers = (
{
layerId = "12E5A654-CA13-4855-9DF9-FF4C09D128B7";
paths = (
{
closed = 1;
nodes = (
"83 438 OFFCURVE",
"25 308 OFFCURVE",
"25 198 CURVE SMOOTH",
"25 77 OFFCURVE",
"96 -20 OFFCURVE",
"214 -20 CURVE SMOOTH",
"272 -20 OFFCURVE",
"331 6 OFFCURVE",
"383 45 CURVE",
"394 16 OFFCURVE",
"414 -5 OFFCURVE",
"443 -16 CURVE",
"604 32 LINE",
"598 90 LINE",
"561 97 OFFCURVE",
"546 107 OFFCURVE",
"546 147 CURVE SMOOTH",
"546 374 OFFCURVE",
"547 549 OFFCURVE",
"556 741 CURVE",
"509 747 LINE",
"459 722 OFFCURVE",
"363 687 OFFCURVE",
"315 676 CURVE",
"315 623 LINE",
"334 618 OFFCURVE",
"352 606 OFFCURVE",
"368 589 CURVE",
"373 537 OFFCURVE",
"375 492 OFFCURVE",
"376 417 CURVE",
"337 432 OFFCURVE",
"301 438 OFFCURVE",
"268 438 CURVE SMOOTH"
);
},
{
closed = 1;
nodes = (
"353 106 OFFCURVE",
"325 100 OFFCURVE",
"304 100 CURVE SMOOTH",
"239 100 OFFCURVE",
"192 162 OFFCURVE",
"192 246 CURVE SMOOTH",
"192 308 OFFCURVE",
"215 366 OFFCURVE",
"282 366 CURVE SMOOTH",
"315 366 OFFCURVE",
"352 343 OFFCURVE",
"376 310 CURVE",
"375 228 OFFCURVE",
"374 170 OFFCURVE",
"374 124 CURVE"
);
}
);
width = 606;
}
);
leftKerningGroup = d;
note = d;
unicode = 0064;
},
{
glyphname = e;
layers = (
{
layerId = "12E5A654-CA13-4855-9DF9-FF4C09D128B7";
paths = (
{
closed = 1;
nodes = (
"442 125 LINE",
"422 117 OFFCURVE",
"372 101 OFFCURVE",
"331 101 CURVE SMOOTH",
"291 101 OFFCURVE",
"219 116 OFFCURVE",
"198 190 CURVE",
"471 190 LINE",
"476 211 OFFCURVE",
"477 230 OFFCURVE",
"477 249 CURVE SMOOTH",
"477 344 OFFCURVE",
"393 438 OFFCURVE",
"260 438 CURVE SMOOTH",
"112 438 OFFCURVE",
"25 329 OFFCURVE",
"25 205 CURVE SMOOTH",
"25 85 OFFCURVE",
"101 -18 OFFCURVE",
"274 -18 CURVE SMOOTH",
"363 -18 OFFCURVE",
"441 31 OFFCURVE",
"475 76 CURVE"
);
},
{
closed = 1;
nodes = (
"287 365 OFFCURVE",
"313 324 OFFCURVE",
"313 274 CURVE",
"284 268 OFFCURVE",
"246 264 OFFCURVE",
"193 263 CURVE",
"197 315 OFFCURVE",
"214 365 OFFCURVE",
"255 365 CURVE SMOOTH"
);
}
);
width = 507;
}
);
leftKerningGroup = e;
note = e;
unicode = 0065;
},
{
glyphname = eacute;
layers = (
{
layerId = "12E5A654-CA13-4855-9DF9-FF4C09D128B7";
paths = (
{
closed = 1;
nodes = (
"442 125 LINE",
"422 117 OFFCURVE",
"372 101 OFFCURVE",
"331 101 CURVE SMOOTH",
"291 101 OFFCURVE",
"219 116 OFFCURVE",
"198 190 CURVE",
"471 190 LINE",
"476 211 OFFCURVE",
"477 230 OFFCURVE",
"477 249 CURVE SMOOTH",
"477 344 OFFCURVE",
"393 438 OFFCURVE",
"260 438 CURVE SMOOTH",
"112 438 OFFCURVE",
"25 329 OFFCURVE",
"25 205 CURVE SMOOTH",
"25 85 OFFCURVE",
"101 -18 OFFCURVE",
"274 -18 CURVE SMOOTH",
"363 -18 OFFCURVE",
"441 31 OFFCURVE",
"475 76 CURVE"
);
},
{
closed = 1;
nodes = (
"287 365 OFFCURVE",
"313 324 OFFCURVE",
"313 274 CURVE",
"284 268 OFFCURVE",
"246 264 OFFCURVE",
"193 263 CURVE",
"197 315 OFFCURVE",
"214 365 OFFCURVE",
"255 365 CURVE SMOOTH"
);
},
{
closed = 1;
nodes = (
"212 479 LINE",
"289 500 OFFCURVE",
"340 532 OFFCURVE",
"372 590 CURVE",
"323 667 LINE",
"264 663 LINE",
"257 620 OFFCURVE",
"222 569 OFFCURVE",
"177 535 CURVE"
);
}
);
width = 507;
}
);
leftKerningGroup = e;
note = eacute;
unicode = 00E9;
},
{
glyphname = ecircumflex;
layers = (
{
layerId = "12E5A654-CA13-4855-9DF9-FF4C09D128B7";
paths = (
{
closed = 1;
nodes = (
"442 125 LINE",
"422 117 OFFCURVE",
"372 101 OFFCURVE",
"331 101 CURVE SMOOTH",
"291 101 OFFCURVE",
"219 116 OFFCURVE",
"198 190 CURVE",
"471 190 LINE",
"476 211 OFFCURVE",
"477 230 OFFCURVE",
"477 249 CURVE SMOOTH",
"477 344 OFFCURVE",
"393 438 OFFCURVE",
"260 438 CURVE SMOOTH",
"112 438 OFFCURVE",
"25 329 OFFCURVE",
"25 205 CURVE SMOOTH",
"25 85 OFFCURVE",
"101 -18 OFFCURVE",
"274 -18 CURVE SMOOTH",
"363 -18 OFFCURVE",
"441 31 OFFCURVE",
"475 76 CURVE"
);
},
{
closed = 1;
nodes = (
"287 365 OFFCURVE",
"313 324 OFFCURVE",
"313 274 CURVE",
"284 268 OFFCURVE",
"246 264 OFFCURVE",
"193 263 CURVE",
"197 315 OFFCURVE",
"214 365 OFFCURVE",
"255 365 CURVE SMOOTH"
);
},
{
closed = 1;
nodes = (
"258 662 LINE",
"142 514 LINE",
"166 484 LINE",
"270 536 LINE",
"370 485 LINE",
"406 514 LINE",
"315 662 LINE"
);
}
);
width = 507;
}
);
leftKerningGroup = e;
note = ecircumflex;
unicode = 00EA;
},
{
glyphname = edieresis;
layers = (
{
layerId = "12E5A654-CA13-4855-9DF9-FF4C09D128B7";
paths = (
{
closed = 1;
nodes = (
"442 125 LINE",
"422 117 OFFCURVE",
"372 101 OFFCURVE",
"331 101 CURVE SMOOTH",
"291 101 OFFCURVE",
"219 116 OFFCURVE",
"198 190 CURVE",
"471 190 LINE",
"476 211 OFFCURVE",
"477 230 OFFCURVE",
"477 249 CURVE SMOOTH",
"477 344 OFFCURVE",
"393 438 OFFCURVE",
"260 438 CURVE SMOOTH",
"112 438 OFFCURVE",
"25 329 OFFCURVE",
"25 205 CURVE SMOOTH",
"25 85 OFFCURVE",
"101 -18 OFFCURVE",
"274 -18 CURVE SMOOTH",
"363 -18 OFFCURVE",
"441 31 OFFCURVE",
"475 76 CURVE"
);
},
{
closed = 1;
nodes = (
"287 365 OFFCURVE",
"313 324 OFFCURVE",
"313 274 CURVE",
"284 268 OFFCURVE",
"246 264 OFFCURVE",
"193 263 CURVE",
"197 315 OFFCURVE",
"214 365 OFFCURVE",
"255 365 CURVE SMOOTH"
);
},
{
closed = 1;
nodes = (
"82 531 OFFCURVE",
"113 495 OFFCURVE",
"158 495 CURVE SMOOTH",
"204 495 OFFCURVE",
"245 536 OFFCURVE",
"245 589 CURVE SMOOTH",
"245 631 OFFCURVE",
"213 667 OFFCURVE",
"168 667 CURVE SMOOTH",
"123 667 OFFCURVE",
"82 626 OFFCURVE",
"82 574 CURVE SMOOTH"
);
},
{
closed = 1;
nodes = (
"285 528 OFFCURVE",
"316 492 OFFCURVE",
"365 492 CURVE SMOOTH",
"411 492 OFFCURVE",
"455 535 OFFCURVE",
"455 590 CURVE SMOOTH",
"455 634 OFFCURVE",
"423 670 OFFCURVE",
"374 670 CURVE SMOOTH",
"327 670 OFFCURVE",
"285 627 OFFCURVE",
"285 575 CURVE SMOOTH"
);
}
);
width = 507;
}
);
leftKerningGroup = e;
note = edieresis;
unicode = 00EB;
},
{
glyphname = egrave;
layers = (
{
layerId = "12E5A654-CA13-4855-9DF9-FF4C09D128B7";
paths = (
{
closed = 1;
nodes = (
"442 125 LINE",
"422 117 OFFCURVE",
"372 101 OFFCURVE",
"331 101 CURVE SMOOTH",
"291 101 OFFCURVE",
"219 116 OFFCURVE",
"198 190 CURVE",
"471 190 LINE",
"476 211 OFFCURVE",
"477 230 OFFCURVE",
"477 249 CURVE SMOOTH",
"477 344 OFFCURVE",
"393 438 OFFCURVE",
"260 438 CURVE SMOOTH",
"112 438 OFFCURVE",
"25 329 OFFCURVE",
"25 205 CURVE SMOOTH",
"25 85 OFFCURVE",
"101 -18 OFFCURVE",
"274 -18 CURVE SMOOTH",
"363 -18 OFFCURVE",
"441 31 OFFCURVE",
"475 76 CURVE"
);
},
{
closed = 1;
nodes = (
"287 365 OFFCURVE",
"313 324 OFFCURVE",
"313 274 CURVE",
"284 268 OFFCURVE",
"246 264 OFFCURVE",
"193 263 CURVE",
"197 315 OFFCURVE",
"214 365 OFFCURVE",
"255 365 CURVE SMOOTH"
);
},
{
closed = 1;
nodes = (
"344 535 LINE",
"299 569 OFFCURVE",
"274 619 OFFCURVE",
"267 662 CURVE",
"213 666 LINE",
"146 600 LINE",
"165 541 OFFCURVE",
"226 500 OFFCURVE",
"303 479 CURVE"
);
}
);
width = 507;
}
);
leftKerningGroup = e;
note = egrave;
unicode = 00E8;
},
{
glyphname = f;
layers = (
{
layerId = "12E5A654-CA13-4855-9DF9-FF4C09D128B7";
paths = (
{
closed = 1;
nodes = (
"17 -3 LINE",
"60 1 OFFCURVE",
"113 3 OFFCURVE",
"144 3 CURVE SMOOTH",
"215 3 OFFCURVE",
"274 2 OFFCURVE",
"345 -7 CURVE",
"351 49 LINE",
"310 56 OFFCURVE",
"276 70 OFFCURVE",
"246 87 CURVE",
"244 160 OFFCURVE",
"242 243 OFFCURVE",
"242 315 CURVE",
"349 315 LINE",
"354 330 OFFCURVE",
"356 349 OFFCURVE",
"356 370 CURVE SMOOTH",
"356 391 OFFCURVE",
"353 407 OFFCURVE",
"349 420 CURVE",
"242 420 LINE",
"242 520 OFFCURVE",
"245 557 OFFCURVE",
"248 582 CURVE SMOOTH",
"254 631 OFFCURVE",
"266 664 OFFCURVE",
"288 664 CURVE",
"361 581 LINE",
"407 586 OFFCURVE",
"467 655 OFFCURVE",
"473 711 CURVE",
"453 734 OFFCURVE",
"393 760 OFFCURVE",
"344 760 CURVE SMOOTH",
"249 760 OFFCURVE",
"119 689 OFFCURVE",
"86 588 CURVE SMOOTH",
"75 555 OFFCURVE",
"66 503 OFFCURVE",
"63 418 CURVE",
"13 339 LINE",
"22 315 LINE",
"63 315 LINE",
"63 250 OFFCURVE",
"65 167 OFFCURVE",
"68 82 CURVE",
"53 65 OFFCURVE",
"34 52 OFFCURVE",
"14 45 CURVE"
);
}
);
width = 373;
}
);
leftKerningGroup = f;
note = f;
rightKerningGroup = f;
unicode = 0066;
},
{
glyphname = g;
layers = (
{
layerId = "12E5A654-CA13-4855-9DF9-FF4C09D128B7";
paths = (
{
closed = 1;
nodes = (
"141 440 OFFCURVE",
"32 362 OFFCURVE",
"32 284 CURVE SMOOTH",
"32 221 OFFCURVE",
"71 180 OFFCURVE",
"128 157 CURVE",
"85 129 OFFCURVE",
"37 89 OFFCURVE",
"37 41 CURVE SMOOTH",
"37 11 OFFCURVE",
"54 -6 OFFCURVE",
"81 -18 CURVE",
"37 -55 OFFCURVE",
"10 -89 OFFCURVE",
"10 -124 CURVE SMOOTH",
"10 -184 OFFCURVE",
"96 -220 OFFCURVE",
"188 -220 CURVE SMOOTH",
"325 -220 OFFCURVE",
"525 -170 OFFCURVE",
"525 -35 CURVE SMOOTH",
"525 144 OFFCURVE",
"197 51 OFFCURVE",
"197 115 CURVE SMOOTH",
"197 120 OFFCURVE",
"200 129 OFFCURVE",
"205 137 CURVE",
"221 135 OFFCURVE",
"238 134 OFFCURVE",
"255 134 CURVE SMOOTH",
"363 134 OFFCURVE",
"483 187 OFFCURVE",
"483 287 CURVE SMOOTH",
"483 309 OFFCURVE",
"477 329 OFFCURVE",
"467 346 CURVE",
"502 325 LINE",
"532 325 LINE",
"537 339 OFFCURVE",
"539 356 OFFCURVE",
"539 374 CURVE SMOOTH",
"539 394 OFFCURVE",
"536 409 OFFCURVE",
"532 420 CURVE",
"371 420 LINE",
"336 433 OFFCURVE",
"296 440 OFFCURVE",
"258 440 CURVE SMOOTH"
);
},
{
closed = 1;
nodes = (
"365 -122 OFFCURVE",
"311 -152 OFFCURVE",
"225 -152 CURVE SMOOTH",
"170 -152 OFFCURVE",
"140 -130 OFFCURVE",
"140 -104 CURVE SMOOTH",
"140 -85 OFFCURVE",
"146 -62 OFFCURVE",
"161 -35 CURVE",
"254 -44 OFFCURVE",
"365 -35 OFFCURVE",
"365 -87 CURVE SMOOTH"
);
},
{
closed = 1;
nodes = (
"284 372 OFFCURVE",
"319 335 OFFCURVE",
"319 285 CURVE SMOOTH",
"319 238 OFFCURVE",
"301 206 OFFCURVE",
"260 206 CURVE SMOOTH",
"225 206 OFFCURVE",
"193 235 OFFCURVE",
"193 296 CURVE SMOOTH",
"193 344 OFFCURVE",
"216 372 OFFCURVE",
"250 372 CURVE SMOOTH"
);
}
);
width = 549;
}
);
leftKerningGroup = g;
note = g;
unicode = 0067;
},
{
glyphname = h;
layers = (
{
layerId = "12E5A654-CA13-4855-9DF9-FF4C09D128B7";
paths = (
{
closed = 1;
nodes = (
"343 318 OFFCURVE",
"357 306 OFFCURVE",
"362 278 CURVE SMOOTH",
"366 257 OFFCURVE",
"367 226 OFFCURVE",
"367 191 CURVE SMOOTH",
"367 148 OFFCURVE",
"366 96 OFFCURVE",
"364 60 CURVE",
"352 53 OFFCURVE",
"340 47 OFFCURVE",
"327 43 CURVE",
"329 -6 LINE",
"371 -2 OFFCURVE",
"424 0 OFFCURVE",
"453 0 CURVE SMOOTH",
"486 0 OFFCURVE",
"529 0 OFFCURVE",
"578 -6 CURVE",
"580 45 LINE",
"561 52 OFFCURVE",
"547 61 OFFCURVE",
"534 72 CURVE",
"536 116 OFFCURVE",
"537 166 OFFCURVE",
"537 213 CURVE SMOOTH",
"537 250 OFFCURVE",
"536 304 OFFCURVE",
"530 340 CURVE SMOOTH",
"520 401 OFFCURVE",
"482 438 OFFCURVE",
"414 438 CURVE SMOOTH",
"355 438 OFFCURVE",
"286 412 OFFCURVE",
"233 374 CURVE",
"233 471 LINE SMOOTH",
"233 577 OFFCURVE",
"234 683 OFFCURVE",
"244 750 CURVE",
"202 760 LINE",
"151 735 OFFCURVE",
"70 708 OFFCURVE",
"3 700 CURVE",
"1 643 LINE",
"20 638 OFFCURVE",
"35 629 OFFCURVE",
"49 610 CURVE",
"55 545 OFFCURVE",
"62 471 OFFCURVE",
"62 355 CURVE SMOOTH",
"62 236 OFFCURVE",
"59 128 OFFCURVE",
"48 62 CURVE",
"37 55 OFFCURVE",
"25 49 OFFCURVE",
"11 45 CURVE",
"13 -6 LINE",
"60 -1 OFFCURVE",
"101 1 OFFCURVE",
"134 1 CURVE SMOOTH",
"170 1 OFFCURVE",
"236 0 OFFCURVE",
"291 -6 CURVE",
"293 48 LINE",
"273 54 OFFCURVE",
"256 61 OFFCURVE",
"241 71 CURVE",
"235 128 OFFCURVE",
"233 204 OFFCURVE",
"233 291 CURVE",
"258 307 OFFCURVE",
"298 318 OFFCURVE",
"318 318 CURVE SMOOTH"
);
}
);
width = 592;
}
);
leftKerningGroup = h;
note = h;
unicode = 0068;
},
{
glyphname = i;
layers = (
{
layerId = "12E5A654-CA13-4855-9DF9-FF4C09D128B7";
paths = (
{
closed = 1;
nodes = (
"58 297 OFFCURVE",
"60 250 OFFCURVE",
"60 197 CURVE SMOOTH",
"60 154 OFFCURVE",
"59 113 OFFCURVE",
"58 78 CURVE",
"43 67 OFFCURVE",
"26 58 OFFCURVE",
"9 51 CURVE",
"13 -6 LINE",
"54 -1 OFFCURVE",
"96 0 OFFCURVE",
"124 0 CURVE SMOOTH",
"156 0 OFFCURVE",
"212 1 OFFCURVE",
"260 -6 CURVE",
"262 50 LINE",
"243 58 OFFCURVE",
"228 67 OFFCURVE",
"215 79 CURVE",
"213 123 OFFCURVE",
"213 177 OFFCURVE",
"213 231 CURVE SMOOTH",
"213 314 OFFCURVE",
"214 377 OFFCURVE",
"219 432 CURVE",
"182 439 LINE",
"135 423 OFFCURVE",
"55 416 OFFCURVE",
"11 414 CURVE",
"8 357 LINE",
"27 352 OFFCURVE",
"39 345 OFFCURVE",
"53 331 CURVE"
);
},
{
closed = 1;
nodes = (
"43 512 OFFCURVE",
"78 474 OFFCURVE",
"130 474 CURVE SMOOTH",
"183 474 OFFCURVE",
"231 518 OFFCURVE",
"231 575 CURVE SMOOTH",
"231 623 OFFCURVE",
"194 661 OFFCURVE",
"143 661 CURVE SMOOTH",
"90 661 OFFCURVE",
"43 616 OFFCURVE",
"43 561 CURVE SMOOTH"
);
}
);
width = 268;
}
);
leftKerningGroup = dotlessi;
note = i;
unicode = 0069;
},
{
glyphname = dotlessi;
layers = (
{
layerId = "12E5A654-CA13-4855-9DF9-FF4C09D128B7";
paths = (
{
closed = 1;
nodes = (
"58 297 OFFCURVE",
"60 250 OFFCURVE",
"60 197 CURVE SMOOTH",
"60 154 OFFCURVE",
"59 113 OFFCURVE",
"58 78 CURVE",
"43 67 OFFCURVE",
"26 58 OFFCURVE",
"9 51 CURVE",
"13 -6 LINE",
"54 -1 OFFCURVE",
"96 0 OFFCURVE",
"124 0 CURVE SMOOTH",
"156 0 OFFCURVE",
"212 1 OFFCURVE",
"260 -6 CURVE",
"262 50 LINE",
"243 58 OFFCURVE",
"228 67 OFFCURVE",
"215 79 CURVE",
"213 123 OFFCURVE",
"213 177 OFFCURVE",
"213 231 CURVE SMOOTH",
"213 314 OFFCURVE",
"214 377 OFFCURVE",
"219 432 CURVE",
"182 439 LINE",
"135 423 OFFCURVE",
"55 416 OFFCURVE",
"11 414 CURVE",
"8 357 LINE",
"27 352 OFFCURVE",
"39 345 OFFCURVE",
"53 331 CURVE"
);
}
);
width = 268;
}
);
leftKerningGroup = dotlessi;
note = dotlessi;
unicode = 0131;
},
{
glyphname = iacute;
layers = (
{
layerId = "12E5A654-CA13-4855-9DF9-FF4C09D128B7";
paths = (
{
closed = 1;
nodes = (
"58 297 OFFCURVE",
"60 250 OFFCURVE",
"60 197 CURVE SMOOTH",
"60 154 OFFCURVE",
"59 113 OFFCURVE",
"58 78 CURVE",
"43 67 OFFCURVE",
"26 58 OFFCURVE",
"9 51 CURVE",
"13 -6 LINE",
"54 -1 OFFCURVE",
"96 0 OFFCURVE",
"124 0 CURVE SMOOTH",
"156 0 OFFCURVE",
"212 1 OFFCURVE",
"260 -6 CURVE",
"262 50 LINE",
"243 58 OFFCURVE",
"228 67 OFFCURVE",
"215 79 CURVE",
"213 123 OFFCURVE",
"213 177 OFFCURVE",
"213 231 CURVE SMOOTH",
"213 314 OFFCURVE",
"214 377 OFFCURVE",
"219 432 CURVE",
"182 439 LINE",
"135 423 OFFCURVE",
"55 416 OFFCURVE",
"11 414 CURVE",
"8 357 LINE",
"27 352 OFFCURVE",
"39 345 OFFCURVE",
"53 331 CURVE"
);
},
{
closed = 1;
nodes = (
"84 479 LINE",
"161 500 OFFCURVE",
"212 532 OFFCURVE",
"244 590 CURVE",
"195 667 LINE",
"136 663 LINE",
"129 620 OFFCURVE",
"94 569 OFFCURVE",
"49 535 CURVE"
);
}
);
width = 268;
}
);
leftKerningGroup = dotlessi;
note = iacute;
unicode = 00ED;
},
{
glyphname = icircumflex;
layers = (
{
layerId = "12E5A654-CA13-4855-9DF9-FF4C09D128B7";
paths = (
{
closed = 1;
nodes = (
"58 297 OFFCURVE",
"60 250 OFFCURVE",
"60 197 CURVE SMOOTH",
"60 154 OFFCURVE",
"59 113 OFFCURVE",
"58 78 CURVE",
"43 67 OFFCURVE",
"26 58 OFFCURVE",
"9 51 CURVE",
"13 -6 LINE",
"54 -1 OFFCURVE",
"96 0 OFFCURVE",
"124 0 CURVE SMOOTH",
"156 0 OFFCURVE",
"212 1 OFFCURVE",
"260 -6 CURVE",
"262 50 LINE",
"243 58 OFFCURVE",
"228 67 OFFCURVE",
"215 79 CURVE",
"213 123 OFFCURVE",
"213 177 OFFCURVE",
"213 231 CURVE SMOOTH",
"213 314 OFFCURVE",
"214 377 OFFCURVE",
"219 432 CURVE",
"182 439 LINE",
"135 423 OFFCURVE",
"55 416 OFFCURVE",
"11 414 CURVE",
"8 357 LINE",
"27 352 OFFCURVE",
"39 345 OFFCURVE",
"53 331 CURVE"
);
},
{
closed = 1;
nodes = (
"130 662 LINE",
"14 514 LINE",
"38 484 LINE",
"142 536 LINE",
"242 485 LINE",
"278 514 LINE",
"187 662 LINE"
);
}
);
width = 268;
}
);
leftKerningGroup = dotlessi;
note = icircumflex;
unicode = 00EE;
},
{
glyphname = idieresis;
layers = (
{
layerId = "12E5A654-CA13-4855-9DF9-FF4C09D128B7";
paths = (
{
closed = 1;
nodes = (
"58 297 OFFCURVE",
"60 250 OFFCURVE",
"60 197 CURVE SMOOTH",
"60 154 OFFCURVE",
"59 113 OFFCURVE",
"58 78 CURVE",
"43 67 OFFCURVE",
"26 58 OFFCURVE",
"9 51 CURVE",
"13 -6 LINE",
"54 -1 OFFCURVE",
"96 0 OFFCURVE",
"124 0 CURVE SMOOTH",
"156 0 OFFCURVE",
"212 1 OFFCURVE",
"260 -6 CURVE",
"262 50 LINE",
"243 58 OFFCURVE",
"228 67 OFFCURVE",
"215 79 CURVE",
"213 123 OFFCURVE",
"213 177 OFFCURVE",
"213 231 CURVE SMOOTH",
"213 314 OFFCURVE",
"214 377 OFFCURVE",
"219 432 CURVE",
"182 439 LINE",
"135 423 OFFCURVE",
"55 416 OFFCURVE",
"11 414 CURVE",
"8 357 LINE",
"27 352 OFFCURVE",
"39 345 OFFCURVE",
"53 331 CURVE"
);
},
{
closed = 1;
nodes = (
"-46 531 OFFCURVE",
"-15 495 OFFCURVE",
"30 495 CURVE SMOOTH",
"76 495 OFFCURVE",
"117 536 OFFCURVE",
"117 589 CURVE SMOOTH",
"117 631 OFFCURVE",
"85 667 OFFCURVE",
"40 667 CURVE SMOOTH",
"-5 667 OFFCURVE",
"-46 626 OFFCURVE",
"-46 574 CURVE SMOOTH"
);
},
{
closed = 1;
nodes = (
"157 528 OFFCURVE",
"188 492 OFFCURVE",
"237 492 CURVE SMOOTH",
"283 492 OFFCURVE",
"327 535 OFFCURVE",
"327 590 CURVE SMOOTH",
"327 634 OFFCURVE",
"295 670 OFFCURVE",
"246 670 CURVE SMOOTH",
"199 670 OFFCURVE",
"157 627 OFFCURVE",
"157 575 CURVE SMOOTH"
);
}
);
width = 268;
}
);
leftKerningGroup = dotlessi;
note = idieresis;
unicode = 00EF;
},
{
glyphname = igrave;
layers = (
{
layerId = "12E5A654-CA13-4855-9DF9-FF4C09D128B7";
paths = (
{
closed = 1;
nodes = (
"58 297 OFFCURVE",
"60 250 OFFCURVE",
"60 197 CURVE SMOOTH",
"60 154 OFFCURVE",
"59 113 OFFCURVE",
"58 78 CURVE",
"43 67 OFFCURVE",
"26 58 OFFCURVE",
"9 51 CURVE",
"13 -6 LINE",
"54 -1 OFFCURVE",
"96 0 OFFCURVE",
"124 0 CURVE SMOOTH",
"156 0 OFFCURVE",
"212 1 OFFCURVE",
"260 -6 CURVE",
"262 50 LINE",
"243 58 OFFCURVE",
"228 67 OFFCURVE",
"215 79 CURVE",
"213 123 OFFCURVE",
"213 177 OFFCURVE",
"213 231 CURVE SMOOTH",
"213 314 OFFCURVE",
"214 377 OFFCURVE",
"219 432 CURVE",
"182 439 LINE",
"135 423 OFFCURVE",
"55 416 OFFCURVE",
"11 414 CURVE",
"8 357 LINE",
"27 352 OFFCURVE",
"39 345 OFFCURVE",
"53 331 CURVE"
);
},
{
closed = 1;
nodes = (
"216 535 LINE",
"171 569 OFFCURVE",
"146 619 OFFCURVE",
"139 662 CURVE",
"85 666 LINE",
"18 600 LINE",
"37 541 OFFCURVE",
"98 500 OFFCURVE",
"175 479 CURVE"
);
}
);
width = 268;
}
);
leftKerningGroup = dotlessi;
note = igrave;
unicode = 00EC;
},
{
glyphname = j;
layers = (
{
layerId = "12E5A654-CA13-4855-9DF9-FF4C09D128B7";
paths = (
{
closed = 1;
nodes = (
"222 73 OFFCURVE",
"215 136 OFFCURVE",
"215 206 CURVE SMOOTH",
"215 292 OFFCURVE",
"216 377 OFFCURVE",
"221 432 CURVE",
"183 439 LINE",
"147 424 OFFCURVE",
"49 416 OFFCURVE",
"12 414 CURVE",
"9 357 LINE",
"28 352 OFFCURVE",
"41 344 OFFCURVE",
"54 331 CURVE",
"60 287 OFFCURVE",
"61 194 OFFCURVE",
"61 76 CURVE SMOOTH",
"61 -11 OFFCURVE",
"60 -83 OFFCURVE",
"51 -119 CURVE SMOOTH",
"47 -135 OFFCURVE",
"37 -149 OFFCURVE",
"17 -149 CURVE SMOOTH",
"-12 -149 OFFCURVE",
"-31 -102 OFFCURVE",
"-38 -81 CURVE",
"-85 -77 OFFCURVE",
"-155 -126 OFFCURVE",
"-163 -167 CURVE",
"-138 -210 OFFCURVE",
"-84 -218 OFFCURVE",
"-10 -218 CURVE SMOOTH",
"108 -218 OFFCURVE",
"222 -159 OFFCURVE",
"222 7 CURVE SMOOTH"
);
},
{
closed = 1;
nodes = (
"47 512 OFFCURVE",
"82 474 OFFCURVE",
"134 474 CURVE SMOOTH",
"187 474 OFFCURVE",
"235 518 OFFCURVE",
"235 575 CURVE SMOOTH",
"235 623 OFFCURVE",
"198 661 OFFCURVE",
"147 661 CURVE SMOOTH",
"94 661 OFFCURVE",
"47 616 OFFCURVE",
"47 561 CURVE SMOOTH"
);
}
);
width = 270;
}
);
leftKerningGroup = uni0237;
note = j;
unicode = 006A;
},
{
glyphname = uni0237;
layers = (
{
layerId = "12E5A654-CA13-4855-9DF9-FF4C09D128B7";
paths = (
{
closed = 1;
nodes = (
"222 73 OFFCURVE",
"215 136 OFFCURVE",
"215 206 CURVE SMOOTH",
"215 292 OFFCURVE",
"216 377 OFFCURVE",
"221 432 CURVE",
"183 439 LINE",
"147 424 OFFCURVE",
"49 416 OFFCURVE",
"12 414 CURVE",
"9 357 LINE",
"28 352 OFFCURVE",
"41 344 OFFCURVE",
"54 331 CURVE",
"60 287 OFFCURVE",
"61 194 OFFCURVE",
"61 76 CURVE SMOOTH",
"61 -11 OFFCURVE",
"60 -83 OFFCURVE",
"51 -119 CURVE SMOOTH",
"47 -135 OFFCURVE",
"37 -149 OFFCURVE",
"17 -149 CURVE SMOOTH",
"-12 -149 OFFCURVE",
"-31 -102 OFFCURVE",
"-38 -81 CURVE",
"-85 -77 OFFCURVE",
"-155 -126 OFFCURVE",
"-163 -167 CURVE",
"-138 -210 OFFCURVE",
"-84 -218 OFFCURVE",
"-10 -218 CURVE SMOOTH",
"108 -218 OFFCURVE",
"222 -159 OFFCURVE",
"222 7 CURVE SMOOTH"
);
}
);
width = 270;
}
);
leftKerningGroup = uni0237;
note = uni0237;
unicode = 0237;
},
{
glyphname = k;
layers = (
{
layerId = "12E5A654-CA13-4855-9DF9-FF4C09D128B7";
paths = (
{
closed = 1;
nodes = (
"21 -3 LINE",
"55 0 OFFCURVE",
"121 1 OFFCURVE",
"145 1 CURVE SMOOTH",
"172 1 OFFCURVE",
"252 1 OFFCURVE",
"292 -3 CURVE",
"294 50 LINE",
"277 56 OFFCURVE",
"264 64 OFFCURVE",
"252 75 CURVE",
"248 110 OFFCURVE",
"245 152 OFFCURVE",
"243 199 CURVE",
"288 164 OFFCURVE",
"328 123 OFFCURVE",
"366 70 CURVE",
"386 -5 LINE",
"414 -2 OFFCURVE",
"457 0 OFFCURVE",
"507 0 CURVE SMOOTH",
"528 0 OFFCURVE",
"593 -2 OFFCURVE",
"627 -5 CURVE",
"632 51 LINE",
"577 82 LINE",
"525 145 OFFCURVE",
"439 224 OFFCURVE",
"389 269 CURVE",
"465 342 LINE",
"499 353 OFFCURVE",
"534 360 OFFCURVE",
"563 363 CURVE",
"559 428 LINE",
"519 423 OFFCURVE",
"468 420 OFFCURVE",
"431 420 CURVE SMOOTH",
"398 420 OFFCURVE",
"349 422 OFFCURVE",
"307 428 CURVE",
"296 385 LINE",
"313 373 OFFCURVE",
"332 360 OFFCURVE",
"346 342 CURVE",
"315 306 OFFCURVE",
"278 268 OFFCURVE",
"242 242 CURVE",
"241 281 OFFCURVE",
"240 323 OFFCURVE",
"240 367 CURVE SMOOTH",
"240 438 OFFCURVE",
"238 514 OFFCURVE",
"238 584 CURVE SMOOTH",
"238 649 OFFCURVE",
"240 707 OFFCURVE",
"246 750 CURVE",
"204 760 LINE",
"153 735 OFFCURVE",
"79 708 OFFCURVE",
"12 700 CURVE",
"10 643 LINE",
"29 638 OFFCURVE",
"44 629 OFFCURVE",
"58 610 CURVE",
"64 545 OFFCURVE",
"70 471 OFFCURVE",
"70 355 CURVE SMOOTH",
"70 244 OFFCURVE",
"68 142 OFFCURVE",
"59 75 CURVE",
"48 62 OFFCURVE",
"35 53 OFFCURVE",
"19 48 CURVE"
);
}
);
width = 642;
}
);
leftKerningGroup = k;
note = k;
rightKerningGroup = k;
unicode = 006B;
},
{
glyphname = l;
layers = (
{
layerId = "12E5A654-CA13-4855-9DF9-FF4C09D128B7";
paths = (
{
closed = 1;
nodes = (
"12 -3 LINE",
"46 0 OFFCURVE",
"75 2 OFFCURVE",
"99 2 CURVE SMOOTH",
"126 2 OFFCURVE",
"250 1 OFFCURVE",
"290 -3 CURVE",
"292 50 LINE",
"275 56 OFFCURVE",
"262 64 OFFCURVE",
"250 75 CURVE",
"242 147 OFFCURVE",
"238 250 OFFCURVE",
"238 367 CURVE SMOOTH",
"238 438 OFFCURVE",
"236 514 OFFCURVE",
"236 584 CURVE SMOOTH",
"236 649 OFFCURVE",
"238 707 OFFCURVE",
"244 750 CURVE",
"202 760 LINE",
"151 735 OFFCURVE",
"70 708 OFFCURVE",
"3 700 CURVE",
"1 643 LINE",
"20 638 OFFCURVE",
"35 629 OFFCURVE",
"49 610 CURVE",
"55 545 OFFCURVE",
"61 471 OFFCURVE",
"61 355 CURVE SMOOTH",
"61 244 OFFCURVE",
"59 142 OFFCURVE",
"50 75 CURVE",
"39 62 OFFCURVE",
"26 53 OFFCURVE",
"10 48 CURVE"
);
}
);
width = 301;
}
);
note = l;
unicode = 006C;
},
{
glyphname = m;
layers = (
{
layerId = "12E5A654-CA13-4855-9DF9-FF4C09D128B7";
paths = (
{
closed = 1;
nodes = (
"318 312 OFFCURVE",
"332 300 OFFCURVE",
"337 272 CURVE SMOOTH",
"341 251 OFFCURVE",
"342 220 OFFCURVE",
"342 185 CURVE SMOOTH",
"342 141 OFFCURVE",
"341 95 OFFCURVE",
"339 62 CURVE",
"327 54 OFFCURVE",
"313 48 OFFCURVE",
"300 43 CURVE",
"302 -6 LINE",
"342 -2 OFFCURVE",
"392 0 OFFCURVE",
"420 0 CURVE SMOOTH",
"451 0 OFFCURVE",
"498 0 OFFCURVE",
"545 -6 CURVE",
"547 46 LINE",
"532 52 OFFCURVE",
"520 58 OFFCURVE",
"509 66 CURVE",
"510 110 OFFCURVE",
"512 157 OFFCURVE",
"512 207 CURVE SMOOTH",
"512 230 OFFCURVE",
"512 260 OFFCURVE",
"510 288 CURVE",
"531 301 OFFCURVE",
"554 308 OFFCURVE",
"572 308 CURVE SMOOTH",
"597 308 OFFCURVE",
"611 296 OFFCURVE",
"616 268 CURVE SMOOTH",
"620 247 OFFCURVE",
"621 216 OFFCURVE",
"621 181 CURVE SMOOTH",
"621 138 OFFCURVE",
"620 93 OFFCURVE",
"618 60 CURVE",
"606 53 OFFCURVE",
"594 47 OFFCURVE",
"581 43 CURVE",
"583 -6 LINE",
"625 -2 OFFCURVE",
"678 0 OFFCURVE",
"707 0 CURVE SMOOTH",
"740 0 OFFCURVE",
"783 0 OFFCURVE",
"832 -6 CURVE",
"834 45 LINE",
"815 52 OFFCURVE",
"801 61 OFFCURVE",
"788 72 CURVE",
"790 113 OFFCURVE",
"791 156 OFFCURVE",
"791 203 CURVE SMOOTH",
"791 240 OFFCURVE",
"789 294 OFFCURVE",
"784 330 CURVE",
"773 391 OFFCURVE",
"746 428 OFFCURVE",
"678 428 CURVE SMOOTH",
"620 428 OFFCURVE",
"551 400 OFFCURVE",
"498 362 CURVE",
"484 406 OFFCURVE",
"455 432 OFFCURVE",
"399 432 CURVE SMOOTH",
"344 432 OFFCURVE",
"280 406 OFFCURVE",
"228 372 CURVE",
"214 433 LINE",
"174 440 LINE",
"141 428 OFFCURVE",
"58 403 OFFCURVE",
"16 397 CURVE",
"10 344 LINE",
"29 339 OFFCURVE",
"40 331 OFFCURVE",
"52 318 CURVE",
"56 285 OFFCURVE",
"60 255 OFFCURVE",
"60 202 CURVE SMOOTH",
"60 154 OFFCURVE",
"59 105 OFFCURVE",
"57 68 CURVE",
"44 59 OFFCURVE",
"30 51 OFFCURVE",
"16 46 CURVE",
"18 -6 LINE",
"59 -1 OFFCURVE",
"104 1 OFFCURVE",
"133 1 CURVE SMOOTH",
"165 1 OFFCURVE",
"213 0 OFFCURVE",
"261 -6 CURVE",
"263 49 LINE",
"253 53 OFFCURVE",
"244 57 OFFCURVE",
"237 62 CURVE",
"231 104 OFFCURVE",
"229 150 OFFCURVE",
"229 199 CURVE SMOOTH",
"229 234 OFFCURVE",
"230 266 OFFCURVE",
"233 293 CURVE",
"254 306 OFFCURVE",
"275 312 OFFCURVE",
"293 312 CURVE SMOOTH"
);
}
);
width = 846;
}
);
leftKerningGroup = n;
note = m;
unicode = 006D;
},
{
glyphname = n;
layers = (
{
layerId = "12E5A654-CA13-4855-9DF9-FF4C09D128B7";
paths = (
{
closed = 1;
nodes = (
"328 308 OFFCURVE",
"342 296 OFFCURVE",
"347 268 CURVE SMOOTH",
"351 247 OFFCURVE",
"352 216 OFFCURVE",
"352 181 CURVE SMOOTH",
"352 138 OFFCURVE",
"351 93 OFFCURVE",
"349 60 CURVE",
"337 53 OFFCURVE",
"325 47 OFFCURVE",
"312 43 CURVE",
"314 -6 LINE",
"356 -2 OFFCURVE",
"409 0 OFFCURVE",
"438 0 CURVE SMOOTH",
"471 0 OFFCURVE",
"514 0 OFFCURVE",
"563 -6 CURVE",
"565 45 LINE",
"546 52 OFFCURVE",
"532 61 OFFCURVE",
"519 72 CURVE",
"521 113 OFFCURVE",
"522 156 OFFCURVE",
"522 203 CURVE SMOOTH",
"522 240 OFFCURVE",
"521 294 OFFCURVE",
"515 330 CURVE SMOOTH",
"505 391 OFFCURVE",
"467 428 OFFCURVE",
"399 428 CURVE SMOOTH",
"342 428 OFFCURVE",
"281 400 OFFCURVE",
"230 363 CURVE",
"214 433 LINE",
"174 440 LINE",
"141 428 OFFCURVE",
"58 403 OFFCURVE",
"16 397 CURVE",
"10 344 LINE",
"29 339 OFFCURVE",
"40 331 OFFCURVE",
"52 318 CURVE",
"56 285 OFFCURVE",
"60 255 OFFCURVE",
"60 202 CURVE SMOOTH",
"60 154 OFFCURVE",
"59 105 OFFCURVE",
"57 68 CURVE",
"44 59 OFFCURVE",
"30 51 OFFCURVE",
"16 46 CURVE",
"18 -6 LINE",
"59 -1 OFFCURVE",
"104 1 OFFCURVE",
"133 1 CURVE SMOOTH",
"165 1 OFFCURVE",
"223 0 OFFCURVE",
"271 -6 CURVE",
"273 49 LINE",
"259 54 OFFCURVE",
"247 60 OFFCURVE",
"236 67 CURVE",
"231 108 OFFCURVE",
"229 152 OFFCURVE",
"229 199 CURVE SMOOTH",
"229 229 OFFCURVE",
"230 257 OFFCURVE",
"232 282 CURVE",
"256 299 OFFCURVE",
"282 308 OFFCURVE",
"303 308 CURVE SMOOTH"
);
}
);
width = 577;
}
);
leftKerningGroup = n;
note = n;
unicode = 006E;
},
{
glyphname = ntilde;
layers = (
{
layerId = "12E5A654-CA13-4855-9DF9-FF4C09D128B7";
paths = (
{
closed = 1;
nodes = (
"328 308 OFFCURVE",
"342 296 OFFCURVE",
"347 268 CURVE SMOOTH",
"351 247 OFFCURVE",
"352 216 OFFCURVE",
"352 181 CURVE SMOOTH",
"352 138 OFFCURVE",
"351 93 OFFCURVE",
"349 60 CURVE",
"337 53 OFFCURVE",
"325 47 OFFCURVE",
"312 43 CURVE",
"314 -6 LINE",
"356 -2 OFFCURVE",
"409 0 OFFCURVE",
"438 0 CURVE SMOOTH",
"471 0 OFFCURVE",
"514 0 OFFCURVE",
"563 -6 CURVE",
"565 45 LINE",
"546 52 OFFCURVE",
"532 61 OFFCURVE",
"519 72 CURVE",
"521 113 OFFCURVE",
"522 156 OFFCURVE",
"522 203 CURVE SMOOTH",
"522 240 OFFCURVE",
"521 294 OFFCURVE",
"515 330 CURVE SMOOTH",
"505 391 OFFCURVE",
"467 428 OFFCURVE",
"399 428 CURVE SMOOTH",
"342 428 OFFCURVE",
"281 400 OFFCURVE",
"230 363 CURVE",
"214 433 LINE",
"174 440 LINE",
"141 428 OFFCURVE",
"58 403 OFFCURVE",
"16 397 CURVE",
"10 344 LINE",
"29 339 OFFCURVE",
"40 331 OFFCURVE",
"52 318 CURVE",
"56 285 OFFCURVE",
"60 255 OFFCURVE",
"60 202 CURVE SMOOTH",
"60 154 OFFCURVE",
"59 105 OFFCURVE",
"57 68 CURVE",
"44 59 OFFCURVE",
"30 51 OFFCURVE",
"16 46 CURVE",
"18 -6 LINE",
"59 -1 OFFCURVE",
"104 1 OFFCURVE",
"133 1 CURVE SMOOTH",
"165 1 OFFCURVE",
"223 0 OFFCURVE",
"271 -6 CURVE",
"273 49 LINE",
"259 54 OFFCURVE",
"247 60 OFFCURVE",
"236 67 CURVE",
"231 108 OFFCURVE",
"229 152 OFFCURVE",
"229 199 CURVE SMOOTH",
"229 229 OFFCURVE",
"230 257 OFFCURVE",
"232 282 CURVE",
"256 299 OFFCURVE",
"282 308 OFFCURVE",
"303 308 CURVE SMOOTH"
);
},
{
closed = 1;
nodes = (
"125 514 LINE",
"143 527 OFFCURVE",
"169 544 OFFCURVE",
"194 544 CURVE SMOOTH",
"243 544 OFFCURVE",
"278 501 OFFCURVE",
"342 501 CURVE SMOOTH",
"386 501 OFFCURVE",
"452 543 OFFCURVE",
"477 593 CURVE",
"451 641 LINE",
"429 626 OFFCURVE",
"406 615 OFFCURVE",
"374 615 CURVE SMOOTH",
"326 615 OFFCURVE",
"292 657 OFFCURVE",
"236 657 CURVE SMOOTH",
"191 657 OFFCURVE",
"117 601 OFFCURVE",
"98 555 CURVE"
);
}
);
width = 577;
}
);
leftKerningGroup = n;
note = ntilde;
unicode = 00F1;
},
{
glyphname = o;
layers = (
{
layerId = "12E5A654-CA13-4855-9DF9-FF4C09D128B7";
paths = (
{
closed = 1;
nodes = (
"25 90 OFFCURVE",
"108 -19 OFFCURVE",
"289 -19 CURVE SMOOTH",
"444 -19 OFFCURVE",
"565 69 OFFCURVE",
"565 210 CURVE SMOOTH",
"565 340 OFFCURVE",
"457 440 OFFCURVE",
"298 440 CURVE SMOOTH",
"132 440 OFFCURVE",
"25 332 OFFCURVE",
"25 209 CURVE SMOOTH"
);
},
{
closed = 1;
nodes = (
"347 366 OFFCURVE",
"389 277 OFFCURVE",
"389 196 CURVE SMOOTH",
"389 116 OFFCURVE",
"362 51 OFFCURVE",
"303 51 CURVE SMOOTH",
"240 51 OFFCURVE",
"205 130 OFFCURVE",
"205 212 CURVE SMOOTH",
"205 291 OFFCURVE",
"229 366 OFFCURVE",
"292 366 CURVE SMOOTH"
);
}
);
width = 590;
}
);
leftKerningGroup = o;
note = o;
unicode = 006F;
},
{
glyphname = oacute;
layers = (
{
layerId = "12E5A654-CA13-4855-9DF9-FF4C09D128B7";
paths = (
{
closed = 1;
nodes = (
"25 90 OFFCURVE",
"108 -19 OFFCURVE",
"289 -19 CURVE SMOOTH",
"444 -19 OFFCURVE",
"565 69 OFFCURVE",
"565 210 CURVE SMOOTH",
"565 340 OFFCURVE",
"457 440 OFFCURVE",
"298 440 CURVE SMOOTH",
"132 440 OFFCURVE",
"25 332 OFFCURVE",
"25 209 CURVE SMOOTH"
);
},
{
closed = 1;
nodes = (
"347 366 OFFCURVE",
"389 277 OFFCURVE",
"389 196 CURVE SMOOTH",
"389 116 OFFCURVE",
"362 51 OFFCURVE",
"303 51 CURVE SMOOTH",
"240 51 OFFCURVE",
"205 130 OFFCURVE",
"205 212 CURVE SMOOTH",
"205 291 OFFCURVE",
"229 366 OFFCURVE",
"292 366 CURVE SMOOTH"
);
},
{
closed = 1;
nodes = (
"244 479 LINE",
"321 500 OFFCURVE",
"372 532 OFFCURVE",
"404 590 CURVE",
"355 667 LINE",
"296 663 LINE",
"289 620 OFFCURVE",
"254 569 OFFCURVE",
"209 535 CURVE"
);
}
);
width = 590;
}
);
leftKerningGroup = o;
note = oacute;
unicode = 00F3;
},
{
glyphname = ocircumflex;
layers = (
{
layerId = "12E5A654-CA13-4855-9DF9-FF4C09D128B7";
paths = (
{
closed = 1;
nodes = (
"25 90 OFFCURVE",
"108 -19 OFFCURVE",
"289 -19 CURVE SMOOTH",
"444 -19 OFFCURVE",
"565 69 OFFCURVE",
"565 210 CURVE SMOOTH",
"565 340 OFFCURVE",
"457 440 OFFCURVE",
"298 440 CURVE SMOOTH",
"132 440 OFFCURVE",
"25 332 OFFCURVE",
"25 209 CURVE SMOOTH"
);
},
{
closed = 1;
nodes = (
"347 366 OFFCURVE",
"389 277 OFFCURVE",
"389 196 CURVE SMOOTH",
"389 116 OFFCURVE",
"362 51 OFFCURVE",
"303 51 CURVE SMOOTH",
"240 51 OFFCURVE",
"205 130 OFFCURVE",
"205 212 CURVE SMOOTH",
"205 291 OFFCURVE",
"229 366 OFFCURVE",
"292 366 CURVE SMOOTH"
);
},
{
closed = 1;
nodes = (
"290 662 LINE",
"174 514 LINE",
"198 484 LINE",
"302 536 LINE",
"402 485 LINE",
"438 514 LINE",
"347 662 LINE"
);
}
);
width = 590;
}
);
leftKerningGroup = o;
note = ocircumflex;
unicode = 00F4;
},
{
glyphname = odieresis;
layers = (
{
layerId = "12E5A654-CA13-4855-9DF9-FF4C09D128B7";
paths = (
{
closed = 1;
nodes = (
"25 90 OFFCURVE",
"108 -19 OFFCURVE",
"289 -19 CURVE SMOOTH",
"444 -19 OFFCURVE",
"565 69 OFFCURVE",
"565 210 CURVE SMOOTH",
"565 340 OFFCURVE",
"457 440 OFFCURVE",
"298 440 CURVE SMOOTH",
"132 440 OFFCURVE",
"25 332 OFFCURVE",
"25 209 CURVE SMOOTH"
);
},
{
closed = 1;
nodes = (
"347 366 OFFCURVE",
"389 277 OFFCURVE",
"389 196 CURVE SMOOTH",
"389 116 OFFCURVE",
"362 51 OFFCURVE",
"303 51 CURVE SMOOTH",
"240 51 OFFCURVE",
"205 130 OFFCURVE",
"205 212 CURVE SMOOTH",
"205 291 OFFCURVE",
"229 366 OFFCURVE",
"292 366 CURVE SMOOTH"
);
},
{
closed = 1;
nodes = (
"114 531 OFFCURVE",
"145 495 OFFCURVE",
"190 495 CURVE SMOOTH",
"236 495 OFFCURVE",
"277 536 OFFCURVE",
"277 589 CURVE SMOOTH",
"277 631 OFFCURVE",
"245 667 OFFCURVE",
"200 667 CURVE SMOOTH",
"155 667 OFFCURVE",
"114 626 OFFCURVE",
"114 574 CURVE SMOOTH"
);
},
{
closed = 1;
nodes = (
"317 528 OFFCURVE",
"348 492 OFFCURVE",
"397 492 CURVE SMOOTH",
"443 492 OFFCURVE",
"487 535 OFFCURVE",
"487 590 CURVE SMOOTH",
"487 634 OFFCURVE",
"455 670 OFFCURVE",
"406 670 CURVE SMOOTH",
"359 670 OFFCURVE",
"317 627 OFFCURVE",
"317 575 CURVE SMOOTH"
);
}
);
width = 590;
}
);
leftKerningGroup = o;
note = odieresis;
unicode = 00F6;
},
{
glyphname = ograve;
layers = (
{
layerId = "12E5A654-CA13-4855-9DF9-FF4C09D128B7";
paths = (
{
closed = 1;
nodes = (
"25 90 OFFCURVE",
"108 -19 OFFCURVE",
"289 -19 CURVE SMOOTH",
"444 -19 OFFCURVE",
"565 69 OFFCURVE",
"565 210 CURVE SMOOTH",
"565 340 OFFCURVE",
"457 440 OFFCURVE",
"298 440 CURVE SMOOTH",
"132 440 OFFCURVE",
"25 332 OFFCURVE",
"25 209 CURVE SMOOTH"
);
},
{
closed = 1;
nodes = (
"347 366 OFFCURVE",
"389 277 OFFCURVE",
"389 196 CURVE SMOOTH",
"389 116 OFFCURVE",
"362 51 OFFCURVE",
"303 51 CURVE SMOOTH",
"240 51 OFFCURVE",
"205 130 OFFCURVE",
"205 212 CURVE SMOOTH",
"205 291 OFFCURVE",
"229 366 OFFCURVE",
"292 366 CURVE SMOOTH"
);
},
{
closed = 1;
nodes = (
"376 535 LINE",
"331 569 OFFCURVE",
"306 619 OFFCURVE",
"299 662 CURVE",
"245 666 LINE",
"178 600 LINE",
"197 541 OFFCURVE",
"258 500 OFFCURVE",
"335 479 CURVE"
);
}
);
width = 590;
}
);
leftKerningGroup = o;
note = ograve;
unicode = 00F2;
},
{
glyphname = otilde;
layers = (
{
layerId = "12E5A654-CA13-4855-9DF9-FF4C09D128B7";
paths = (
{
closed = 1;
nodes = (
"25 90 OFFCURVE",
"108 -19 OFFCURVE",
"289 -19 CURVE SMOOTH",
"444 -19 OFFCURVE",
"565 69 OFFCURVE",
"565 210 CURVE SMOOTH",
"565 340 OFFCURVE",
"457 440 OFFCURVE",
"298 440 CURVE SMOOTH",
"132 440 OFFCURVE",
"25 332 OFFCURVE",
"25 209 CURVE SMOOTH"
);
},
{
closed = 1;
nodes = (
"347 366 OFFCURVE",
"389 277 OFFCURVE",
"389 196 CURVE SMOOTH",
"389 116 OFFCURVE",
"362 51 OFFCURVE",
"303 51 CURVE SMOOTH",
"240 51 OFFCURVE",
"205 130 OFFCURVE",
"205 212 CURVE SMOOTH",
"205 291 OFFCURVE",
"229 366 OFFCURVE",
"292 366 CURVE SMOOTH"
);
},
{
closed = 1;
nodes = (
"136 514 LINE",
"154 527 OFFCURVE",
"180 544 OFFCURVE",
"205 544 CURVE SMOOTH",
"254 544 OFFCURVE",
"289 501 OFFCURVE",
"353 501 CURVE SMOOTH",
"397 501 OFFCURVE",
"463 543 OFFCURVE",
"488 593 CURVE",
"462 641 LINE",
"440 626 OFFCURVE",
"417 615 OFFCURVE",
"385 615 CURVE SMOOTH",
"337 615 OFFCURVE",
"303 657 OFFCURVE",
"247 657 CURVE SMOOTH",
"202 657 OFFCURVE",
"128 601 OFFCURVE",
"109 555 CURVE"
);
}
);
width = 590;
}
);
leftKerningGroup = o;
note = otilde;
unicode = 00F5;
},
{
glyphname = p;
layers = (
{
layerId = "12E5A654-CA13-4855-9DF9-FF4C09D128B7";
paths = (
{
closed = 1;
nodes = (
"58 254 OFFCURVE",
"62 205 OFFCURVE",
"62 117 CURVE SMOOTH",
"62 21 OFFCURVE",
"61 -78 OFFCURVE",
"57 -142 CURVE",
"45 -154 OFFCURVE",
"31 -165 OFFCURVE",
"16 -175 CURVE",
"28 -217 LINE",
"114 -191 OFFCURVE",
"223 -175 OFFCURVE",
"329 -171 CURVE",
"326 -114 LINE",
"288 -115 OFFCURVE",
"261 -109 OFFCURVE",
"238 -97 CURVE",
"236 -68 OFFCURVE",
"234 -38 OFFCURVE",
"233 -7 CURVE",
"258 -16 OFFCURVE",
"291 -20 OFFCURVE",
"322 -20 CURVE SMOOTH",
"439 -20 OFFCURVE",
"564 80 OFFCURVE",
"564 244 CURVE SMOOTH",
"564 369 OFFCURVE",
"463 440 OFFCURVE",
"389 440 CURVE SMOOTH",
"332 440 OFFCURVE",
"278 415 OFFCURVE",
"228 380 CURVE",
"216 433 LINE",
"176 440 LINE",
"143 428 OFFCURVE",
"60 403 OFFCURVE",
"18 397 CURVE",
"12 344 LINE",
"31 339 OFFCURVE",
"42 330 OFFCURVE",
"54 309 CURVE"
);
},
{
closed = 1;
nodes = (
"348 318 OFFCURVE",
"393 263 OFFCURVE",
"393 179 CURVE SMOOTH",
"393 77 OFFCURVE",
"346 48 OFFCURVE",
"308 48 CURVE SMOOTH",
"285 48 OFFCURVE",
"254 64 OFFCURVE",
"232 94 CURVE",
"232 112 LINE SMOOTH",
"232 186 OFFCURVE",
"234 251 OFFCURVE",
"238 304 CURVE",
"254 313 OFFCURVE",
"270 318 OFFCURVE",
"289 318 CURVE SMOOTH"
);
}
);
width = 589;
}
);
leftKerningGroup = p;
note = p;
unicode = 0070;
},
{
glyphname = q;
layers = (
{
layerId = "12E5A654-CA13-4855-9DF9-FF4C09D128B7";
paths = (
{
closed = 1;
nodes = (
"270 -220 LINE",
"304 -217 OFFCURVE",
"400 -214 OFFCURVE",
"424 -214 CURVE SMOOTH",
"451 -214 OFFCURVE",
"548 -216 OFFCURVE",
"588 -220 CURVE",
"590 -167 LINE",
"570 -159 OFFCURVE",
"555 -148 OFFCURVE",
"540 -133 CURVE",
"535 -68 OFFCURVE",
"532 17 OFFCURVE",
"532 99 CURVE SMOOTH",
"532 220 OFFCURVE",
"533 355 OFFCURVE",
"542 433 CURVE",
"474 439 LINE",
"457 425 OFFCURVE",
"430 413 OFFCURVE",
"404 405 CURVE",
"354 429 OFFCURVE",
"308 438 OFFCURVE",
"266 438 CURVE SMOOTH",
"83 438 OFFCURVE",
"25 301 OFFCURVE",
"25 198 CURVE SMOOTH",
"25 77 OFFCURVE",
"96 -20 OFFCURVE",
"214 -20 CURVE SMOOTH",
"265 -20 OFFCURVE",
"316 0 OFFCURVE",
"362 30 CURVE",
"361 -26 OFFCURVE",
"360 -83 OFFCURVE",
"356 -129 CURVE",
"336 -148 OFFCURVE",
"289 -162 OFFCURVE",
"268 -169 CURVE"
);
},
{
closed = 1;
nodes = (
"239 100 OFFCURVE",
"192 162 OFFCURVE",
"192 246 CURVE SMOOTH",
"192 319 OFFCURVE",
"225 366 OFFCURVE",
"284 366 CURVE SMOOTH",
"304 366 OFFCURVE",
"334 352 OFFCURVE",
"356 323 CURVE",
"359 268 OFFCURVE",
"361 191 OFFCURVE",
"362 115 CURVE",
"342 104 OFFCURVE",
"318 100 OFFCURVE",
"295 100 CURVE SMOOTH"
);
}
);
width = 587;
}
);
leftKerningGroup = d;
note = q;
unicode = 0071;
},
{
glyphname = r;
layers = (
{
layerId = "12E5A654-CA13-4855-9DF9-FF4C09D128B7";
paths = (
{
closed = 1;
nodes = (
"336 432 OFFCURVE",
"294 423 OFFCURVE",
"231 377 CURVE",
"219 433 LINE",
"179 440 LINE",
"146 428 OFFCURVE",
"63 403 OFFCURVE",
"21 397 CURVE",
"15 344 LINE",
"34 339 OFFCURVE",
"45 331 OFFCURVE",
"57 318 CURVE",
"61 285 OFFCURVE",
"65 255 OFFCURVE",
"65 202 CURVE SMOOTH",
"65 158 OFFCURVE",
"64 112 OFFCURVE",
"62 76 CURVE",
"48 62 OFFCURVE",
"32 51 OFFCURVE",
"14 45 CURVE",
"17 -3 LINE",
"60 1 OFFCURVE",
"113 3 OFFCURVE",
"144 3 CURVE SMOOTH",
"215 3 OFFCURVE",
"274 2 OFFCURVE",
"345 -7 CURVE",
"351 49 LINE",
"307 57 OFFCURVE",
"269 72 OFFCURVE",
"238 92 CURVE",
"235 126 OFFCURVE",
"234 161 OFFCURVE",
"234 199 CURVE SMOOTH",
"234 230 OFFCURVE",
"235 258 OFFCURVE",
"237 283 CURVE",
"251 304 OFFCURVE",
"265 318 OFFCURVE",
"283 318 CURVE SMOOTH",
"304 318 OFFCURVE",
"314 294 OFFCURVE",
"318 243 CURVE",
"395 237 LINE",
"456 349 LINE",
"439 413 OFFCURVE",
"406 432 OFFCURVE",
"365 432 CURVE SMOOTH"
);
}
);
width = 476;
}
);
leftKerningGroup = n;
note = r;
rightKerningGroup = r;
unicode = 0072;
},
{
glyphname = s;
layers = (
{
layerId = "12E5A654-CA13-4855-9DF9-FF4C09D128B7";
paths = (
{
closed = 1;
nodes = (
"29 149 LINE",
"26 30 LINE",
"81 -4 OFFCURVE",
"134 -19 OFFCURVE",
"222 -19 CURVE SMOOTH",
"334 -19 OFFCURVE",
"452 22 OFFCURVE",
"452 144 CURVE SMOOTH",
"452 332 OFFCURVE",
"169 258 OFFCURVE",
"169 338 CURVE SMOOTH",
"169 362 OFFCURVE",
"195 374 OFFCURVE",
"236 374 CURVE SMOOTH",
"261 374 OFFCURVE",
"288 371 OFFCURVE",
"318 360 CURVE",
"376 303 LINE",
"427 314 LINE",
"421 399 LINE",
"356 430 OFFCURVE",
"298 438 OFFCURVE",
"238 438 CURVE SMOOTH",
"101 438 OFFCURVE",
"25 373 OFFCURVE",
"25 286 CURVE SMOOTH",
"25 108 OFFCURVE",
"308 172 OFFCURVE",
"308 86 CURVE SMOOTH",
"308 60 OFFCURVE",
"290 51 OFFCURVE",
"242 51 CURVE SMOOTH",
"202 51 OFFCURVE",
"163 59 OFFCURVE",
"136 75 CURVE",
"80 151 LINE"
);
}
);
width = 472;
}
);
leftKerningGroup = s;
note = s;
unicode = 0073;
},
{
glyphname = scaron;
layers = (
{
layerId = "12E5A654-CA13-4855-9DF9-FF4C09D128B7";
paths = (
{
closed = 1;
nodes = (
"29 149 LINE",
"26 30 LINE",
"81 -4 OFFCURVE",
"134 -19 OFFCURVE",
"222 -19 CURVE SMOOTH",
"334 -19 OFFCURVE",
"452 22 OFFCURVE",
"452 144 CURVE SMOOTH",
"452 332 OFFCURVE",
"169 258 OFFCURVE",
"169 338 CURVE SMOOTH",
"169 362 OFFCURVE",
"195 374 OFFCURVE",
"236 374 CURVE SMOOTH",
"261 374 OFFCURVE",
"288 371 OFFCURVE",
"318 360 CURVE",
"376 303 LINE",
"427 314 LINE",
"421 399 LINE",
"356 430 OFFCURVE",
"298 438 OFFCURVE",
"238 438 CURVE SMOOTH",
"101 438 OFFCURVE",
"25 373 OFFCURVE",
"25 286 CURVE SMOOTH",
"25 108 OFFCURVE",
"308 172 OFFCURVE",
"308 86 CURVE SMOOTH",
"308 60 OFFCURVE",
"290 51 OFFCURVE",
"242 51 CURVE SMOOTH",
"202 51 OFFCURVE",
"163 59 OFFCURVE",
"136 75 CURVE",
"80 151 LINE"
);
},
{
closed = 1;
nodes = (
"271 494 LINE",
"387 642 LINE",
"363 672 LINE",
"259 620 LINE",
"159 671 LINE",
"123 642 LINE",
"214 494 LINE"
);
}
);
width = 472;
}
);
leftKerningGroup = s;
note = scaron;
unicode = 0161;
},
{
glyphname = germandbls;
layers = (
{
layerId = "12E5A654-CA13-4855-9DF9-FF4C09D128B7";
paths = (
{
closed = 1;
nodes = (
"17 -3 LINE",
"60 1 OFFCURVE",
"113 3 OFFCURVE",
"144 3 CURVE SMOOTH",
"170 3 OFFCURVE",
"191 2 OFFCURVE",
"262 -7 CURVE",
"268 49 LINE",
"260 51 OFFCURVE",
"253 55 OFFCURVE",
"247 59 CURVE",
"243 172 OFFCURVE",
"242 323 OFFCURVE",
"242 412 CURVE SMOOTH",
"242 519 OFFCURVE",
"245 557 OFFCURVE",
"248 582 CURVE SMOOTH",
"254 631 OFFCURVE",
"277 672 OFFCURVE",
"299 672 CURVE SMOOTH",
"331 672 OFFCURVE",
"365 617 OFFCURVE",
"365 572 CURVE SMOOTH",
"365 532 OFFCURVE",
"360 496 OFFCURVE",
"288 440 CURVE",
"291 375 LINE",
"353 306 OFFCURVE",
"429 165 OFFCURVE",
"429 123 CURVE SMOOTH",
"429 97 OFFCURVE",
"424 86 OFFCURVE",
"406 86 CURVE SMOOTH",
"384 86 OFFCURVE",
"378 119 OFFCURVE",
"369 141 CURVE",
"336 135 OFFCURVE",
"290 85 OFFCURVE",
"289 39 CURVE",
"318 6 OFFCURVE",
"361 -12 OFFCURVE",
"412 -12 CURVE SMOOTH",
"531 -12 OFFCURVE",
"591 78 OFFCURVE",
"591 188 CURVE SMOOTH",
"591 300 OFFCURVE",
"532 377 OFFCURVE",
"442 447 CURVE",
"511 495 OFFCURVE",
"525 556 OFFCURVE",
"525 593 CURVE SMOOTH",
"525 710 OFFCURVE",
"451 760 OFFCURVE",
"351 760 CURVE SMOOTH",
"238 760 OFFCURVE",
"119 689 OFFCURVE",
"86 588 CURVE SMOOTH",
"75 555 OFFCURVE",
"66 503 OFFCURVE",
"63 418 CURVE",
"13 339 LINE",
"22 315 LINE",
"63 315 LINE",
"63 250 OFFCURVE",
"65 167 OFFCURVE",
"68 82 CURVE",
"53 65 OFFCURVE",
"34 52 OFFCURVE",
"14 45 CURVE"
);
}
);
width = 630;
}
);
note = germandbls;
unicode = 00DF;
},
{
glyphname = longs;
layers = (
{
layerId = "12E5A654-CA13-4855-9DF9-FF4C09D128B7";
paths = (
{
closed = 1;
nodes = (
"17 -3 LINE",
"60 1 OFFCURVE",
"113 3 OFFCURVE",
"144 3 CURVE SMOOTH",
"215 3 OFFCURVE",
"264 2 OFFCURVE",
"335 -7 CURVE",
"341 49 LINE",
"302 56 OFFCURVE",
"272 69 OFFCURVE",
"246 85 CURVE",
"243 194 OFFCURVE",
"242 330 OFFCURVE",
"242 412 CURVE SMOOTH",
"242 519 OFFCURVE",
"245 557 OFFCURVE",
"248 582 CURVE SMOOTH",
"254 631 OFFCURVE",
"266 664 OFFCURVE",
"288 664 CURVE",
"361 581 LINE",
"407 586 OFFCURVE",
"467 655 OFFCURVE",
"473 711 CURVE",
"453 734 OFFCURVE",
"393 760 OFFCURVE",
"344 760 CURVE SMOOTH",
"249 760 OFFCURVE",
"119 689 OFFCURVE",
"86 588 CURVE SMOOTH",
"75 555 OFFCURVE",
"66 503 OFFCURVE",
"63 418 CURVE",
"13 339 LINE",
"22 315 LINE",
"63 315 LINE",
"63 250 OFFCURVE",
"65 167 OFFCURVE",
"68 82 CURVE",
"53 65 OFFCURVE",
"34 52 OFFCURVE",
"14 45 CURVE"
);
}
);
width = 353;
}
);
note = longs;
rightKerningGroup = f;
unicode = 017F;
},
{
glyphname = t;
layers = (
{
layerId = "12E5A654-CA13-4855-9DF9-FF4C09D128B7";
paths = (
{
closed = 1;
nodes = (
"164 605 LINE",
"149 539 OFFCURVE",
"108 477 OFFCURVE",
"57 416 CURVE",
"0 371 LINE",
"11 314 LINE",
"62 314 LINE",
"61 231 OFFCURVE",
"57 177 OFFCURVE",
"57 115 CURVE SMOOTH",
"57 8 OFFCURVE",
"122 -15 OFFCURVE",
"169 -15 CURVE SMOOTH",
"209 -15 OFFCURVE",
"272 0 OFFCURVE",
"312 27 CURVE",
"303 80 LINE",
"237 81 OFFCURVE",
"221 89 OFFCURVE",
"221 157 CURVE SMOOTH",
"221 314 LINE",
"306 314 LINE",
"311 330 OFFCURVE",
"313 348 OFFCURVE",
"313 369 CURVE SMOOTH",
"313 390 OFFCURVE",
"310 407 OFFCURVE",
"306 420 CURVE",
"222 420 LINE",
"224 484 OFFCURVE",
"226 544 OFFCURVE",
"231 598 CURVE"
);
}
);
width = 333;
}
);
leftKerningGroup = t;
note = t;
unicode = 0074;
},
{
glyphname = u;
layers = (
{
layerId = "12E5A654-CA13-4855-9DF9-FF4C09D128B7";
paths = (
{
closed = 1;
nodes = (
"57 264 OFFCURVE",
"56 235 OFFCURVE",
"56 163 CURVE SMOOTH",
"56 121 OFFCURVE",
"57 85 OFFCURVE",
"68 56 CURVE SMOOTH",
"84 10 OFFCURVE",
"120 -17 OFFCURVE",
"176 -17 CURVE SMOOTH",
"243 -17 OFFCURVE",
"309 1 OFFCURVE",
"362 40 CURVE",
"369 14 OFFCURVE",
"382 -6 OFFCURVE",
"395 -18 CURVE",
"573 5 LINE",
"581 63 LINE",
"560 65 OFFCURVE",
"550 70 OFFCURVE",
"541 86 CURVE SMOOTH",
"528 110 OFFCURVE",
"527 165 OFFCURVE",
"527 218 CURVE SMOOTH",
"527 279 OFFCURVE",
"531 388 OFFCURVE",
"536 426 CURVE",
"486 440 LINE",
"448 418 OFFCURVE",
"349 401 OFFCURVE",
"302 392 CURVE",
"302 344 LINE",
"321 340 OFFCURVE",
"331 336 OFFCURVE",
"347 323 CURVE",
"353 283 OFFCURVE",
"356 243 OFFCURVE",
"356 212 CURVE SMOOTH",
"356 185 OFFCURVE",
"355 158 OFFCURVE",
"354 133 CURVE",
"331 114 OFFCURVE",
"307 103 OFFCURVE",
"278 103 CURVE SMOOTH",
"233 103 OFFCURVE",
"225 135 OFFCURVE",
"225 229 CURVE SMOOTH",
"225 287 OFFCURVE",
"226 368 OFFCURVE",
"231 420 CURVE",
"182 440 LINE",
"131 420 OFFCURVE",
"51 400 OFFCURVE",
"5 391 CURVE",
"5 346 LINE",
"24 342 OFFCURVE",
"43 331 OFFCURVE",
"59 310 CURVE"
);
}
);
width = 587;
}
);
leftKerningGroup = u;
note = u;
unicode = 0075;
},
{
glyphname = uacute;
layers = (
{
layerId = "12E5A654-CA13-4855-9DF9-FF4C09D128B7";
paths = (
{
closed = 1;
nodes = (
"57 264 OFFCURVE",
"56 235 OFFCURVE",
"56 163 CURVE SMOOTH",
"56 121 OFFCURVE",
"57 85 OFFCURVE",
"68 56 CURVE SMOOTH",
"84 10 OFFCURVE",
"120 -17 OFFCURVE",
"176 -17 CURVE SMOOTH",
"243 -17 OFFCURVE",
"309 1 OFFCURVE",
"362 40 CURVE",
"369 14 OFFCURVE",
"382 -6 OFFCURVE",
"395 -18 CURVE",
"573 5 LINE",
"581 63 LINE",
"560 65 OFFCURVE",
"550 70 OFFCURVE",
"541 86 CURVE SMOOTH",
"528 110 OFFCURVE",
"527 165 OFFCURVE",
"527 218 CURVE SMOOTH",
"527 279 OFFCURVE",
"531 388 OFFCURVE",
"536 426 CURVE",
"486 440 LINE",
"448 418 OFFCURVE",
"349 401 OFFCURVE",
"302 392 CURVE",
"302 344 LINE",
"321 340 OFFCURVE",
"331 336 OFFCURVE",
"347 323 CURVE",
"353 283 OFFCURVE",
"356 243 OFFCURVE",
"356 212 CURVE SMOOTH",
"356 185 OFFCURVE",
"355 158 OFFCURVE",
"354 133 CURVE",
"331 114 OFFCURVE",
"307 103 OFFCURVE",
"278 103 CURVE SMOOTH",
"233 103 OFFCURVE",
"225 135 OFFCURVE",
"225 229 CURVE SMOOTH",
"225 287 OFFCURVE",
"226 368 OFFCURVE",
"231 420 CURVE",
"182 440 LINE",
"131 420 OFFCURVE",
"51 400 OFFCURVE",
"5 391 CURVE",
"5 346 LINE",
"24 342 OFFCURVE",
"43 331 OFFCURVE",
"59 310 CURVE"
);
},
{
closed = 1;
nodes = (
"240 479 LINE",
"317 500 OFFCURVE",
"368 532 OFFCURVE",
"400 590 CURVE",
"351 667 LINE",
"292 663 LINE",
"285 620 OFFCURVE",
"250 569 OFFCURVE",
"205 535 CURVE"
);
}
);
width = 587;
}
);
leftKerningGroup = u;
note = uacute;
unicode = 00FA;
},
{
glyphname = ucircumflex;
layers = (
{
layerId = "12E5A654-CA13-4855-9DF9-FF4C09D128B7";
paths = (
{
closed = 1;
nodes = (
"57 264 OFFCURVE",
"56 235 OFFCURVE",
"56 163 CURVE SMOOTH",
"56 121 OFFCURVE",
"57 85 OFFCURVE",
"68 56 CURVE SMOOTH",
"84 10 OFFCURVE",
"120 -17 OFFCURVE",
"176 -17 CURVE SMOOTH",
"243 -17 OFFCURVE",
"309 1 OFFCURVE",
"362 40 CURVE",
"369 14 OFFCURVE",
"382 -6 OFFCURVE",
"395 -18 CURVE",
"573 5 LINE",
"581 63 LINE",
"560 65 OFFCURVE",
"550 70 OFFCURVE",
"541 86 CURVE SMOOTH",
"528 110 OFFCURVE",
"527 165 OFFCURVE",
"527 218 CURVE SMOOTH",
"527 279 OFFCURVE",
"531 388 OFFCURVE",
"536 426 CURVE",
"486 440 LINE",
"448 418 OFFCURVE",
"349 401 OFFCURVE",
"302 392 CURVE",
"302 344 LINE",
"321 340 OFFCURVE",
"331 336 OFFCURVE",
"347 323 CURVE",
"353 283 OFFCURVE",
"356 243 OFFCURVE",
"356 212 CURVE SMOOTH",
"356 185 OFFCURVE",
"355 158 OFFCURVE",
"354 133 CURVE",
"331 114 OFFCURVE",
"307 103 OFFCURVE",
"278 103 CURVE SMOOTH",
"233 103 OFFCURVE",
"225 135 OFFCURVE",
"225 229 CURVE SMOOTH",
"225 287 OFFCURVE",
"226 368 OFFCURVE",
"231 420 CURVE",
"182 440 LINE",
"131 420 OFFCURVE",
"51 400 OFFCURVE",
"5 391 CURVE",
"5 346 LINE",
"24 342 OFFCURVE",
"43 331 OFFCURVE",
"59 310 CURVE"
);
},
{
closed = 1;
nodes = (
"286 662 LINE",
"170 514 LINE",
"194 484 LINE",
"298 536 LINE",
"398 485 LINE",
"434 514 LINE",
"343 662 LINE"
);
}
);
width = 587;
}
);
leftKerningGroup = u;
note = ucircumflex;
unicode = 00FB;
},
{
glyphname = udieresis;
layers = (
{
layerId = "12E5A654-CA13-4855-9DF9-FF4C09D128B7";
paths = (
{
closed = 1;
nodes = (
"57 264 OFFCURVE",
"56 235 OFFCURVE",
"56 163 CURVE SMOOTH",
"56 121 OFFCURVE",
"57 85 OFFCURVE",
"68 56 CURVE SMOOTH",
"84 10 OFFCURVE",
"120 -17 OFFCURVE",
"176 -17 CURVE SMOOTH",
"243 -17 OFFCURVE",
"309 1 OFFCURVE",
"362 40 CURVE",
"369 14 OFFCURVE",
"382 -6 OFFCURVE",
"395 -18 CURVE",
"573 5 LINE",
"581 63 LINE",
"560 65 OFFCURVE",
"550 70 OFFCURVE",
"541 86 CURVE SMOOTH",
"528 110 OFFCURVE",
"527 165 OFFCURVE",
"527 218 CURVE SMOOTH",
"527 279 OFFCURVE",
"531 388 OFFCURVE",
"536 426 CURVE",
"486 440 LINE",
"448 418 OFFCURVE",
"349 401 OFFCURVE",
"302 392 CURVE",
"302 344 LINE",
"321 340 OFFCURVE",
"331 336 OFFCURVE",
"347 323 CURVE",
"353 283 OFFCURVE",
"356 243 OFFCURVE",
"356 212 CURVE SMOOTH",
"356 185 OFFCURVE",
"355 158 OFFCURVE",
"354 133 CURVE",
"331 114 OFFCURVE",
"307 103 OFFCURVE",
"278 103 CURVE SMOOTH",
"233 103 OFFCURVE",
"225 135 OFFCURVE",
"225 229 CURVE SMOOTH",
"225 287 OFFCURVE",
"226 368 OFFCURVE",
"231 420 CURVE",
"182 440 LINE",
"131 420 OFFCURVE",
"51 400 OFFCURVE",
"5 391 CURVE",
"5 346 LINE",
"24 342 OFFCURVE",
"43 331 OFFCURVE",
"59 310 CURVE"
);
},
{
closed = 1;
nodes = (
"110 531 OFFCURVE",
"141 495 OFFCURVE",
"186 495 CURVE SMOOTH",
"232 495 OFFCURVE",
"273 536 OFFCURVE",
"273 589 CURVE SMOOTH",
"273 631 OFFCURVE",
"241 667 OFFCURVE",
"196 667 CURVE SMOOTH",
"151 667 OFFCURVE",
"110 626 OFFCURVE",
"110 574 CURVE SMOOTH"
);
},
{
closed = 1;
nodes = (
"313 528 OFFCURVE",
"344 492 OFFCURVE",
"393 492 CURVE SMOOTH",
"439 492 OFFCURVE",
"483 535 OFFCURVE",
"483 590 CURVE SMOOTH",
"483 634 OFFCURVE",
"451 670 OFFCURVE",
"402 670 CURVE SMOOTH",
"355 670 OFFCURVE",
"313 627 OFFCURVE",
"313 575 CURVE SMOOTH"
);
}
);
width = 587;
}
);
leftKerningGroup = u;
note = udieresis;
unicode = 00FC;
},
{
glyphname = ugrave;
layers = (
{
layerId = "12E5A654-CA13-4855-9DF9-FF4C09D128B7";
paths = (
{
closed = 1;
nodes = (
"57 264 OFFCURVE",
"56 235 OFFCURVE",
"56 163 CURVE SMOOTH",
"56 121 OFFCURVE",
"57 85 OFFCURVE",
"68 56 CURVE SMOOTH",
"84 10 OFFCURVE",
"120 -17 OFFCURVE",
"176 -17 CURVE SMOOTH",
"243 -17 OFFCURVE",
"309 1 OFFCURVE",
"362 40 CURVE",
"369 14 OFFCURVE",
"382 -6 OFFCURVE",
"395 -18 CURVE",
"573 5 LINE",
"581 63 LINE",
"560 65 OFFCURVE",
"550 70 OFFCURVE",
"541 86 CURVE SMOOTH",
"528 110 OFFCURVE",
"527 165 OFFCURVE",
"527 218 CURVE SMOOTH",
"527 279 OFFCURVE",
"531 388 OFFCURVE",
"536 426 CURVE",
"486 440 LINE",
"448 418 OFFCURVE",
"349 401 OFFCURVE",
"302 392 CURVE",
"302 344 LINE",
"321 340 OFFCURVE",
"331 336 OFFCURVE",
"347 323 CURVE",
"353 283 OFFCURVE",
"356 243 OFFCURVE",
"356 212 CURVE SMOOTH",
"356 185 OFFCURVE",
"355 158 OFFCURVE",
"354 133 CURVE",
"331 114 OFFCURVE",
"307 103 OFFCURVE",
"278 103 CURVE SMOOTH",
"233 103 OFFCURVE",
"225 135 OFFCURVE",
"225 229 CURVE SMOOTH",
"225 287 OFFCURVE",
"226 368 OFFCURVE",
"231 420 CURVE",
"182 440 LINE",
"131 420 OFFCURVE",
"51 400 OFFCURVE",
"5 391 CURVE",
"5 346 LINE",
"24 342 OFFCURVE",
"43 331 OFFCURVE",
"59 310 CURVE"
);
},
{
closed = 1;
nodes = (
"372 535 LINE",
"327 569 OFFCURVE",
"302 619 OFFCURVE",
"295 662 CURVE",
"241 666 LINE",
"174 600 LINE",
"193 541 OFFCURVE",
"254 500 OFFCURVE",
"331 479 CURVE"
);
}
);
width = 587;
}
);
leftKerningGroup = u;
note = ugrave;
unicode = 00F9;
},
{
glyphname = v;
layers = (
{
layerId = "12E5A654-CA13-4855-9DF9-FF4C09D128B7";
paths = (
{
closed = 1;
nodes = (
"333 377 LINE",
"362 369 OFFCURVE",
"383 358 OFFCURVE",
"401 341 CURVE",
"378 294 OFFCURVE",
"362 253 OFFCURVE",
"348 198 CURVE",
"337 147 LINE",
"334 147 LINE",
"322 198 LINE",
"245 362 LINE",
"259 370 OFFCURVE",
"273 376 OFFCURVE",
"287 380 CURVE",
"286 431 LINE",
"255 426 OFFCURVE",
"199 423 OFFCURVE",
"147 423 CURVE SMOOTH",
"96 423 OFFCURVE",
"53 425 OFFCURVE",
"6 429 CURVE",
"0 370 LINE",
"17 366 OFFCURVE",
"35 362 OFFCURVE",
"51 357 CURVE",
"255 -20 LINE",
"320 -18 LINE",
"354 9 LINE",
"379 89 OFFCURVE",
"416 213 OFFCURVE",
"507 359 CURVE",
"522 370 OFFCURVE",
"539 379 OFFCURVE",
"554 384 CURVE",
"553 431 LINE",
"529 426 OFFCURVE",
"486 423 OFFCURVE",
"447 423 CURVE SMOOTH",
"407 423 OFFCURVE",
"373 426 OFFCURVE",
"338 429 CURVE"
);
}
);
width = 574;
}
);
leftKerningGroup = v;
note = v;
rightKerningGroup = v;
unicode = 0076;
},
{
glyphname = w;
layers = (
{
layerId = "12E5A654-CA13-4855-9DF9-FF4C09D128B7";
paths = (
{
closed = 1;
nodes = (
"607 377 LINE",
"636 369 OFFCURVE",
"655 358 OFFCURVE",
"673 341 CURVE",
"647 286 OFFCURVE",
"626 236 OFFCURVE",
"612 198 CURVE",
"601 147 LINE",
"598 147 LINE",
"586 198 LINE",
"525 365 LINE",
"540 373 OFFCURVE",
"556 380 OFFCURVE",
"571 384 CURVE",
"570 431 LINE",
"541 426 OFFCURVE",
"490 423 OFFCURVE",
"443 423 CURVE SMOOTH",
"395 423 OFFCURVE",
"355 426 OFFCURVE",
"313 429 CURVE",
"307 377 LINE",
"327 372 LINE",
"366 291 LINE",
"348 256 OFFCURVE",
"332 223 OFFCURVE",
"322 198 CURVE",
"311 147 LINE",
"308 147 LINE",
"296 198 LINE",
"235 365 LINE",
"245 371 OFFCURVE",
"256 376 OFFCURVE",
"268 380 CURVE",
"267 431 LINE",
"226 426 OFFCURVE",
"184 423 OFFCURVE",
"132 423 CURVE SMOOTH",
"81 423 OFFCURVE",
"53 425 OFFCURVE",
"6 429 CURVE",
"0 370 LINE",
"15 367 OFFCURVE",
"29 363 OFFCURVE",
"43 359 CURVE",
"229 -20 LINE",
"294 -18 LINE",
"328 9 LINE",
"343 59 OFFCURVE",
"366 130 OFFCURVE",
"406 210 CURVE",
"519 -20 LINE",
"584 -18 LINE",
"618 9 LINE",
"642 88 OFFCURVE",
"672 217 OFFCURVE",
"769 353 CURVE",
"785 366 OFFCURVE",
"805 378 OFFCURVE",
"822 384 CURVE",
"821 431 LINE",
"798 426 OFFCURVE",
"756 423 OFFCURVE",
"718 423 CURVE SMOOTH",
"679 423 OFFCURVE",
"646 426 OFFCURVE",
"612 429 CURVE"
);
}
);
width = 842;
}
);
leftKerningGroup = w;
note = w;
rightKerningGroup = w;
unicode = 0077;
},
{
glyphname = x;
layers = (
{
layerId = "12E5A654-CA13-4855-9DF9-FF4C09D128B7";
paths = (
{
closed = 1;
nodes = (
"241 46 LINE",
"224 50 OFFCURVE",
"210 55 OFFCURVE",
"198 62 CURVE",
"247 154 LINE",
"324 53 LINE",
"315 49 OFFCURVE",
"306 46 OFFCURVE",
"297 43 CURVE",
"298 -8 LINE",
"329 -3 OFFCURVE",
"385 0 OFFCURVE",
"437 0 CURVE SMOOTH",
"488 0 OFFCURVE",
"531 -2 OFFCURVE",
"578 -6 CURVE",
"584 53 LINE",
"561 57 OFFCURVE",
"539 63 OFFCURVE",
"518 71 CURVE",
"396 226 LINE",
"497 343 LINE",
"519 361 OFFCURVE",
"552 377 OFFCURVE",
"574 384 CURVE",
"573 431 LINE",
"549 426 OFFCURVE",
"506 423 OFFCURVE",
"467 423 CURVE SMOOTH",
"427 423 OFFCURVE",
"393 426 OFFCURVE",
"358 429 CURVE",
"353 377 LINE",
"372 372 OFFCURVE",
"387 366 OFFCURVE",
"400 358 CURVE",
"354 280 LINE",
"283 371 LINE",
"307 380 LINE",
"306 431 LINE",
"275 426 OFFCURVE",
"219 423 OFFCURVE",
"167 423 CURVE SMOOTH",
"116 423 OFFCURVE",
"83 425 OFFCURVE",
"36 429 CURVE",
"30 370 LINE",
"54 365 OFFCURVE",
"76 358 OFFCURVE",
"96 349 CURVE",
"207 206 LINE",
"89 71 LINE",
"67 57 OFFCURVE",
"38 45 OFFCURVE",
"20 39 CURVE",
"21 -8 LINE",
"45 -3 OFFCURVE",
"88 0 OFFCURVE",
"127 0 CURVE SMOOTH",
"167 0 OFFCURVE",
"201 -3 OFFCURVE",
"236 -6 CURVE"
);
}
);
width = 604;
}
);
leftKerningGroup = x;
note = x;
unicode = 0078;
},
{
glyphname = y;
layers = (
{
layerId = "12E5A654-CA13-4855-9DF9-FF4C09D128B7";
paths = (
{
closed = 1;
nodes = (
"0 370 LINE",
"17 366 OFFCURVE",
"35 362 OFFCURVE",
"52 356 CURVE",
"258 -15 LINE",
"223 -76 LINE",
"114 -124 LINE",
"114 -163 OFFCURVE",
"143 -210 OFFCURVE",
"195 -220 CURVE",
"249 -210 OFFCURVE",
"287 -169 OFFCURVE",
"305 -136 CURVE SMOOTH",
"343 -68 OFFCURVE",
"355 10 OFFCURVE",
"391 110 CURVE SMOOTH",
"419 188 OFFCURVE",
"454 271 OFFCURVE",
"494 348 CURVE",
"512 364 OFFCURVE",
"534 377 OFFCURVE",
"554 384 CURVE",
"553 431 LINE",
"529 426 OFFCURVE",
"486 423 OFFCURVE",
"447 423 CURVE SMOOTH",
"407 423 OFFCURVE",
"383 426 OFFCURVE",
"348 429 CURVE",
"343 377 LINE",
"373 369 OFFCURVE",
"386 358 OFFCURVE",
"402 340 CURVE",
"382 275 OFFCURVE",
"361 216 OFFCURVE",
"340 162 CURVE",
"246 359 LINE",
"264 368 OFFCURVE",
"282 375 OFFCURVE",
"297 380 CURVE",
"296 431 LINE",
"265 426 OFFCURVE",
"199 423 OFFCURVE",
"147 423 CURVE SMOOTH",
"96 423 OFFCURVE",
"53 425 OFFCURVE",
"6 429 CURVE"
);
}
);
width = 574;
}
);
leftKerningGroup = y;
note = y;
rightKerningGroup = y;
unicode = 0079;
},
{
glyphname = yacute;
layers = (
{
layerId = "12E5A654-CA13-4855-9DF9-FF4C09D128B7";
paths = (
{
closed = 1;
nodes = (
"0 370 LINE",
"17 366 OFFCURVE",
"35 362 OFFCURVE",
"52 356 CURVE",
"258 -15 LINE",
"223 -76 LINE",
"114 -124 LINE",
"114 -163 OFFCURVE",
"143 -210 OFFCURVE",
"195 -220 CURVE",
"249 -210 OFFCURVE",
"287 -169 OFFCURVE",
"305 -136 CURVE SMOOTH",
"343 -68 OFFCURVE",
"355 10 OFFCURVE",
"391 110 CURVE SMOOTH",
"419 188 OFFCURVE",
"454 271 OFFCURVE",
"494 348 CURVE",
"512 364 OFFCURVE",
"534 377 OFFCURVE",
"554 384 CURVE",
"553 431 LINE",
"529 426 OFFCURVE",
"486 423 OFFCURVE",
"447 423 CURVE SMOOTH",
"407 423 OFFCURVE",
"383 426 OFFCURVE",
"348 429 CURVE",
"343 377 LINE",
"373 369 OFFCURVE",
"386 358 OFFCURVE",
"402 340 CURVE",
"382 275 OFFCURVE",
"361 216 OFFCURVE",
"340 162 CURVE",
"246 359 LINE",
"264 368 OFFCURVE",
"282 375 OFFCURVE",
"297 380 CURVE",
"296 431 LINE",
"265 426 OFFCURVE",
"199 423 OFFCURVE",
"147 423 CURVE SMOOTH",
"96 423 OFFCURVE",
"53 425 OFFCURVE",
"6 429 CURVE"
);
},
{
closed = 1;
nodes = (
"268 479 LINE",
"345 500 OFFCURVE",
"396 532 OFFCURVE",
"428 590 CURVE",
"379 667 LINE",
"320 663 LINE",
"313 620 OFFCURVE",
"278 569 OFFCURVE",
"233 535 CURVE"
);
}
);
width = 574;
}
);
leftKerningGroup = y;
note = yacute;
rightKerningGroup = y;
unicode = 00FD;
},
{
glyphname = ydieresis;
layers = (
{
layerId = "12E5A654-CA13-4855-9DF9-FF4C09D128B7";
paths = (
{
closed = 1;
nodes = (
"0 370 LINE",
"17 366 OFFCURVE",
"35 362 OFFCURVE",
"52 356 CURVE",
"258 -15 LINE",
"223 -76 LINE",
"114 -124 LINE",
"114 -163 OFFCURVE",
"143 -210 OFFCURVE",
"195 -220 CURVE",
"249 -210 OFFCURVE",
"287 -169 OFFCURVE",
"305 -136 CURVE SMOOTH",
"343 -68 OFFCURVE",
"355 10 OFFCURVE",
"391 110 CURVE SMOOTH",
"419 188 OFFCURVE",
"454 271 OFFCURVE",
"494 348 CURVE",
"512 364 OFFCURVE",
"534 377 OFFCURVE",
"554 384 CURVE",
"553 431 LINE",
"529 426 OFFCURVE",
"486 423 OFFCURVE",
"447 423 CURVE SMOOTH",
"407 423 OFFCURVE",
"383 426 OFFCURVE",
"348 429 CURVE",
"343 377 LINE",
"373 369 OFFCURVE",
"386 358 OFFCURVE",
"402 340 CURVE",
"382 275 OFFCURVE",
"361 216 OFFCURVE",
"340 162 CURVE",
"246 359 LINE",
"264 368 OFFCURVE",
"282 375 OFFCURVE",
"297 380 CURVE",
"296 431 LINE",
"265 426 OFFCURVE",
"199 423 OFFCURVE",
"147 423 CURVE SMOOTH",
"96 423 OFFCURVE",
"53 425 OFFCURVE",
"6 429 CURVE"
);
},
{
closed = 1;
nodes = (
"138 531 OFFCURVE",
"169 495 OFFCURVE",
"214 495 CURVE SMOOTH",
"260 495 OFFCURVE",
"301 536 OFFCURVE",
"301 589 CURVE SMOOTH",
"301 631 OFFCURVE",
"269 667 OFFCURVE",
"224 667 CURVE SMOOTH",
"179 667 OFFCURVE",
"138 626 OFFCURVE",
"138 574 CURVE SMOOTH"
);
},
{
closed = 1;
nodes = (
"341 528 OFFCURVE",
"372 492 OFFCURVE",
"421 492 CURVE SMOOTH",
"467 492 OFFCURVE",
"511 535 OFFCURVE",
"511 590 CURVE SMOOTH",
"511 634 OFFCURVE",
"479 670 OFFCURVE",
"430 670 CURVE SMOOTH",
"383 670 OFFCURVE",
"341 627 OFFCURVE",
"341 575 CURVE SMOOTH"
);
}
);
width = 574;
}
);
leftKerningGroup = y;
note = ydieresis;
rightKerningGroup = y;
unicode = 00FF;
},
{
glyphname = z;
layers = (
{
layerId = "12E5A654-CA13-4855-9DF9-FF4C09D128B7";
paths = (
{
closed = 1;
nodes = (
"56 435 LINE",
"15 285 LINE",
"63 259 LINE",
"120 293 LINE",
"138 298 OFFCURVE",
"160 299 OFFCURVE",
"182 299 CURVE SMOOTH",
"204 299 OFFCURVE",
"227 295 OFFCURVE",
"246 288 CURVE",
"19 41 LINE",
"33 -8 LINE",
"81 -1 OFFCURVE",
"174 0 OFFCURVE",
"224 0 CURVE SMOOTH",
"296 0 OFFCURVE",
"352 -3 OFFCURVE",
"397 -8 CURVE",
"440 153 LINE",
"398 174 LINE",
"362 141 LINE",
"339 133 OFFCURVE",
"309 128 OFFCURVE",
"286 128 CURVE SMOOTH",
"253 128 OFFCURVE",
"230 132 OFFCURVE",
"211 138 CURVE",
"419 385 LINE",
"401 417 LINE",
"142 420 LINE"
);
}
);
width = 460;
}
);
leftKerningGroup = z;
note = z;
unicode = 007A;
},
{
glyphname = zcaron;
layers = (
{
layerId = "12E5A654-CA13-4855-9DF9-FF4C09D128B7";
paths = (
{
closed = 1;
nodes = (
"56 435 LINE",
"15 285 LINE",
"63 259 LINE",
"120 293 LINE",
"138 298 OFFCURVE",
"160 299 OFFCURVE",
"182 299 CURVE SMOOTH",
"204 299 OFFCURVE",
"227 295 OFFCURVE",
"246 288 CURVE",
"19 41 LINE",
"33 -8 LINE",
"81 -1 OFFCURVE",
"174 0 OFFCURVE",
"224 0 CURVE SMOOTH",
"296 0 OFFCURVE",
"352 -3 OFFCURVE",
"397 -8 CURVE",
"440 153 LINE",
"398 174 LINE",
"362 141 LINE",
"339 133 OFFCURVE",
"309 128 OFFCURVE",
"286 128 CURVE SMOOTH",
"253 128 OFFCURVE",
"230 132 OFFCURVE",
"211 138 CURVE",
"419 385 LINE",
"401 417 LINE",
"142 420 LINE"
);
},
{
closed = 1;
nodes = (
"264 494 LINE",
"380 642 LINE",
"356 672 LINE",
"252 620 LINE",
"152 671 LINE",
"116 642 LINE",
"207 494 LINE"
);
}
);
width = 460;
}
);
leftKerningGroup = z;
note = zcaron;
unicode = 017E;
},
{
glyphname = S_S;
layers = (
{
layerId = "12E5A654-CA13-4855-9DF9-FF4C09D128B7";
paths = (
{
closed = 1;
nodes = (
"60 216 LINE",
"60 61 LINE",
"131 7 OFFCURVE",
"217 -19 OFFCURVE",
"333 -19 CURVE SMOOTH",
"479 -19 OFFCURVE",
"631 29 OFFCURVE",
"631 216 CURVE SMOOTH",
"631 499 OFFCURVE",
"246 429 OFFCURVE",
"246 561 CURVE SMOOTH",
"246 608 OFFCURVE",
"292 627 OFFCURVE",
"336 627 CURVE SMOOTH",
"388 627 OFFCURVE",
"426 616 OFFCURVE",
"458 593 CURVE",
"514 507 LINE",
"577 519 LINE",
"577 656 LINE",
"532 691 OFFCURVE",
"443 710 OFFCURVE",
"353 710 CURVE SMOOTH",
"184 710 OFFCURVE",
"60 646 OFFCURVE",
"60 488 CURVE SMOOTH",
"60 233 OFFCURVE",
"467 286 OFFCURVE",
"467 141 CURVE SMOOTH",
"467 94 OFFCURVE",
"426 68 OFFCURVE",
"357 68 CURVE SMOOTH",
"287 68 OFFCURVE",
"239 88 OFFCURVE",
"192 121 CURVE",
"143 235 LINE"
);
},
{
closed = 1;
nodes = (
"721 216 LINE",
"721 61 LINE",
"792 7 OFFCURVE",
"878 -19 OFFCURVE",
"994 -19 CURVE SMOOTH",
"1140 -19 OFFCURVE",
"1292 29 OFFCURVE",
"1292 216 CURVE SMOOTH",
"1292 499 OFFCURVE",
"907 429 OFFCURVE",
"907 561 CURVE SMOOTH",
"907 608 OFFCURVE",
"953 627 OFFCURVE",
"997 627 CURVE SMOOTH",
"1049 627 OFFCURVE",
"1087 616 OFFCURVE",
"1119 593 CURVE",
"1175 507 LINE",
"1238 519 LINE",
"1238 656 LINE",
"1193 691 OFFCURVE",
"1104 710 OFFCURVE",
"1014 710 CURVE SMOOTH",
"845 710 OFFCURVE",
"721 646 OFFCURVE",
"721 488 CURVE SMOOTH",
"721 233 OFFCURVE",
"1128 286 OFFCURVE",
"1128 141 CURVE SMOOTH",
"1128 94 OFFCURVE",
"1087 68 OFFCURVE",
"1018 68 CURVE SMOOTH",
"948 68 OFFCURVE",
"900 88 OFFCURVE",
"853 121 CURVE",
"804 235 LINE"
);
}
);
width = 1332;
}
);
note = S_S;
},
{
glyphname = T_h;
layers = (
{
layerId = "12E5A654-CA13-4855-9DF9-FF4C09D128B7";
paths = (
{
closed = 1;
nodes = (
"145 -9 LINE",
"207 -2 OFFCURVE",
"345 0 OFFCURVE",
"415 0 CURVE SMOOTH",
"501 0 OFFCURVE",
"574 -4 OFFCURVE",
"645 -9 CURVE",
"653 51 LINE",
"599 61 OFFCURVE",
"549 72 OFFCURVE",
"510 92 CURVE",
"499 164 OFFCURVE",
"497 249 OFFCURVE",
"497 349 CURVE SMOOTH",
"497 435 OFFCURVE",
"499 533 OFFCURVE",
"507 611 CURVE",
"595 611 OFFCURVE",
"676 605 OFFCURVE",
"732 570 CURVE",
"738 505 OFFCURVE",
"742 443 OFFCURVE",
"742 355 CURVE SMOOTH",
"742 236 OFFCURVE",
"739 128 OFFCURVE",
"728 62 CURVE",
"717 55 OFFCURVE",
"705 49 OFFCURVE",
"691 45 CURVE",
"693 -6 LINE",
"740 -1 OFFCURVE",
"781 1 OFFCURVE",
"814 1 CURVE SMOOTH",
"850 1 OFFCURVE",
"916 0 OFFCURVE",
"971 -6 CURVE",
"973 48 LINE",
"953 54 OFFCURVE",
"936 61 OFFCURVE",
"921 71 CURVE",
"915 128 OFFCURVE",
"913 204 OFFCURVE",
"913 291 CURVE",
"938 307 OFFCURVE",
"978 318 OFFCURVE",
"998 318 CURVE SMOOTH",
"1023 318 OFFCURVE",
"1037 306 OFFCURVE",
"1042 278 CURVE SMOOTH",
"1046 257 OFFCURVE",
"1047 226 OFFCURVE",
"1047 191 CURVE SMOOTH",
"1047 148 OFFCURVE",
"1046 96 OFFCURVE",
"1044 60 CURVE",
"1032 53 OFFCURVE",
"1020 47 OFFCURVE",
"1007 43 CURVE",
"1009 -6 LINE",
"1051 -2 OFFCURVE",
"1104 0 OFFCURVE",
"1133 0 CURVE SMOOTH",
"1166 0 OFFCURVE",
"1209 0 OFFCURVE",
"1258 -6 CURVE",
"1260 45 LINE",
"1241 52 OFFCURVE",
"1227 61 OFFCURVE",
"1214 72 CURVE",
"1216 116 OFFCURVE",
"1217 166 OFFCURVE",
"1217 213 CURVE SMOOTH",
"1217 250 OFFCURVE",
"1216 304 OFFCURVE",
"1210 340 CURVE SMOOTH",
"1200 401 OFFCURVE",
"1162 438 OFFCURVE",
"1094 438 CURVE SMOOTH",
"1035 438 OFFCURVE",
"966 412 OFFCURVE",
"913 374 CURVE",
"913 471 LINE SMOOTH",
"913 577 OFFCURVE",
"914 683 OFFCURVE",
"924 750 CURVE",
"882 760 LINE",
"831 735 OFFCURVE",
"753 708 OFFCURVE",
"686 700 CURVE",
"177 700 LINE",
"55 721 LINE",
"0 480 LINE",
"58 470 LINE",
"96 523 OFFCURVE",
"171 598 OFFCURVE",
"214 611 CURVE",
"284 611 LINE",
"292 530 OFFCURVE",
"293 436 OFFCURVE",
"293 359 CURVE SMOOTH",
"293 251 OFFCURVE",
"289 163 OFFCURVE",
"281 92 CURVE",
"241 71 OFFCURVE",
"196 55 OFFCURVE",
"142 46 CURVE"
);
}
);
width = 1272;
}
);
note = T_h;
},
{
glyphname = f_f;
layers = (
{
layerId = "12E5A654-CA13-4855-9DF9-FF4C09D128B7";
paths = (
{
closed = 1;
nodes = (
"319 -3 LINE",
"362 1 OFFCURVE",
"415 3 OFFCURVE",
"446 3 CURVE SMOOTH",
"517 3 OFFCURVE",
"576 2 OFFCURVE",
"647 -7 CURVE",
"653 49 LINE",
"612 56 OFFCURVE",
"578 70 OFFCURVE",
"548 87 CURVE",
"546 160 OFFCURVE",
"544 243 OFFCURVE",
"544 315 CURVE",
"651 315 LINE",
"656 330 OFFCURVE",
"658 349 OFFCURVE",
"658 370 CURVE SMOOTH",
"658 391 OFFCURVE",
"655 407 OFFCURVE",
"651 420 CURVE",
"544 420 LINE",
"544 520 OFFCURVE",
"547 557 OFFCURVE",
"550 582 CURVE SMOOTH",
"556 631 OFFCURVE",
"568 664 OFFCURVE",
"590 664 CURVE",
"663 581 LINE",
"709 586 OFFCURVE",
"769 655 OFFCURVE",
"775 711 CURVE",
"755 734 OFFCURVE",
"695 760 OFFCURVE",
"646 760 CURVE SMOOTH",
"551 760 OFFCURVE",
"421 689 OFFCURVE",
"388 588 CURVE SMOOTH",
"377 555 OFFCURVE",
"368 504 OFFCURVE",
"365 420 CURVE",
"242 420 LINE",
"242 519 OFFCURVE",
"245 544 OFFCURVE",
"248 569 CURVE SMOOTH",
"254 618 OFFCURVE",
"263 642 OFFCURVE",
"285 642 CURVE",
"319 587 LINE",
"365 592 OFFCURVE",
"413 656 OFFCURVE",
"419 712 CURVE",
"399 735 OFFCURVE",
"371 736 OFFCURVE",
"322 736 CURVE SMOOTH",
"227 736 OFFCURVE",
"119 676 OFFCURVE",
"86 575 CURVE SMOOTH",
"75 541 OFFCURVE",
"66 498 OFFCURVE",
"63 413 CURVE",
"16 339 LINE",
"25 315 LINE",
"63 315 LINE",
"63 251 OFFCURVE",
"65 171 OFFCURVE",
"68 87 CURVE",
"51 68 OFFCURVE",
"31 53 OFFCURVE",
"9 45 CURVE",
"12 -3 LINE",
"55 1 OFFCURVE",
"108 3 OFFCURVE",
"139 3 CURVE SMOOTH",
"180 3 OFFCURVE",
"236 0 OFFCURVE",
"282 -6 CURVE",
"288 50 LINE",
"272 56 OFFCURVE",
"258 62 OFFCURVE",
"247 69 CURVE",
"244 145 OFFCURVE",
"242 237 OFFCURVE",
"242 315 CURVE",
"365 315 LINE",
"365 250 OFFCURVE",
"367 167 OFFCURVE",
"370 82 CURVE",
"355 65 OFFCURVE",
"336 52 OFFCURVE",
"316 45 CURVE"
);
}
);
width = 675;
}
);
leftKerningGroup = f;
note = f_f;
rightKerningGroup = f;
unicode = FB00;
},
{
glyphname = f_f_i;
layers = (
{
layerId = "12E5A654-CA13-4855-9DF9-FF4C09D128B7";
paths = (
{
closed = 1;
nodes = (
"320 -3 LINE",
"363 1 OFFCURVE",
"416 3 OFFCURVE",
"447 3 CURVE SMOOTH",
"488 3 OFFCURVE",
"544 0 OFFCURVE",
"590 -6 CURVE",
"596 50 LINE",
"577 57 OFFCURVE",
"562 64 OFFCURVE",
"549 73 CURVE",
"546 148 OFFCURVE",
"544 238 OFFCURVE",
"544 315 CURVE",
"601 315 LINE",
"606 330 OFFCURVE",
"608 349 OFFCURVE",
"608 370 CURVE SMOOTH",
"608 391 OFFCURVE",
"605 407 OFFCURVE",
"601 420 CURVE",
"544 420 LINE",
"544 520 OFFCURVE",
"547 557 OFFCURVE",
"550 582 CURVE SMOOTH",
"556 631 OFFCURVE",
"568 664 OFFCURVE",
"609 664 CURVE",
"681 505 LINE",
"745 515 OFFCURVE",
"818 551 OFFCURVE",
"851 582 CURVE",
"833 692 OFFCURVE",
"768 760 OFFCURVE",
"646 760 CURVE SMOOTH",
"536 760 OFFCURVE",
"421 689 OFFCURVE",
"388 588 CURVE SMOOTH",
"377 555 OFFCURVE",
"368 504 OFFCURVE",
"365 420 CURVE",
"242 420 LINE",
"242 519 OFFCURVE",
"245 544 OFFCURVE",
"248 569 CURVE SMOOTH",
"254 618 OFFCURVE",
"263 642 OFFCURVE",
"285 642 CURVE",
"319 587 LINE",
"365 592 OFFCURVE",
"413 656 OFFCURVE",
"419 712 CURVE",
"399 735 OFFCURVE",
"371 736 OFFCURVE",
"322 736 CURVE SMOOTH",
"227 736 OFFCURVE",
"119 676 OFFCURVE",
"86 575 CURVE SMOOTH",
"75 541 OFFCURVE",
"66 498 OFFCURVE",
"63 413 CURVE",
"16 339 LINE",
"25 315 LINE",
"63 315 LINE",
"63 251 OFFCURVE",
"65 171 OFFCURVE",
"68 87 CURVE",
"51 68 OFFCURVE",
"31 53 OFFCURVE",
"9 45 CURVE",
"12 -3 LINE",
"55 1 OFFCURVE",
"108 3 OFFCURVE",
"139 3 CURVE SMOOTH",
"180 3 OFFCURVE",
"236 0 OFFCURVE",
"282 -6 CURVE",
"288 50 LINE",
"272 56 OFFCURVE",
"258 62 OFFCURVE",
"247 69 CURVE",
"244 145 OFFCURVE",
"242 237 OFFCURVE",
"242 315 CURVE",
"365 315 LINE",
"365 250 OFFCURVE",
"367 166 OFFCURVE",
"370 81 CURVE",
"355 65 OFFCURVE",
"337 52 OFFCURVE",
"317 45 CURVE"
);
},
{
closed = 1;
nodes = (
"675 297 OFFCURVE",
"677 250 OFFCURVE",
"677 197 CURVE SMOOTH",
"677 154 OFFCURVE",
"676 113 OFFCURVE",
"675 78 CURVE",
"660 67 OFFCURVE",
"643 58 OFFCURVE",
"626 51 CURVE",
"630 -6 LINE",
"671 -1 OFFCURVE",
"713 0 OFFCURVE",
"741 0 CURVE SMOOTH",
"773 0 OFFCURVE",
"829 1 OFFCURVE",
"877 -6 CURVE",
"879 50 LINE",
"860 58 OFFCURVE",
"845 67 OFFCURVE",
"832 79 CURVE",
"830 123 OFFCURVE",
"830 177 OFFCURVE",
"830 231 CURVE SMOOTH",
"830 314 OFFCURVE",
"831 377 OFFCURVE",
"836 432 CURVE",
"799 439 LINE",
"752 423 OFFCURVE",
"678 416 OFFCURVE",
"634 414 CURVE",
"630 355 LINE",
"643 352 OFFCURVE",
"656 345 OFFCURVE",
"670 331 CURVE"
);
}
);
width = 885;
}
);
note = f_f_i;
rightKerningGroup = f;
unicode = FB03;
},
{
glyphname = fi;
layers = (
{
layerId = "12E5A654-CA13-4855-9DF9-FF4C09D128B7";
paths = (
{
closed = 1;
nodes = (
"12 -3 LINE",
"55 1 OFFCURVE",
"108 3 OFFCURVE",
"139 3 CURVE SMOOTH",
"180 3 OFFCURVE",
"236 0 OFFCURVE",
"282 -6 CURVE",
"288 50 LINE",
"269 56 OFFCURVE",
"254 64 OFFCURVE",
"242 72 CURVE",
"239 148 OFFCURVE",
"237 238 OFFCURVE",
"237 315 CURVE",
"295 315 LINE",
"300 330 OFFCURVE",
"302 349 OFFCURVE",
"302 370 CURVE SMOOTH",
"302 391 OFFCURVE",
"299 407 OFFCURVE",
"295 420 CURVE",
"237 420 LINE",
"237 520 OFFCURVE",
"240 557 OFFCURVE",
"243 582 CURVE SMOOTH",
"249 631 OFFCURVE",
"261 664 OFFCURVE",
"302 664 CURVE",
"377 507 LINE",
"441 517 OFFCURVE",
"511 551 OFFCURVE",
"544 582 CURVE",
"526 692 OFFCURVE",
"461 760 OFFCURVE",
"339 760 CURVE SMOOTH",
"229 760 OFFCURVE",
"114 689 OFFCURVE",
"81 588 CURVE SMOOTH",
"70 555 OFFCURVE",
"61 503 OFFCURVE",
"58 418 CURVE",
"8 339 LINE",
"17 315 LINE",
"58 315 LINE",
"58 250 OFFCURVE",
"60 167 OFFCURVE",
"63 82 CURVE",
"48 65 OFFCURVE",
"29 52 OFFCURVE",
"9 45 CURVE"
);
},
{
closed = 1;
nodes = (
"368 297 OFFCURVE",
"370 250 OFFCURVE",
"370 197 CURVE SMOOTH",
"370 154 OFFCURVE",
"369 113 OFFCURVE",
"368 78 CURVE",
"353 67 OFFCURVE",
"336 58 OFFCURVE",
"319 51 CURVE",
"323 -6 LINE",
"364 -1 OFFCURVE",
"406 0 OFFCURVE",
"434 0 CURVE SMOOTH",
"466 0 OFFCURVE",
"522 1 OFFCURVE",
"570 -6 CURVE",
"572 50 LINE",
"553 58 OFFCURVE",
"538 67 OFFCURVE",
"525 79 CURVE",
"523 123 OFFCURVE",
"523 177 OFFCURVE",
"523 231 CURVE SMOOTH",
"523 314 OFFCURVE",
"524 377 OFFCURVE",
"529 432 CURVE",
"492 439 LINE",
"445 423 OFFCURVE",
"371 416 OFFCURVE",
"327 414 CURVE",
"323 355 LINE",
"336 352 OFFCURVE",
"349 345 OFFCURVE",
"363 331 CURVE"
);
}
);
width = 578;
}
);
leftKerningGroup = f;
note = fi;
unicode = FB01;
},
{
glyphname = fl;
layers = (
{
layerId = "12E5A654-CA13-4855-9DF9-FF4C09D128B7";
paths = (
{
closed = 1;
nodes = (
"17 -3 LINE",
"60 1 OFFCURVE",
"113 3 OFFCURVE",
"144 3 CURVE SMOOTH",
"215 3 OFFCURVE",
"224 2 OFFCURVE",
"295 -7 CURVE",
"301 49 LINE",
"277 53 OFFCURVE",
"260 60 OFFCURVE",
"247 68 CURVE",
"244 145 OFFCURVE",
"242 236 OFFCURVE",
"242 315 CURVE",
"319 315 LINE",
"324 330 OFFCURVE",
"326 349 OFFCURVE",
"326 370 CURVE SMOOTH",
"326 391 OFFCURVE",
"323 407 OFFCURVE",
"319 420 CURVE",
"242 420 LINE",
"242 520 OFFCURVE",
"245 557 OFFCURVE",
"248 582 CURVE SMOOTH",
"254 631 OFFCURVE",
"266 664 OFFCURVE",
"288 664 CURVE",
"363 610 LINE",
"369 545 OFFCURVE",
"375 471 OFFCURVE",
"375 355 CURVE SMOOTH",
"375 244 OFFCURVE",
"373 142 OFFCURVE",
"364 75 CURVE",
"353 62 OFFCURVE",
"340 53 OFFCURVE",
"324 48 CURVE",
"326 -3 LINE",
"360 0 OFFCURVE",
"389 2 OFFCURVE",
"413 2 CURVE SMOOTH",
"440 2 OFFCURVE",
"564 1 OFFCURVE",
"604 -3 CURVE",
"606 50 LINE",
"589 56 OFFCURVE",
"576 64 OFFCURVE",
"564 75 CURVE",
"556 147 OFFCURVE",
"552 250 OFFCURVE",
"552 367 CURVE SMOOTH",
"552 438 OFFCURVE",
"550 514 OFFCURVE",
"550 584 CURVE SMOOTH",
"550 649 OFFCURVE",
"552 707 OFFCURVE",
"558 750 CURVE",
"516 760 LINE",
"492 748 OFFCURVE",
"453 733 OFFCURVE",
"438 730 CURVE",
"405 749 OFFCURVE",
"373 760 OFFCURVE",
"336 760 CURVE SMOOTH",
"249 760 OFFCURVE",
"119 689 OFFCURVE",
"86 588 CURVE SMOOTH",
"75 555 OFFCURVE",
"66 503 OFFCURVE",
"63 418 CURVE",
"13 339 LINE",
"22 315 LINE",
"63 315 LINE",
"63 250 OFFCURVE",
"65 167 OFFCURVE",
"68 82 CURVE",
"53 65 OFFCURVE",
"34 52 OFFCURVE",
"14 45 CURVE"
);
}
);
width = 615;
}
);
leftKerningGroup = f;
note = fl;
unicode = FB02;
},
{
glyphname = longs_i;
layers = (
{
layerId = "12E5A654-CA13-4855-9DF9-FF4C09D128B7";
paths = (
{
closed = 1;
nodes = (
"12 -3 LINE",
"55 1 OFFCURVE",
"108 3 OFFCURVE",
"139 3 CURVE SMOOTH",
"180 3 OFFCURVE",
"226 0 OFFCURVE",
"272 -6 CURVE",
"278 50 LINE",
"263 55 OFFCURVE",
"251 61 OFFCURVE",
"242 67 CURVE",
"238 179 OFFCURVE",
"237 325 OFFCURVE",
"237 412 CURVE SMOOTH",
"237 519 OFFCURVE",
"240 557 OFFCURVE",
"243 582 CURVE SMOOTH",
"249 631 OFFCURVE",
"261 664 OFFCURVE",
"288 664 CURVE",
"354 505 LINE",
"418 515 OFFCURVE",
"491 551 OFFCURVE",
"524 582 CURVE",
"506 692 OFFCURVE",
"461 760 OFFCURVE",
"339 760 CURVE SMOOTH",
"229 760 OFFCURVE",
"114 689 OFFCURVE",
"81 588 CURVE SMOOTH",
"70 555 OFFCURVE",
"61 503 OFFCURVE",
"58 418 CURVE",
"8 339 LINE",
"17 315 LINE",
"58 315 LINE",
"58 250 OFFCURVE",
"60 167 OFFCURVE",
"63 82 CURVE",
"48 65 OFFCURVE",
"29 52 OFFCURVE",
"9 45 CURVE"
);
},
{
closed = 1;
nodes = (
"348 297 OFFCURVE",
"350 250 OFFCURVE",
"350 197 CURVE SMOOTH",
"350 154 OFFCURVE",
"349 113 OFFCURVE",
"348 78 CURVE",
"333 67 OFFCURVE",
"316 58 OFFCURVE",
"299 51 CURVE",
"303 -6 LINE",
"344 -1 OFFCURVE",
"386 0 OFFCURVE",
"414 0 CURVE SMOOTH",
"446 0 OFFCURVE",
"502 1 OFFCURVE",
"550 -6 CURVE",
"552 50 LINE",
"533 58 OFFCURVE",
"518 67 OFFCURVE",
"505 79 CURVE",
"503 123 OFFCURVE",
"503 177 OFFCURVE",
"503 231 CURVE SMOOTH",
"503 314 OFFCURVE",
"504 377 OFFCURVE",
"509 432 CURVE",
"472 439 LINE",
"425 423 OFFCURVE",
"351 416 OFFCURVE",
"307 414 CURVE",
"303 355 LINE",
"316 352 OFFCURVE",
"329 345 OFFCURVE",
"343 331 CURVE"
);
}
);
width = 558;
}
);
note = longs_i;
},
{
glyphname = longs_l;
layers = (
{
layerId = "12E5A654-CA13-4855-9DF9-FF4C09D128B7";
paths = (
{
closed = 1;
nodes = (
"17 -3 LINE",
"60 1 OFFCURVE",
"113 3 OFFCURVE",
"144 3 CURVE SMOOTH",
"215 3 OFFCURVE",
"224 2 OFFCURVE",
"295 -7 CURVE",
"301 49 LINE",
"277 53 OFFCURVE",
"260 60 OFFCURVE",
"247 68 CURVE",
"243 180 OFFCURVE",
"242 326 OFFCURVE",
"242 412 CURVE SMOOTH",
"242 519 OFFCURVE",
"245 557 OFFCURVE",
"248 582 CURVE SMOOTH",
"254 631 OFFCURVE",
"266 664 OFFCURVE",
"288 664 CURVE",
"363 610 LINE",
"369 545 OFFCURVE",
"375 471 OFFCURVE",
"375 355 CURVE SMOOTH",
"375 244 OFFCURVE",
"373 142 OFFCURVE",
"364 75 CURVE",
"353 62 OFFCURVE",
"340 53 OFFCURVE",
"324 48 CURVE",
"326 -3 LINE",
"360 0 OFFCURVE",
"389 2 OFFCURVE",
"413 2 CURVE SMOOTH",
"440 2 OFFCURVE",
"564 1 OFFCURVE",
"604 -3 CURVE",
"606 50 LINE",
"589 56 OFFCURVE",
"576 64 OFFCURVE",
"564 75 CURVE",
"556 147 OFFCURVE",
"552 250 OFFCURVE",
"552 367 CURVE SMOOTH",
"552 438 OFFCURVE",
"550 514 OFFCURVE",
"550 584 CURVE SMOOTH",
"550 649 OFFCURVE",
"552 707 OFFCURVE",
"558 750 CURVE",
"516 760 LINE",
"492 748 OFFCURVE",
"453 733 OFFCURVE",
"438 730 CURVE",
"405 749 OFFCURVE",
"373 760 OFFCURVE",
"336 760 CURVE SMOOTH",
"249 760 OFFCURVE",
"119 689 OFFCURVE",
"86 588 CURVE SMOOTH",
"75 555 OFFCURVE",
"66 503 OFFCURVE",
"63 418 CURVE",
"13 339 LINE",
"22 315 LINE",
"63 315 LINE",
"63 250 OFFCURVE",
"65 167 OFFCURVE",
"68 82 CURVE",
"53 65 OFFCURVE",
"34 52 OFFCURVE",
"14 45 CURVE"
);
}
);
width = 615;
}
);
note = longs_l;
},
{
glyphname = longs_longs;
layers = (
{
layerId = "12E5A654-CA13-4855-9DF9-FF4C09D128B7";
paths = (
{
closed = 1;
nodes = (
"319 -3 LINE",
"362 1 OFFCURVE",
"415 3 OFFCURVE",
"446 3 CURVE SMOOTH",
"517 3 OFFCURVE",
"576 2 OFFCURVE",
"647 -7 CURVE",
"653 49 LINE",
"612 56 OFFCURVE",
"578 70 OFFCURVE",
"548 87 CURVE",
"545 196 OFFCURVE",
"544 330 OFFCURVE",
"544 412 CURVE SMOOTH",
"544 519 OFFCURVE",
"547 557 OFFCURVE",
"550 582 CURVE SMOOTH",
"556 631 OFFCURVE",
"568 664 OFFCURVE",
"590 664 CURVE",
"663 581 LINE",
"709 586 OFFCURVE",
"769 655 OFFCURVE",
"775 711 CURVE",
"755 734 OFFCURVE",
"695 760 OFFCURVE",
"646 760 CURVE SMOOTH",
"551 760 OFFCURVE",
"421 689 OFFCURVE",
"388 588 CURVE SMOOTH",
"377 554 OFFCURVE",
"368 501 OFFCURVE",
"365 413 CURVE",
"318 339 LINE",
"327 315 LINE",
"365 315 LINE",
"365 250 OFFCURVE",
"367 167 OFFCURVE",
"370 82 CURVE",
"355 65 OFFCURVE",
"336 52 OFFCURVE",
"316 45 CURVE"
);
},
{
closed = 1;
nodes = (
"12 -3 LINE",
"55 1 OFFCURVE",
"108 3 OFFCURVE",
"139 3 CURVE SMOOTH",
"180 3 OFFCURVE",
"236 0 OFFCURVE",
"282 -6 CURVE",
"288 50 LINE",
"272 56 OFFCURVE",
"258 62 OFFCURVE",
"247 69 CURVE",
"243 180 OFFCURVE",
"242 326 OFFCURVE",
"242 412 CURVE SMOOTH",
"242 519 OFFCURVE",
"245 544 OFFCURVE",
"248 569 CURVE SMOOTH",
"254 618 OFFCURVE",
"263 642 OFFCURVE",
"285 642 CURVE",
"319 587 LINE",
"365 592 OFFCURVE",
"413 656 OFFCURVE",
"419 712 CURVE",
"399 735 OFFCURVE",
"371 736 OFFCURVE",
"322 736 CURVE SMOOTH",
"227 736 OFFCURVE",
"119 676 OFFCURVE",
"86 575 CURVE SMOOTH",
"75 541 OFFCURVE",
"66 498 OFFCURVE",
"63 413 CURVE",
"16 339 LINE",
"25 315 LINE",
"63 315 LINE",
"63 251 OFFCURVE",
"65 171 OFFCURVE",
"68 87 CURVE",
"51 68 OFFCURVE",
"31 53 OFFCURVE",
"9 45 CURVE"
);
}
);
width = 655;
}
);
note = longs_longs;
},
{
glyphname = zero;
layers = (
{
layerId = "12E5A654-CA13-4855-9DF9-FF4C09D128B7";
paths = (
{
closed = 1;
nodes = (
"40 83 OFFCURVE",
"186 -20 OFFCURVE",
"354 -20 CURVE SMOOTH",
"513 -20 OFFCURVE",
"646 81 OFFCURVE",
"646 250 CURVE SMOOTH",
"646 420 OFFCURVE",
"483 490 OFFCURVE",
"348 490 CURVE SMOOTH",
"142 490 OFFCURVE",
"40 373 OFFCURVE",
"40 230 CURVE SMOOTH"
);
},
{
closed = 1;
nodes = (
"361 422 OFFCURVE",
"432 342 OFFCURVE",
"432 187 CURVE SMOOTH",
"432 118 OFFCURVE",
"401 51 OFFCURVE",
"365 51 CURVE SMOOTH",
"322 51 OFFCURVE",
"264 113 OFFCURVE",
"264 279 CURVE SMOOTH",
"264 371 OFFCURVE",
"298 422 OFFCURVE",
"329 422 CURVE SMOOTH"
);
}
);
width = 686;
}
);
note = zero;
unicode = 0030;
},
{
glyphname = one;
layers = (
{
layerId = "12E5A654-CA13-4855-9DF9-FF4C09D128B7";
paths = (
{
closed = 1;
nodes = (
"43 -8 LINE",
"88 -1 OFFCURVE",
"191 1 OFFCURVE",
"242 1 CURVE SMOOTH",
"306 1 OFFCURVE",
"360 -3 OFFCURVE",
"413 -8 CURVE",
"419 52 LINE",
"391 59 OFFCURVE",
"365 66 OFFCURVE",
"342 76 CURVE",
"336 131 OFFCURVE",
"334 186 OFFCURVE",
"334 250 CURVE SMOOTH",
"334 318 OFFCURVE",
"341 391 OFFCURVE",
"354 480 CURVE",
"272 490 LINE",
"230 452 OFFCURVE",
"97 421 OFFCURVE",
"41 412 CURVE",
"47 340 LINE",
"121 340 LINE",
"127 275 OFFCURVE",
"129 242 OFFCURVE",
"129 207 CURVE SMOOTH",
"129 175 LINE SMOOTH",
"129 147 OFFCURVE",
"129 114 OFFCURVE",
"125 80 CURVE",
"100 65 OFFCURVE",
"72 54 OFFCURVE",
"40 47 CURVE"
);
}
);
width = 444;
}
);
note = one;
unicode = 0031;
},
{
glyphname = two;
layers = (
{
layerId = "12E5A654-CA13-4855-9DF9-FF4C09D128B7";
paths = (
{
closed = 1;
nodes = (
"52 -11 LINE",
"117 -3 OFFCURVE",
"175 0 OFFCURVE",
"244 0 CURVE SMOOTH",
"340 0 OFFCURVE",
"442 -4 OFFCURVE",
"503 -9 CURVE",
"552 193 LINE",
"481 218 LINE",
"426 150 LINE",
"403 140 OFFCURVE",
"370 136 OFFCURVE",
"346 136 CURVE SMOOTH",
"314 136 OFFCURVE",
"287 138 OFFCURVE",
"268 146 CURVE",
"382 188 OFFCURVE",
"506 256 OFFCURVE",
"506 358 CURVE SMOOTH",
"506 465 OFFCURVE",
"403 490 OFFCURVE",
"322 490 CURVE SMOOTH",
"193 490 OFFCURVE",
"101 426 OFFCURVE",
"59 380 CURVE",
"95 318 LINE",
"144 344 OFFCURVE",
"171 356 OFFCURVE",
"209 356 CURVE SMOOTH",
"241 356 OFFCURVE",
"256 341 OFFCURVE",
"256 319 CURVE SMOOTH",
"256 273 OFFCURVE",
"223 221 OFFCURVE",
"32 67 CURVE"
);
}
);
width = 579;
}
);
note = two;
unicode = 0032;
},
{
glyphname = three;
layers = (
{
layerId = "12E5A654-CA13-4855-9DF9-FF4C09D128B7";
paths = (
{
closed = 1;
nodes = (
"32 -173 LINE",
"74 -200 OFFCURVE",
"121 -219 OFFCURVE",
"200 -219 CURVE SMOOTH",
"335 -219 OFFCURVE",
"512 -151 OFFCURVE",
"512 33 CURVE SMOOTH",
"512 182 OFFCURVE",
"423 220 OFFCURVE",
"355 250 CURVE",
"505 428 LINE",
"485 470 LINE",
"151 470 LINE",
"90 492 LINE",
"40 322 LINE",
"86 293 LINE",
"147 354 LINE",
"283 354 LINE",
"145 171 LINE",
"155 132 LINE",
"225 115 OFFCURVE",
"284 78 OFFCURVE",
"284 0 CURVE SMOOTH",
"284 -83 OFFCURVE",
"212 -119 OFFCURVE",
"147 -119 CURVE SMOOTH",
"120 -119 OFFCURVE",
"93 -112 OFFCURVE",
"69 -97 CURVE"
);
}
);
width = 554;
}
);
note = three;
unicode = 0033;
},
{
glyphname = four;
layers = (
{
layerId = "12E5A654-CA13-4855-9DF9-FF4C09D128B7";
paths = (
{
closed = 1;
nodes = (
"346 490 LINE",
"26 49 LINE",
"46 0 LINE",
"289 0 LINE",
"288 -62 OFFCURVE",
"288 -123 OFFCURVE",
"288 -172 CURVE",
"322 -192 LINE",
"368 -178 OFFCURVE",
"435 -172 OFFCURVE",
"492 -172 CURVE",
"492 -12 LINE",
"522 -16 OFFCURVE",
"545 -22 OFFCURVE",
"557 -29 CURVE",
"572 -28 LINE",
"616 57 LINE",
"585 92 LINE",
"512 82 LINE",
"494 82 LINE",
"497 237 OFFCURVE",
"503 378 OFFCURVE",
"516 475 CURVE"
);
},
{
closed = 1;
nodes = (
"311 309 LINE",
"301 259 OFFCURVE",
"296 173 OFFCURVE",
"292 82 CURVE",
"176 82 LINE"
);
}
);
width = 630;
}
);
note = four;
unicode = 0034;
},
{
glyphname = five;
layers = (
{
layerId = "12E5A654-CA13-4855-9DF9-FF4C09D128B7";
paths = (
{
closed = 1;
nodes = (
"1 -174 LINE",
"44 -209 OFFCURVE",
"122 -220 OFFCURVE",
"164 -220 CURVE SMOOTH",
"361 -220 OFFCURVE",
"481 -109 OFFCURVE",
"481 44 CURVE SMOOTH",
"481 207 OFFCURVE",
"349 264 OFFCURVE",
"202 278 CURVE",
"219 340 LINE",
"252 329 OFFCURVE",
"282 324 OFFCURVE",
"309 324 CURVE SMOOTH",
"391 324 OFFCURVE",
"449 368 OFFCURVE",
"477 420 CURVE",
"444 486 LINE",
"397 470 OFFCURVE",
"303 470 OFFCURVE",
"134 470 CURVE",
"49 169 LINE",
"67 129 LINE",
"213 118 OFFCURVE",
"256 64 OFFCURVE",
"256 -10 CURVE SMOOTH",
"256 -88 OFFCURVE",
"195 -121 OFFCURVE",
"121 -121 CURVE SMOOTH",
"92 -121 OFFCURVE",
"65 -113 OFFCURVE",
"37 -96 CURVE"
);
}
);
width = 539;
}
);
note = five;
unicode = 0035;
},
{
glyphname = six;
layers = (
{
layerId = "12E5A654-CA13-4855-9DF9-FF4C09D128B7";
paths = (
{
closed = 1;
nodes = (
"542 739 LINE",
"216 711 OFFCURVE",
"30 552 OFFCURVE",
"30 270 CURVE SMOOTH",
"30 115 OFFCURVE",
"141 -19 OFFCURVE",
"352 -19 CURVE SMOOTH",
"483 -19 OFFCURVE",
"636 76 OFFCURVE",
"636 248 CURVE SMOOTH",
"636 380 OFFCURVE",
"550 438 OFFCURVE",
"427 438 CURVE SMOOTH",
"351 438 OFFCURVE",
"305 415 OFFCURVE",
"274 392 CURVE",
"291 320 LINE",
"302 325 OFFCURVE",
"320 329 OFFCURVE",
"338 329 CURVE SMOOTH",
"395 329 OFFCURVE",
"431 280 OFFCURVE",
"431 199 CURVE SMOOTH",
"431 147 OFFCURVE",
"413 81 OFFCURVE",
"353 81 CURVE SMOOTH",
"295 81 OFFCURVE",
"242 127 OFFCURVE",
"242 281 CURVE SMOOTH",
"242 480 OFFCURVE",
"350 612 OFFCURVE",
"567 673 CURVE"
);
}
);
width = 676;
}
);
note = six;
unicode = 0036;
},
{
glyphname = seven;
layers = (
{
layerId = "12E5A654-CA13-4855-9DF9-FF4C09D128B7";
paths = (
{
closed = 1;
nodes = (
"321 -182 OFFCURVE",
"359 -175 OFFCURVE",
"381 -170 CURVE",
"390 38 OFFCURVE",
"403 203 OFFCURVE",
"595 418 CURVE",
"568 470 LINE",
"179 470 LINE",
"93 495 LINE",
"40 247 LINE",
"106 230 LINE",
"153 311 LINE",
"179 317 OFFCURVE",
"222 319 OFFCURVE",
"264 319 CURVE SMOOTH",
"303 319 OFFCURVE",
"341 317 OFFCURVE",
"368 311 CURVE",
"233 190 OFFCURVE",
"167 45 OFFCURVE",
"162 -170 CURVE",
"196 -177 OFFCURVE",
"235 -182 OFFCURVE",
"280 -182 CURVE SMOOTH"
);
}
);
width = 635;
}
);
note = seven;
unicode = 0037;
},
{
glyphname = eight;
layers = (
{
layerId = "12E5A654-CA13-4855-9DF9-FF4C09D128B7";
paths = (
{
closed = 1;
nodes = (
"193 710 OFFCURVE",
"81 629 OFFCURVE",
"81 510 CURVE SMOOTH",
"81 433 OFFCURVE",
"132 375 OFFCURVE",
"192 326 CURVE",
"84 278 OFFCURVE",
"50 220 OFFCURVE",
"50 150 CURVE SMOOTH",
"50 41 OFFCURVE",
"147 -20 OFFCURVE",
"329 -20 CURVE SMOOTH",
"506 -20 OFFCURVE",
"624 71 OFFCURVE",
"624 197 CURVE SMOOTH",
"624 292 OFFCURVE",
"542 351 OFFCURVE",
"458 403 CURVE",
"539 439 OFFCURVE",
"587 489 OFFCURVE",
"587 551 CURVE SMOOTH",
"587 637 OFFCURVE",
"487 710 OFFCURVE",
"340 710 CURVE SMOOTH"
);
},
{
closed = 1;
nodes = (
"395 70 OFFCURVE",
"368 55 OFFCURVE",
"338 55 CURVE SMOOTH",
"298 55 OFFCURVE",
"266 93 OFFCURVE",
"266 154 CURVE SMOOTH",
"266 176 OFFCURVE",
"268 215 OFFCURVE",
"286 255 CURVE",
"346 210 OFFCURVE",
"395 166 OFFCURVE",
"395 112 CURVE SMOOTH"
);
},
{
closed = 1;
nodes = (
"280 604 OFFCURVE",
"299 632 OFFCURVE",
"337 632 CURVE SMOOTH",
"375 632 OFFCURVE",
"405 602 OFFCURVE",
"405 543 CURVE SMOOTH",
"405 507 OFFCURVE",
"398 477 OFFCURVE",
"387 447 CURVE",
"327 485 OFFCURVE",
"280 523 OFFCURVE",
"280 575 CURVE SMOOTH"
);
}
);
width = 674;
}
);
note = eight;
unicode = 0038;
},
{
glyphname = nine;
layers = (
{
layerId = "12E5A654-CA13-4855-9DF9-FF4C09D128B7";
paths = (
{
closed = 1;
nodes = (
"134 -238 LINE",
"460 -210 OFFCURVE",
"646 -89 OFFCURVE",
"646 193 CURVE SMOOTH",
"646 348 OFFCURVE",
"535 490 OFFCURVE",
"324 490 CURVE SMOOTH",
"193 490 OFFCURVE",
"40 405 OFFCURVE",
"40 233 CURVE SMOOTH",
"40 101 OFFCURVE",
"126 33 OFFCURVE",
"249 33 CURVE SMOOTH",
"325 33 OFFCURVE",
"371 56 OFFCURVE",
"402 79 CURVE",
"385 151 LINE",
"374 146 OFFCURVE",
"356 142 OFFCURVE",
"338 142 CURVE SMOOTH",
"281 142 OFFCURVE",
"245 188 OFFCURVE",
"245 269 CURVE SMOOTH",
"245 321 OFFCURVE",
"263 390 OFFCURVE",
"323 390 CURVE SMOOTH",
"381 390 OFFCURVE",
"434 342 OFFCURVE",
"434 188 CURVE SMOOTH",
"434 -11 OFFCURVE",
"315 -105 OFFCURVE",
"109 -172 CURVE"
);
}
);
width = 676;
}
);
note = nine;
unicode = 0039;
},
{
glyphname = zero.lf;
layers = (
{
layerId = "12E5A654-CA13-4855-9DF9-FF4C09D128B7";
paths = (
{
closed = 1;
nodes = (
"40 127 OFFCURVE",
"186 -20 OFFCURVE",
"354 -20 CURVE SMOOTH",
"513 -20 OFFCURVE",
"646 125 OFFCURVE",
"646 367 CURVE SMOOTH",
"646 611 OFFCURVE",
"483 711 OFFCURVE",
"348 711 CURVE SMOOTH",
"142 711 OFFCURVE",
"40 543 OFFCURVE",
"40 339 CURVE SMOOTH"
);
},
{
closed = 1;
nodes = (
"361 613 OFFCURVE",
"432 499 OFFCURVE",
"432 277 CURVE SMOOTH",
"432 178 OFFCURVE",
"401 82 OFFCURVE",
"365 82 CURVE SMOOTH",
"322 82 OFFCURVE",
"264 170 OFFCURVE",
"264 409 CURVE SMOOTH",
"264 541 OFFCURVE",
"298 613 OFFCURVE",
"329 613 CURVE SMOOTH"
);
}
);
width = 686;
}
);
note = zero.lf;
},
{
glyphname = one.lf;
layers = (
{
layerId = "12E5A654-CA13-4855-9DF9-FF4C09D128B7";
paths = (
{
closed = 1;
nodes = (
"43 -8 LINE",
"88 -1 OFFCURVE",
"191 1 OFFCURVE",
"242 1 CURVE SMOOTH",
"306 1 OFFCURVE",
"360 -3 OFFCURVE",
"413 -8 CURVE",
"419 52 LINE",
"391 58 OFFCURVE",
"365 65 OFFCURVE",
"342 76 CURVE",
"336 152 OFFCURVE",
"334 261 OFFCURVE",
"334 367 CURVE SMOOTH",
"334 504 OFFCURVE",
"341 611 OFFCURVE",
"354 700 CURVE",
"272 710 LINE",
"230 672 OFFCURVE",
"97 641 OFFCURVE",
"41 632 CURVE",
"47 560 LINE",
"121 560 LINE",
"127 495 OFFCURVE",
"132 433 OFFCURVE",
"132 317 CURVE SMOOTH",
"132 221 OFFCURVE",
"131 141 OFFCURVE",
"125 80 CURVE",
"100 65 OFFCURVE",
"72 54 OFFCURVE",
"40 47 CURVE"
);
}
);
width = 444;
}
);
note = one.lf;
},
{
glyphname = two.lf;
layers = (
{
layerId = "12E5A654-CA13-4855-9DF9-FF4C09D128B7";
paths = (
{
closed = 1;
nodes = (
"103 538 LINE",
"152 564 OFFCURVE",
"202 576 OFFCURVE",
"239 576 CURVE SMOOTH",
"279 576 OFFCURVE",
"316 554 OFFCURVE",
"316 494 CURVE SMOOTH",
"316 414 OFFCURVE",
"169 209 OFFCURVE",
"40 67 CURVE",
"60 -11 LINE",
"125 -3 OFFCURVE",
"213 0 OFFCURVE",
"282 0 CURVE SMOOTH",
"378 0 OFFCURVE",
"480 -4 OFFCURVE",
"541 -9 CURVE",
"590 193 LINE",
"519 218 LINE",
"464 149 LINE",
"431 140 OFFCURVE",
"385 136 OFFCURVE",
"351 136 CURVE SMOOTH",
"305 136 OFFCURVE",
"268 138 OFFCURVE",
"241 145 CURVE",
"363 230 OFFCURVE",
"544 373 OFFCURVE",
"544 522 CURVE SMOOTH",
"544 664 OFFCURVE",
"431 710 OFFCURVE",
"341 710 CURVE SMOOTH",
"194 710 OFFCURVE",
"109 646 OFFCURVE",
"67 600 CURVE"
);
}
);
width = 609;
}
);
note = two.lf;
},
{
glyphname = three.lf;
layers = (
{
layerId = "12E5A654-CA13-4855-9DF9-FF4C09D128B7";
paths = (
{
closed = 1;
nodes = (
"40 27 LINE",
"82 0 OFFCURVE",
"129 -19 OFFCURVE",
"208 -19 CURVE SMOOTH",
"343 -19 OFFCURVE",
"520 64 OFFCURVE",
"520 248 CURVE SMOOTH",
"520 397 OFFCURVE",
"431 440 OFFCURVE",
"363 470 CURVE",
"513 658 LINE",
"493 700 LINE",
"159 700 LINE",
"98 722 LINE",
"48 552 LINE",
"94 523 LINE",
"155 584 LINE",
"291 584 LINE",
"153 391 LINE",
"163 352 LINE",
"233 335 OFFCURVE",
"292 291 OFFCURVE",
"292 213 CURVE SMOOTH",
"292 130 OFFCURVE",
"220 81 OFFCURVE",
"155 81 CURVE SMOOTH",
"128 81 OFFCURVE",
"101 88 OFFCURVE",
"77 103 CURVE"
);
}
);
width = 570;
}
);
note = three.lf;
},
{
glyphname = four.lf;
layers = (
{
layerId = "12E5A654-CA13-4855-9DF9-FF4C09D128B7";
paths = (
{
closed = 1;
nodes = (
"330 710 LINE",
"10 237 LINE",
"30 188 LINE",
"273 188 LINE",
"273 152 OFFCURVE",
"272 117 OFFCURVE",
"272 84 CURVE",
"245 67 OFFCURVE",
"213 53 OFFCURVE",
"189 47 CURVE",
"191 -10 LINE",
"225 -5 OFFCURVE",
"293 0 OFFCURVE",
"338 0 CURVE SMOOTH",
"380 0 OFFCURVE",
"513 -3 OFFCURVE",
"553 -11 CURVE",
"556 48 LINE",
"529 55 OFFCURVE",
"500 66 OFFCURVE",
"476 79 CURVE",
"476 175 LINE",
"506 171 OFFCURVE",
"529 166 OFFCURVE",
"541 159 CURVE",
"556 160 LINE",
"600 275 LINE",
"569 310 LINE",
"496 270 LINE",
"477 270 LINE",
"480 438 OFFCURVE",
"487 593 OFFCURVE",
"500 695 CURVE"
);
},
{
closed = 1;
nodes = (
"295 504 LINE",
"285 451 OFFCURVE",
"278 362 OFFCURVE",
"275 270 CURVE",
"160 270 LINE"
);
}
);
width = 630;
}
);
note = four.lf;
},
{
glyphname = five.lf;
layers = (
{
layerId = "12E5A654-CA13-4855-9DF9-FF4C09D128B7";
paths = (
{
closed = 1;
nodes = (
"40 27 LINE",
"83 -8 OFFCURVE",
"161 -19 OFFCURVE",
"203 -19 CURVE SMOOTH",
"400 -19 OFFCURVE",
"520 112 OFFCURVE",
"520 265 CURVE SMOOTH",
"520 428 OFFCURVE",
"388 484 OFFCURVE",
"241 498 CURVE",
"258 570 LINE",
"291 559 OFFCURVE",
"321 554 OFFCURVE",
"348 554 CURVE SMOOTH",
"430 554 OFFCURVE",
"488 598 OFFCURVE",
"516 650 CURVE",
"483 716 LINE",
"436 700 OFFCURVE",
"342 700 OFFCURVE",
"173 700 CURVE",
"88 379 LINE",
"106 339 LINE",
"252 328 OFFCURVE",
"295 274 OFFCURVE",
"295 200 CURVE SMOOTH",
"295 122 OFFCURVE",
"234 80 OFFCURVE",
"160 80 CURVE SMOOTH",
"131 80 OFFCURVE",
"104 88 OFFCURVE",
"76 105 CURVE"
);
}
);
width = 570;
}
);
note = five.lf;
},
{
glyphname = six.lf;
layers = (
{
layerId = "12E5A654-CA13-4855-9DF9-FF4C09D128B7";
paths = (
{
closed = 1;
nodes = (
"542 739 LINE",
"216 711 OFFCURVE",
"30 552 OFFCURVE",
"30 270 CURVE SMOOTH",
"30 115 OFFCURVE",
"141 -19 OFFCURVE",
"352 -19 CURVE SMOOTH",
"483 -19 OFFCURVE",
"636 76 OFFCURVE",
"636 248 CURVE SMOOTH",
"636 380 OFFCURVE",
"550 438 OFFCURVE",
"427 438 CURVE SMOOTH",
"351 438 OFFCURVE",
"305 415 OFFCURVE",
"274 392 CURVE",
"291 320 LINE",
"302 325 OFFCURVE",
"320 329 OFFCURVE",
"338 329 CURVE SMOOTH",
"395 329 OFFCURVE",
"431 280 OFFCURVE",
"431 199 CURVE SMOOTH",
"431 147 OFFCURVE",
"413 81 OFFCURVE",
"353 81 CURVE SMOOTH",
"295 81 OFFCURVE",
"242 127 OFFCURVE",
"242 281 CURVE SMOOTH",
"242 480 OFFCURVE",
"350 612 OFFCURVE",
"567 673 CURVE"
);
}
);
width = 676;
}
);
note = six.lf;
},
{
glyphname = seven.lf;
layers = (
{
layerId = "12E5A654-CA13-4855-9DF9-FF4C09D128B7";
paths = (
{
closed = 1;
nodes = (
"321 -12 OFFCURVE",
"359 -5 OFFCURVE",
"381 0 CURVE",
"390 208 OFFCURVE",
"403 433 OFFCURVE",
"595 648 CURVE",
"568 700 LINE",
"179 700 LINE",
"93 725 LINE",
"40 477 LINE",
"106 460 LINE",
"153 541 LINE",
"179 547 OFFCURVE",
"222 549 OFFCURVE",
"264 549 CURVE SMOOTH",
"303 549 OFFCURVE",
"341 547 OFFCURVE",
"368 541 CURVE",
"233 420 OFFCURVE",
"167 215 OFFCURVE",
"162 0 CURVE",
"196 -7 OFFCURVE",
"235 -12 OFFCURVE",
"280 -12 CURVE SMOOTH"
);
}
);
width = 635;
}
);
note = seven.lf;
},
{
glyphname = eight.lf;
layers = (
{
layerId = "12E5A654-CA13-4855-9DF9-FF4C09D128B7";
paths = (
{
closed = 1;
nodes = (
"193 710 OFFCURVE",
"81 629 OFFCURVE",
"81 510 CURVE SMOOTH",
"81 433 OFFCURVE",
"132 375 OFFCURVE",
"192 326 CURVE",
"84 278 OFFCURVE",
"50 220 OFFCURVE",
"50 150 CURVE SMOOTH",
"50 41 OFFCURVE",
"147 -20 OFFCURVE",
"329 -20 CURVE SMOOTH",
"506 -20 OFFCURVE",
"624 71 OFFCURVE",
"624 197 CURVE SMOOTH",
"624 292 OFFCURVE",
"542 351 OFFCURVE",
"458 403 CURVE",
"539 439 OFFCURVE",
"587 489 OFFCURVE",
"587 551 CURVE SMOOTH",
"587 637 OFFCURVE",
"487 710 OFFCURVE",
"340 710 CURVE SMOOTH"
);
},
{
closed = 1;
nodes = (
"395 70 OFFCURVE",
"368 55 OFFCURVE",
"338 55 CURVE SMOOTH",
"298 55 OFFCURVE",
"266 93 OFFCURVE",
"266 154 CURVE SMOOTH",
"266 176 OFFCURVE",
"268 215 OFFCURVE",
"286 255 CURVE",
"346 210 OFFCURVE",
"395 166 OFFCURVE",
"395 112 CURVE SMOOTH"
);
},
{
closed = 1;
nodes = (
"280 604 OFFCURVE",
"299 632 OFFCURVE",
"337 632 CURVE SMOOTH",
"375 632 OFFCURVE",
"405 602 OFFCURVE",
"405 543 CURVE SMOOTH",
"405 507 OFFCURVE",
"398 477 OFFCURVE",
"387 447 CURVE",
"327 485 OFFCURVE",
"280 523 OFFCURVE",
"280 575 CURVE SMOOTH"
);
}
);
width = 674;
}
);
note = eight.lf;
},
{
glyphname = nine.lf;
layers = (
{
layerId = "12E5A654-CA13-4855-9DF9-FF4C09D128B7";
paths = (
{
closed = 1;
nodes = (
"134 -48 LINE",
"460 -20 OFFCURVE",
"646 111 OFFCURVE",
"646 393 CURVE SMOOTH",
"646 548 OFFCURVE",
"535 710 OFFCURVE",
"324 710 CURVE SMOOTH",
"193 710 OFFCURVE",
"40 615 OFFCURVE",
"40 443 CURVE SMOOTH",
"40 311 OFFCURVE",
"126 233 OFFCURVE",
"249 233 CURVE SMOOTH",
"325 233 OFFCURVE",
"371 256 OFFCURVE",
"402 279 CURVE",
"385 351 LINE",
"374 346 OFFCURVE",
"356 342 OFFCURVE",
"338 342 CURVE SMOOTH",
"281 342 OFFCURVE",
"245 398 OFFCURVE",
"245 479 CURVE SMOOTH",
"245 531 OFFCURVE",
"263 610 OFFCURVE",
"323 610 CURVE SMOOTH",
"381 610 OFFCURVE",
"434 542 OFFCURVE",
"434 388 CURVE SMOOTH",
"434 189 OFFCURVE",
"326 79 OFFCURVE",
"109 18 CURVE"
);
}
);
width = 676;
}
);
note = nine.lf;
},
{
glyphname = period;
layers = (
{
layerId = "12E5A654-CA13-4855-9DF9-FF4C09D128B7";
paths = (
{
closed = 1;
nodes = (
"50 26 OFFCURVE",
"89 -20 OFFCURVE",
"148 -20 CURVE SMOOTH",
"208 -20 OFFCURVE",
"262 33 OFFCURVE",
"262 102 CURVE SMOOTH",
"262 159 OFFCURVE",
"221 205 OFFCURVE",
"162 205 CURVE SMOOTH",
"103 205 OFFCURVE",
"50 152 OFFCURVE",
"50 84 CURVE SMOOTH"
);
}
);
width = 312;
}
);
leftKerningGroup = comma;
note = period;
rightKerningGroup = comma;
unicode = 002E;
},
{
glyphname = comma;
layers = (
{
layerId = "12E5A654-CA13-4855-9DF9-FF4C09D128B7";
paths = (
{
closed = 1;
nodes = (
"40 106 LINE",
"43 58 LINE",
"98 46 OFFCURVE",
"126 8 OFFCURVE",
"126 -31 CURVE SMOOTH",
"126 -63 OFFCURVE",
"114 -94 OFFCURVE",
"81 -127 CURVE",
"129 -170 LINE",
"194 -121 OFFCURVE",
"270 -49 OFFCURVE",
"270 58 CURVE SMOOTH",
"270 135 OFFCURVE",
"229 187 OFFCURVE",
"146 203 CURVE"
);
}
);
width = 330;
}
);
leftKerningGroup = comma;
note = comma;
rightKerningGroup = comma;
unicode = 002C;
},
{
glyphname = colon;
layers = (
{
layerId = "12E5A654-CA13-4855-9DF9-FF4C09D128B7";
paths = (
{
closed = 1;
nodes = (
"50 24 OFFCURVE",
"88 -20 OFFCURVE",
"144 -20 CURVE SMOOTH",
"202 -20 OFFCURVE",
"254 31 OFFCURVE",
"254 98 CURVE SMOOTH",
"254 153 OFFCURVE",
"215 197 OFFCURVE",
"158 197 CURVE SMOOTH",
"101 197 OFFCURVE",
"50 146 OFFCURVE",
"50 80 CURVE SMOOTH"
);
},
{
closed = 1;
nodes = (
"50 272 OFFCURVE",
"88 229 OFFCURVE",
"144 229 CURVE SMOOTH",
"202 229 OFFCURVE",
"254 279 OFFCURVE",
"254 344 CURVE SMOOTH",
"254 397 OFFCURVE",
"215 440 OFFCURVE",
"158 440 CURVE SMOOTH",
"101 440 OFFCURVE",
"50 390 OFFCURVE",
"50 326 CURVE SMOOTH"
);
}
);
width = 304;
}
);
note = colon;
unicode = 003A;
},
{
glyphname = semicolon;
layers = (
{
layerId = "12E5A654-CA13-4855-9DF9-FF4C09D128B7";
paths = (
{
closed = 1;
nodes = (
"50 272 OFFCURVE",
"88 229 OFFCURVE",
"144 229 CURVE SMOOTH",
"202 229 OFFCURVE",
"254 279 OFFCURVE",
"254 344 CURVE SMOOTH",
"254 397 OFFCURVE",
"215 440 OFFCURVE",
"158 440 CURVE SMOOTH",
"101 440 OFFCURVE",
"50 390 OFFCURVE",
"50 326 CURVE SMOOTH"
);
},
{
closed = 1;
nodes = (
"40 106 LINE",
"43 58 LINE",
"98 46 OFFCURVE",
"126 8 OFFCURVE",
"126 -31 CURVE SMOOTH",
"126 -63 OFFCURVE",
"114 -94 OFFCURVE",
"81 -127 CURVE",
"129 -170 LINE",
"194 -121 OFFCURVE",
"270 -49 OFFCURVE",
"270 58 CURVE SMOOTH",
"270 135 OFFCURVE",
"229 187 OFFCURVE",
"146 203 CURVE"
);
}
);
width = 330;
}
);
note = semicolon;
unicode = 003B;
},
{
glyphname = exclam;
layers = (
{
layerId = "12E5A654-CA13-4855-9DF9-FF4C09D128B7";
paths = (
{
closed = 1;
nodes = (
"317 709 LINE",
"70 680 LINE",
"70 623 LINE",
"121 594 LINE",
"164 250 LINE",
"279 250 LINE",
"284 439 OFFCURVE",
"319 570 OFFCURVE",
"343 687 CURVE"
);
},
{
closed = 1;
nodes = (
"110 26 OFFCURVE",
"149 -20 OFFCURVE",
"208 -20 CURVE SMOOTH",
"268 -20 OFFCURVE",
"322 33 OFFCURVE",
"322 102 CURVE SMOOTH",
"322 159 OFFCURVE",
"281 205 OFFCURVE",
"222 205 CURVE SMOOTH",
"163 205 OFFCURVE",
"110 152 OFFCURVE",
"110 84 CURVE SMOOTH"
);
}
);
width = 406;
}
);
note = exclam;
unicode = 0021;
},
{
glyphname = question;
layers = (
{
layerId = "12E5A654-CA13-4855-9DF9-FF4C09D128B7";
paths = (
{
closed = 1;
nodes = (
"66 537 LINE",
"148 506 LINE",
"159 593 OFFCURVE",
"204 621 OFFCURVE",
"238 621 CURVE SMOOTH",
"268 621 OFFCURVE",
"311 596 OFFCURVE",
"311 514 CURVE SMOOTH",
"311 465 OFFCURVE",
"293 410 OFFCURVE",
"242 410 CURVE SMOOTH",
"232 410 OFFCURVE",
"221 411 OFFCURVE",
"210 412 CURVE",
"156 362 LINE",
"180 324 OFFCURVE",
"189 291 OFFCURVE",
"201 220 CURVE",
"281 220 LINE",
"288 259 OFFCURVE",
"293 283 OFFCURVE",
"311 304 CURVE",
"411 304 OFFCURVE",
"486 372 OFFCURVE",
"486 495 CURVE SMOOTH",
"486 632 OFFCURVE",
"366 710 OFFCURVE",
"263 710 CURVE SMOOTH",
"194 710 OFFCURVE",
"138 692 OFFCURVE",
"76 646 CURVE"
);
},
{
closed = 1;
nodes = (
"126 20 OFFCURVE",
"165 -20 OFFCURVE",
"224 -20 CURVE SMOOTH",
"285 -20 OFFCURVE",
"339 26 OFFCURVE",
"339 87 CURVE SMOOTH",
"339 137 OFFCURVE",
"298 177 OFFCURVE",
"239 177 CURVE SMOOTH",
"179 177 OFFCURVE",
"126 131 OFFCURVE",
"126 71 CURVE SMOOTH"
);
}
);
width = 520;
}
);
note = question;
unicode = 003F;
},
{
glyphname = asterisk;
layers = (
{
layerId = "12E5A654-CA13-4855-9DF9-FF4C09D128B7";
paths = (
{
closed = 1;
nodes = (
"236 489 LINE",
"218 455 OFFCURVE",
"196 369 OFFCURVE",
"189 330 CURVE",
"205 310 OFFCURVE",
"221 302 OFFCURVE",
"245 302 CURVE SMOOTH",
"280 302 OFFCURVE",
"305 321 OFFCURVE",
"305 366 CURVE SMOOTH",
"305 401 OFFCURVE",
"289 454 OFFCURVE",
"271 489 CURVE"
);
},
{
closed = 1;
nodes = (
"270 573 LINE",
"288 607 OFFCURVE",
"310 693 OFFCURVE",
"317 732 CURVE",
"301 752 OFFCURVE",
"285 760 OFFCURVE",
"261 760 CURVE SMOOTH",
"226 760 OFFCURVE",
"201 741 OFFCURVE",
"201 696 CURVE SMOOTH",
"201 661 OFFCURVE",
"217 608 OFFCURVE",
"235 573 CURVE"
);
},
{
closed = 1;
nodes = (
"300 538 LINE",
"339 540 OFFCURVE",
"424 564 OFFCURVE",
"461 578 CURVE",
"466 590 OFFCURVE",
"468 601 OFFCURVE",
"468 611 CURVE SMOOTH",
"468 651 OFFCURVE",
"440 669 OFFCURVE",
"407 669 CURVE SMOOTH",
"353 669 OFFCURVE",
"308 607 OFFCURVE",
"283 569 CURVE"
);
},
{
closed = 1;
nodes = (
"281 498 LINE",
"301 464 OFFCURVE",
"361 400 OFFCURVE",
"390 373 CURVE",
"427 377 OFFCURVE",
"456 402 OFFCURVE",
"456 442 CURVE SMOOTH",
"456 499 OFFCURVE",
"339 524 OFFCURVE",
"301 527 CURVE"
);
},
{
closed = 1;
nodes = (
"208 524 LINE",
"169 522 OFFCURVE",
"84 498 OFFCURVE",
"47 484 CURVE",
"42 472 OFFCURVE",
"40 461 OFFCURVE",
"40 451 CURVE SMOOTH",
"40 411 OFFCURVE",
"68 393 OFFCURVE",
"101 393 CURVE SMOOTH",
"155 393 OFFCURVE",
"200 455 OFFCURVE",
"225 493 CURVE"
);
},
{
closed = 1;
nodes = (
"227 564 LINE",
"207 598 OFFCURVE",
"147 662 OFFCURVE",
"118 689 CURVE",
"81 685 OFFCURVE",
"52 660 OFFCURVE",
"52 620 CURVE SMOOTH",
"52 563 OFFCURVE",
"169 538 OFFCURVE",
"207 535 CURVE"
);
}
);
width = 508;
}
);
note = asterisk;
unicode = 002A;
},
{
glyphname = slash;
layers = (
{
layerId = "12E5A654-CA13-4855-9DF9-FF4C09D128B7";
paths = (
{
closed = 1;
nodes = (
"216 -228 LINE",
"248 -210 LINE",
"270 -39 OFFCURVE",
"464 515 OFFCURVE",
"530 678 CURVE",
"364 750 LINE",
"334 728 LINE",
"306 570 OFFCURVE",
"111 -9 OFFCURVE",
"30 -162 CURVE"
);
}
);
width = 560;
}
);
note = slash;
unicode = 002F;
},
{
glyphname = parenleft;
layers = (
{
layerId = "12E5A654-CA13-4855-9DF9-FF4C09D128B7";
paths = (
{
closed = 1;
nodes = (
"394 739 LINE",
"241 681 OFFCURVE",
"70 526 OFFCURVE",
"70 278 CURVE SMOOTH",
"70 38 OFFCURVE",
"160 -128 OFFCURVE",
"390 -220 CURVE",
"430 -170 LINE",
"345 -91 OFFCURVE",
"293 95 OFFCURVE",
"293 282 CURVE SMOOTH",
"293 523 OFFCURVE",
"365 637 OFFCURVE",
"429 700 CURVE"
);
}
);
width = 450;
}
);
note = parenleft;
unicode = 0028;
},
{
glyphname = parenright;
layers = (
{
layerId = "12E5A654-CA13-4855-9DF9-FF4C09D128B7";
paths = (
{
closed = 1;
nodes = (
"56 -220 LINE",
"209 -162 OFFCURVE",
"380 -7 OFFCURVE",
"380 241 CURVE SMOOTH",
"380 481 OFFCURVE",
"290 647 OFFCURVE",
"60 739 CURVE",
"20 689 LINE",
"105 610 OFFCURVE",
"157 424 OFFCURVE",
"157 237 CURVE SMOOTH",
"157 -4 OFFCURVE",
"85 -118 OFFCURVE",
"21 -181 CURVE"
);
}
);
width = 450;
}
);
note = parenright;
unicode = 0029;
},
{
glyphname = bracketleft;
layers = (
{
layerId = "12E5A654-CA13-4855-9DF9-FF4C09D128B7";
paths = (
{
closed = 1;
nodes = (
"408 -210 LINE",
"408 -141 LINE",
"318 -124 LINE",
"307 -13 OFFCURVE",
"304 97 OFFCURVE",
"304 246 CURVE SMOOTH",
"304 398 OFFCURVE",
"314 552 OFFCURVE",
"318 652 CURVE",
"408 668 LINE",
"408 739 LINE",
"80 739 LINE",
"87 652 OFFCURVE",
"96 477 OFFCURVE",
"96 246 CURVE SMOOTH",
"96 8 OFFCURVE",
"89 -111 OFFCURVE",
"80 -210 CURVE"
);
}
);
width = 428;
}
);
note = bracketleft;
unicode = 005B;
},
{
glyphname = bracketright;
layers = (
{
layerId = "12E5A654-CA13-4855-9DF9-FF4C09D128B7";
paths = (
{
closed = 1;
nodes = (
"20 739 LINE",
"20 670 LINE",
"110 653 LINE",
"121 542 OFFCURVE",
"124 432 OFFCURVE",
"124 283 CURVE SMOOTH",
"124 131 OFFCURVE",
"114 -23 OFFCURVE",
"110 -123 CURVE",
"20 -139 LINE",
"20 -210 LINE",
"348 -210 LINE",
"341 -123 OFFCURVE",
"332 52 OFFCURVE",
"332 283 CURVE SMOOTH",
"332 521 OFFCURVE",
"339 640 OFFCURVE",
"348 739 CURVE"
);
}
);
width = 428;
}
);
note = bracketright;
unicode = 005D;
},
{
glyphname = parenleft.case;
layers = (
{
layerId = "12E5A654-CA13-4855-9DF9-FF4C09D128B7";
paths = (
{
closed = 1;
nodes = (
"394 819 LINE",
"241 761 OFFCURVE",
"70 606 OFFCURVE",
"70 358 CURVE SMOOTH",
"70 118 OFFCURVE",
"160 -48 OFFCURVE",
"390 -140 CURVE",
"430 -90 LINE",
"345 -11 OFFCURVE",
"293 175 OFFCURVE",
"293 362 CURVE SMOOTH",
"293 603 OFFCURVE",
"365 717 OFFCURVE",
"429 780 CURVE"
);
}
);
width = 450;
}
);
note = parenleft.case;
},
{
glyphname = parenright.case;
layers = (
{
layerId = "12E5A654-CA13-4855-9DF9-FF4C09D128B7";
paths = (
{
closed = 1;
nodes = (
"56 -140 LINE",
"209 -82 OFFCURVE",
"380 73 OFFCURVE",
"380 321 CURVE SMOOTH",
"380 561 OFFCURVE",
"290 727 OFFCURVE",
"60 819 CURVE",
"20 769 LINE",
"105 690 OFFCURVE",
"157 504 OFFCURVE",
"157 317 CURVE SMOOTH",
"157 76 OFFCURVE",
"85 -38 OFFCURVE",
"21 -101 CURVE"
);
}
);
width = 450;
}
);
note = parenright.case;
},
{
glyphname = bracketleft.case;
layers = (
{
layerId = "12E5A654-CA13-4855-9DF9-FF4C09D128B7";
paths = (
{
closed = 1;
nodes = (
"408 -130 LINE",
"408 -61 LINE",
"318 -44 LINE",
"307 67 OFFCURVE",
"304 177 OFFCURVE",
"304 326 CURVE SMOOTH",
"304 478 OFFCURVE",
"314 632 OFFCURVE",
"318 732 CURVE",
"408 748 LINE",
"408 819 LINE",
"80 819 LINE",
"87 732 OFFCURVE",
"96 557 OFFCURVE",
"96 326 CURVE SMOOTH",
"96 88 OFFCURVE",
"89 -31 OFFCURVE",
"80 -130 CURVE"
);
}
);
width = 428;
}
);
note = bracketleft.case;
},
{
glyphname = bracketright.case;
layers = (
{
layerId = "12E5A654-CA13-4855-9DF9-FF4C09D128B7";
paths = (
{
closed = 1;
nodes = (
"20 819 LINE",
"20 750 LINE",
"110 733 LINE",
"121 622 OFFCURVE",
"124 512 OFFCURVE",
"124 363 CURVE SMOOTH",
"124 211 OFFCURVE",
"114 57 OFFCURVE",
"110 -43 CURVE",
"20 -59 LINE",
"20 -130 LINE",
"348 -130 LINE",
"341 -43 OFFCURVE",
"332 132 OFFCURVE",
"332 363 CURVE SMOOTH",
"332 601 OFFCURVE",
"339 720 OFFCURVE",
"348 819 CURVE"
);
}
);
width = 428;
}
);
note = bracketright.case;
},
{
glyphname = hyphen;
layers = (
{
layerId = "12E5A654-CA13-4855-9DF9-FF4C09D128B7";
paths = (
{
closed = 1;
nodes = (
"68 4 LINE",
"90 3 LINE",
"144 46 OFFCURVE",
"226 87 OFFCURVE",
"307 106 CURVE",
"292 222 LINE",
"272 237 LINE",
"205 196 OFFCURVE",
"123 149 OFFCURVE",
"40 120 CURVE"
);
},
{
closed = 1;
nodes = (
"68 195 LINE",
"90 194 LINE",
"144 236 OFFCURVE",
"226 278 OFFCURVE",
"307 297 CURVE",
"292 413 LINE",
"272 428 LINE",
"205 386 OFFCURVE",
"123 340 OFFCURVE",
"40 311 CURVE"
);
}
);
width = 347;
}
);
note = hyphen;
unicode = 002D;
},
{
glyphname = endash;
layers = (
{
layerId = "12E5A654-CA13-4855-9DF9-FF4C09D128B7";
paths = (
{
closed = 1;
nodes = (
"16 206 LINE",
"41 195 LINE",
"102 209 OFFCURVE",
"185 215 OFFCURVE",
"254 215 CURVE SMOOTH",
"356 215 OFFCURVE",
"446 208 OFFCURVE",
"521 199 CURVE",
"552 314 LINE",
"525 325 LINE",
"468 316 OFFCURVE",
"367 312 OFFCURVE",
"281 312 CURVE SMOOTH",
"175 312 OFFCURVE",
"109 315 OFFCURVE",
"37 321 CURVE"
);
}
);
width = 577;
}
);
note = endash;
unicode = 2013;
},
{
glyphname = emdash;
layers = (
{
layerId = "12E5A654-CA13-4855-9DF9-FF4C09D128B7";
paths = (
{
closed = 1;
nodes = (
"41 197 LINE",
"66 186 LINE",
"139 205 OFFCURVE",
"263 215 OFFCURVE",
"398 215 CURVE SMOOTH",
"500 215 OFFCURVE",
"666 211 OFFCURVE",
"772 205 CURVE",
"803 320 LINE",
"776 331 LINE",
"706 316 OFFCURVE",
"545 312 OFFCURVE",
"425 312 CURVE SMOOTH",
"319 312 OFFCURVE",
"145 314 OFFCURVE",
"61 321 CURVE"
);
}
);
width = 846;
}
);
note = emdash;
unicode = 2014;
},
{
glyphname = hyphen.case;
layers = (
{
layerId = "12E5A654-CA13-4855-9DF9-FF4C09D128B7";
paths = (
{
closed = 1;
nodes = (
"68 84 LINE",
"90 83 LINE",
"144 126 OFFCURVE",
"226 167 OFFCURVE",
"307 186 CURVE",
"292 302 LINE",
"272 317 LINE",
"205 276 OFFCURVE",
"123 229 OFFCURVE",
"40 200 CURVE"
);
},
{
closed = 1;
nodes = (
"68 275 LINE",
"90 274 LINE",
"144 316 OFFCURVE",
"226 358 OFFCURVE",
"307 377 CURVE",
"292 493 LINE",
"272 508 LINE",
"205 466 OFFCURVE",
"123 420 OFFCURVE",
"40 391 CURVE"
);
}
);
width = 347;
}
);
note = hyphen.case;
},
{
glyphname = endash.case;
layers = (
{
layerId = "12E5A654-CA13-4855-9DF9-FF4C09D128B7";
paths = (
{
closed = 1;
nodes = (
"16 286 LINE",
"41 275 LINE",
"102 289 OFFCURVE",
"185 295 OFFCURVE",
"254 295 CURVE SMOOTH",
"356 295 OFFCURVE",
"446 288 OFFCURVE",
"521 279 CURVE",
"552 394 LINE",
"525 405 LINE",
"468 396 OFFCURVE",
"367 392 OFFCURVE",
"281 392 CURVE SMOOTH",
"175 392 OFFCURVE",
"109 395 OFFCURVE",
"37 401 CURVE"
);
}
);
width = 577;
}
);
note = endash.case;
},
{
glyphname = emdash.case;
layers = (
{
layerId = "12E5A654-CA13-4855-9DF9-FF4C09D128B7";
paths = (
{
closed = 1;
nodes = (
"41 277 LINE",
"66 266 LINE",
"139 285 OFFCURVE",
"263 295 OFFCURVE",
"398 295 CURVE SMOOTH",
"500 295 OFFCURVE",
"666 291 OFFCURVE",
"772 285 CURVE",
"803 400 LINE",
"776 411 LINE",
"706 396 OFFCURVE",
"545 392 OFFCURVE",
"425 392 CURVE SMOOTH",
"319 392 OFFCURVE",
"145 394 OFFCURVE",
"61 401 CURVE"
);
}
);
width = 846;
}
);
note = emdash.case;
},
{
glyphname = quotesinglbase;
layers = (
{
layerId = "12E5A654-CA13-4855-9DF9-FF4C09D128B7";
paths = (
{
closed = 1;
nodes = (
"44 -19 OFFCURVE",
"50 -35 OFFCURVE",
"53 -45 CURVE",
"86 -52 OFFCURVE",
"105 -70 OFFCURVE",
"105 -99 CURVE SMOOTH",
"105 -136 OFFCURVE",
"90 -168 OFFCURVE",
"40 -198 CURVE",
"74 -245 LINE",
"215 -181 OFFCURVE",
"257 -89 OFFCURVE",
"257 -11 CURVE SMOOTH",
"257 59 OFFCURVE",
"219 99 OFFCURVE",
"147 99 CURVE SMOOTH",
"88 99 OFFCURVE",
"44 62 OFFCURVE",
"44 1 CURVE SMOOTH"
);
}
);
width = 307;
}
);
leftKerningGroup = comma;
note = quotesinglbase;
rightKerningGroup = comma;
unicode = 201A;
},
{
glyphname = quotedblbase;
layers = (
{
layerId = "12E5A654-CA13-4855-9DF9-FF4C09D128B7";
paths = (
{
closed = 1;
nodes = (
"299 -19 OFFCURVE",
"305 -35 OFFCURVE",
"308 -45 CURVE",
"341 -52 OFFCURVE",
"360 -70 OFFCURVE",
"360 -99 CURVE SMOOTH",
"360 -136 OFFCURVE",
"345 -168 OFFCURVE",
"295 -198 CURVE",
"329 -245 LINE",
"470 -181 OFFCURVE",
"512 -89 OFFCURVE",
"512 -11 CURVE SMOOTH",
"512 59 OFFCURVE",
"474 99 OFFCURVE",
"402 99 CURVE SMOOTH",
"343 99 OFFCURVE",
"299 62 OFFCURVE",
"299 1 CURVE SMOOTH"
);
},
{
closed = 1;
nodes = (
"44 -19 OFFCURVE",
"50 -35 OFFCURVE",
"53 -45 CURVE",
"86 -52 OFFCURVE",
"105 -70 OFFCURVE",
"105 -99 CURVE SMOOTH",
"105 -136 OFFCURVE",
"90 -168 OFFCURVE",
"40 -198 CURVE",
"74 -245 LINE",
"215 -181 OFFCURVE",
"257 -89 OFFCURVE",
"257 -11 CURVE SMOOTH",
"257 59 OFFCURVE",
"219 99 OFFCURVE",
"147 99 CURVE SMOOTH",
"88 99 OFFCURVE",
"44 62 OFFCURVE",
"44 1 CURVE SMOOTH"
);
}
);
width = 562;
}
);
leftKerningGroup = comma;
note = quotedblbase;
rightKerningGroup = comma;
unicode = 201E;
},
{
glyphname = quotedblleft;
layers = (
{
layerId = "12E5A654-CA13-4855-9DF9-FF4C09D128B7";
paths = (
{
closed = 1;
nodes = (
"263 534 OFFCURVE",
"257 550 OFFCURVE",
"254 560 CURVE",
"221 567 OFFCURVE",
"202 585 OFFCURVE",
"202 614 CURVE SMOOTH",
"202 651 OFFCURVE",
"217 683 OFFCURVE",
"267 713 CURVE",
"233 760 LINE",
"92 696 OFFCURVE",
"50 604 OFFCURVE",
"50 526 CURVE SMOOTH",
"50 456 OFFCURVE",
"88 416 OFFCURVE",
"160 416 CURVE SMOOTH",
"219 416 OFFCURVE",
"263 453 OFFCURVE",
"263 514 CURVE SMOOTH"
);
},
{
closed = 1;
nodes = (
"514 534 OFFCURVE",
"508 550 OFFCURVE",
"505 560 CURVE",
"472 567 OFFCURVE",
"453 585 OFFCURVE",
"453 614 CURVE SMOOTH",
"453 651 OFFCURVE",
"468 683 OFFCURVE",
"518 713 CURVE",
"484 760 LINE",
"343 696 OFFCURVE",
"301 604 OFFCURVE",
"301 526 CURVE SMOOTH",
"301 456 OFFCURVE",
"339 416 OFFCURVE",
"411 416 CURVE SMOOTH",
"470 416 OFFCURVE",
"514 453 OFFCURVE",
"514 514 CURVE SMOOTH"
);
}
);
width = 558;
}
);
note = quotedblleft;
unicode = 201C;
},
{
glyphname = quotedblright;
layers = (
{
layerId = "12E5A654-CA13-4855-9DF9-FF4C09D128B7";
paths = (
{
closed = 1;
nodes = (
"44 592 OFFCURVE",
"50 576 OFFCURVE",
"53 566 CURVE",
"86 559 OFFCURVE",
"105 541 OFFCURVE",
"105 512 CURVE SMOOTH",
"105 475 OFFCURVE",
"90 443 OFFCURVE",
"40 413 CURVE",
"74 366 LINE",
"215 430 OFFCURVE",
"257 522 OFFCURVE",
"257 600 CURVE SMOOTH",
"257 670 OFFCURVE",
"219 710 OFFCURVE",
"147 710 CURVE SMOOTH",
"88 710 OFFCURVE",
"44 673 OFFCURVE",
"44 612 CURVE SMOOTH"
);
},
{
closed = 1;
nodes = (
"296 592 OFFCURVE",
"302 576 OFFCURVE",
"305 566 CURVE",
"338 559 OFFCURVE",
"357 541 OFFCURVE",
"357 512 CURVE SMOOTH",
"357 475 OFFCURVE",
"342 443 OFFCURVE",
"292 413 CURVE",
"326 366 LINE",
"467 430 OFFCURVE",
"509 522 OFFCURVE",
"509 600 CURVE SMOOTH",
"509 670 OFFCURVE",
"471 710 OFFCURVE",
"399 710 CURVE SMOOTH",
"340 710 OFFCURVE",
"296 673 OFFCURVE",
"296 612 CURVE SMOOTH"
);
}
);
width = 559;
}
);
note = quotedblright;
unicode = 201D;
},
{
glyphname = quoteleft;
layers = (
{
layerId = "12E5A654-CA13-4855-9DF9-FF4C09D128B7";
paths = (
{
closed = 1;
nodes = (
"263 534 OFFCURVE",
"257 550 OFFCURVE",
"254 560 CURVE",
"221 567 OFFCURVE",
"202 585 OFFCURVE",
"202 614 CURVE SMOOTH",
"202 651 OFFCURVE",
"217 683 OFFCURVE",
"267 713 CURVE",
"233 760 LINE",
"92 696 OFFCURVE",
"50 604 OFFCURVE",
"50 526 CURVE SMOOTH",
"50 456 OFFCURVE",
"88 416 OFFCURVE",
"160 416 CURVE SMOOTH",
"219 416 OFFCURVE",
"263 453 OFFCURVE",
"263 514 CURVE SMOOTH"
);
}
);
width = 307;
}
);
note = quoteleft;
unicode = 2018;
},
{
glyphname = quoteright;
layers = (
{
layerId = "12E5A654-CA13-4855-9DF9-FF4C09D128B7";
paths = (
{
closed = 1;
nodes = (
"44 592 OFFCURVE",
"50 576 OFFCURVE",
"53 566 CURVE",
"86 559 OFFCURVE",
"105 541 OFFCURVE",
"105 512 CURVE SMOOTH",
"105 475 OFFCURVE",
"90 443 OFFCURVE",
"40 413 CURVE",
"74 366 LINE",
"215 430 OFFCURVE",
"257 522 OFFCURVE",
"257 600 CURVE SMOOTH",
"257 670 OFFCURVE",
"219 710 OFFCURVE",
"147 710 CURVE SMOOTH",
"88 710 OFFCURVE",
"44 673 OFFCURVE",
"44 612 CURVE SMOOTH"
);
}
);
width = 307;
}
);
note = quoteright;
unicode = 2019;
},
{
glyphname = guillemotleft;
layers = (
{
layerId = "12E5A654-CA13-4855-9DF9-FF4C09D128B7";
paths = (
{
closed = 1;
nodes = (
"300 330 LINE",
"210 429 LINE",
"139 373 OFFCURVE",
"40 260 OFFCURVE",
"5 187 CURVE",
"59 108 OFFCURVE",
"177 4 OFFCURVE",
"228 -20 CURVE",
"278 47 LINE",
"242 80 OFFCURVE",
"187 148 OFFCURVE",
"178 173 CURVE",
"191 202 OFFCURVE",
"247 259 OFFCURVE",
"296 292 CURVE"
);
},
{
closed = 1;
nodes = (
"523 115 LINE",
"474 145 OFFCURVE",
"427 197 OFFCURVE",
"414 223 CURVE",
"423 246 OFFCURVE",
"479 308 OFFCURVE",
"515 338 CURVE",
"465 399 LINE",
"413 377 OFFCURVE",
"287 255 OFFCURVE",
"233 183 CURVE",
"268 117 OFFCURVE",
"358 36 OFFCURVE",
"436 -10 CURVE",
"527 80 LINE"
);
}
);
width = 547;
}
);
note = guillemotleft;
unicode = 00AB;
},
{
glyphname = guillemotright;
layers = (
{
layerId = "12E5A654-CA13-4855-9DF9-FF4C09D128B7";
paths = (
{
closed = 1;
nodes = (
"247 79 LINE",
"337 -20 LINE",
"408 36 OFFCURVE",
"507 149 OFFCURVE",
"542 222 CURVE",
"488 301 OFFCURVE",
"370 405 OFFCURVE",
"319 429 CURVE",
"269 362 LINE",
"305 329 OFFCURVE",
"360 261 OFFCURVE",
"369 236 CURVE",
"356 207 OFFCURVE",
"300 150 OFFCURVE",
"251 117 CURVE"
);
},
{
closed = 1;
nodes = (
"24 294 LINE",
"73 264 OFFCURVE",
"120 212 OFFCURVE",
"133 186 CURVE",
"124 163 OFFCURVE",
"68 101 OFFCURVE",
"32 71 CURVE",
"82 10 LINE",
"134 32 OFFCURVE",
"260 154 OFFCURVE",
"314 226 CURVE",
"279 292 OFFCURVE",
"189 373 OFFCURVE",
"111 419 CURVE",
"20 329 LINE"
);
}
);
width = 547;
}
);
note = guillemotright;
unicode = 00BB;
},
{
glyphname = guilsinglleft;
layers = (
{
layerId = "12E5A654-CA13-4855-9DF9-FF4C09D128B7";
paths = (
{
closed = 1;
nodes = (
"300 330 LINE",
"210 429 LINE",
"139 373 OFFCURVE",
"40 260 OFFCURVE",
"5 187 CURVE",
"59 108 OFFCURVE",
"177 4 OFFCURVE",
"228 -20 CURVE",
"278 47 LINE",
"242 80 OFFCURVE",
"187 148 OFFCURVE",
"178 173 CURVE",
"191 202 OFFCURVE",
"247 259 OFFCURVE",
"296 292 CURVE"
);
}
);
width = 320;
}
);
note = guilsinglleft;
unicode = 2039;
},
{
glyphname = guilsinglright;
layers = (
{
layerId = "12E5A654-CA13-4855-9DF9-FF4C09D128B7";
paths = (
{
closed = 1;
nodes = (
"20 79 LINE",
"110 -20 LINE",
"181 36 OFFCURVE",
"280 149 OFFCURVE",
"315 222 CURVE",
"261 301 OFFCURVE",
"143 405 OFFCURVE",
"92 429 CURVE",
"42 362 LINE",
"78 329 OFFCURVE",
"133 261 OFFCURVE",
"142 236 CURVE",
"129 207 OFFCURVE",
"73 150 OFFCURVE",
"24 117 CURVE"
);
}
);
width = 320;
}
);
note = guilsinglright;
unicode = 203A;
},
{
glyphname = quotedbl;
layers = (
{
layerId = "12E5A654-CA13-4855-9DF9-FF4C09D128B7";
paths = (
{
closed = 1;
nodes = (
"171 395 LINE",
"211 472 OFFCURVE",
"235 563 OFFCURVE",
"235 615 CURVE SMOOTH",
"235 685 OFFCURVE",
"201 710 OFFCURVE",
"149 710 CURVE SMOOTH",
"87 710 OFFCURVE",
"60 679 OFFCURVE",
"60 616 CURVE SMOOTH",
"60 564 OFFCURVE",
"86 473 OFFCURVE",
"129 395 CURVE"
);
},
{
closed = 1;
nodes = (
"382 395 LINE",
"422 472 OFFCURVE",
"446 563 OFFCURVE",
"446 615 CURVE SMOOTH",
"446 685 OFFCURVE",
"412 710 OFFCURVE",
"360 710 CURVE SMOOTH",
"298 710 OFFCURVE",
"271 679 OFFCURVE",
"271 616 CURVE SMOOTH",
"271 564 OFFCURVE",
"297 473 OFFCURVE",
"340 395 CURVE"
);
}
);
width = 506;
}
);
note = quotedbl;
unicode = 0022;
},
{
glyphname = quotesingle;
layers = (
{
layerId = "12E5A654-CA13-4855-9DF9-FF4C09D128B7";
paths = (
{
closed = 1;
nodes = (
"171 395 LINE",
"211 472 OFFCURVE",
"235 563 OFFCURVE",
"235 615 CURVE SMOOTH",
"235 685 OFFCURVE",
"201 710 OFFCURVE",
"149 710 CURVE SMOOTH",
"87 710 OFFCURVE",
"60 679 OFFCURVE",
"60 616 CURVE SMOOTH",
"60 564 OFFCURVE",
"86 473 OFFCURVE",
"129 395 CURVE"
);
}
);
width = 295;
}
);
note = quotesingle;
unicode = 0027;
},
{
glyphname = guillemotleft.case;
layers = (
{
layerId = "12E5A654-CA13-4855-9DF9-FF4C09D128B7";
paths = (
{
closed = 1;
nodes = (
"300 410 LINE",
"210 509 LINE",
"139 453 OFFCURVE",
"40 340 OFFCURVE",
"5 267 CURVE",
"59 188 OFFCURVE",
"177 84 OFFCURVE",
"228 60 CURVE",
"278 127 LINE",
"242 160 OFFCURVE",
"187 228 OFFCURVE",
"178 253 CURVE",
"191 282 OFFCURVE",
"247 339 OFFCURVE",
"296 372 CURVE"
);
},
{
closed = 1;
nodes = (
"523 195 LINE",
"474 225 OFFCURVE",
"427 277 OFFCURVE",
"414 303 CURVE",
"423 326 OFFCURVE",
"479 388 OFFCURVE",
"515 418 CURVE",
"465 479 LINE",
"413 457 OFFCURVE",
"287 335 OFFCURVE",
"233 263 CURVE",
"268 197 OFFCURVE",
"358 116 OFFCURVE",
"436 70 CURVE",
"527 160 LINE"
);
}
);
width = 547;
}
);
note = guillemotleft.case;
},
{
glyphname = guillemotright.case;
layers = (
{
layerId = "12E5A654-CA13-4855-9DF9-FF4C09D128B7";
paths = (
{
closed = 1;
nodes = (
"247 159 LINE",
"337 60 LINE",
"408 116 OFFCURVE",
"507 229 OFFCURVE",
"542 302 CURVE",
"488 381 OFFCURVE",
"370 485 OFFCURVE",
"319 509 CURVE",
"269 442 LINE",
"305 409 OFFCURVE",
"360 341 OFFCURVE",
"369 316 CURVE",
"356 287 OFFCURVE",
"300 230 OFFCURVE",
"251 197 CURVE"
);
},
{
closed = 1;
nodes = (
"24 374 LINE",
"73 344 OFFCURVE",
"120 292 OFFCURVE",
"133 266 CURVE",
"124 243 OFFCURVE",
"68 181 OFFCURVE",
"32 151 CURVE",
"82 90 LINE",
"134 112 OFFCURVE",
"260 234 OFFCURVE",
"314 306 CURVE",
"279 372 OFFCURVE",
"189 453 OFFCURVE",
"111 499 CURVE",
"20 409 LINE"
);
}
);
width = 547;
}
);
note = guillemotright.case;
},
{
glyphname = guilsinglleft.case;
layers = (
{
layerId = "12E5A654-CA13-4855-9DF9-FF4C09D128B7";
paths = (
{
closed = 1;
nodes = (
"300 410 LINE",
"210 509 LINE",
"139 453 OFFCURVE",
"40 340 OFFCURVE",
"5 267 CURVE",
"59 188 OFFCURVE",
"177 84 OFFCURVE",
"228 60 CURVE",
"278 127 LINE",
"242 160 OFFCURVE",
"187 228 OFFCURVE",
"178 253 CURVE",
"191 282 OFFCURVE",
"247 339 OFFCURVE",
"296 372 CURVE"
);
}
);
width = 320;
}
);
note = guilsinglleft.case;
},
{
glyphname = guilsinglright.case;
layers = (
{
layerId = "12E5A654-CA13-4855-9DF9-FF4C09D128B7";
paths = (
{
closed = 1;
nodes = (
"20 159 LINE",
"110 60 LINE",
"181 116 OFFCURVE",
"280 229 OFFCURVE",
"315 302 CURVE",
"261 381 OFFCURVE",
"143 485 OFFCURVE",
"92 509 CURVE",
"42 442 LINE",
"78 409 OFFCURVE",
"133 341 OFFCURVE",
"142 316 CURVE",
"129 287 OFFCURVE",
"73 230 OFFCURVE",
"24 197 CURVE"
);
}
);
width = 320;
}
);
note = guilsinglright.case;
},
